G04 Layer: TopPasteMaskLayer*
G04 EasyEDA v6.5.47, 2024-10-10 22:53:33*
G04 4497fee167be4918ac379375847d30c4,a18d025d90d848418757c69f2d6d6cc0,10*
G04 Gerber Generator version 0.2*
G04 Scale: 100 percent, Rotated: No, Reflected: No *
G04 Dimensions in millimeters *
G04 leading zeros omitted , absolute positions ,4 integer and 5 decimal *
%FSLAX45Y45*%
%MOMM*%

%AMMACRO1*21,1,$1,$2,0,0,$3*%
%ADD10R,0.8000X0.9000*%
%ADD11R,0.9000X0.8000*%
%ADD12R,1.0922X0.8128*%
%ADD13R,1.1570X0.4900*%
%ADD14R,1.1750X0.4900*%
%ADD15MACRO1,0.8X0.65X0.0000*%
%ADD16R,0.8000X0.8000*%
%ADD17O,3.9999919999999998X1.499997*%
%ADD18R,0.7000X1.5000*%
%ADD19R,1.0000X0.8000*%
%ADD20R,0.6000X1.2000*%
%ADD21R,3.3000X2.4000*%
%ADD22R,1.2000X1.4000*%
%ADD23MACRO1,1.2X1.4X0.0000*%
%ADD24R,1.7000X0.6000*%
%ADD25R,2.9000X1.3000*%
%ADD26R,1.1000X0.6000*%
%ADD27MACRO1,0.8128X1.0922X-130.9998*%
%ADD28MACRO1,0.8128X1.0922X-130.9985*%
%ADD29R,0.5000X0.5000*%
%ADD30R,0.0148X0.5000*%

%LPD*%
G36*
X2064918Y-843991D02*
G01*
X2059889Y-849020D01*
X2059889Y-928979D01*
X2064918Y-934008D01*
X2144877Y-934008D01*
X2149906Y-928979D01*
X2149906Y-906221D01*
X2112924Y-906221D01*
X2112924Y-873201D01*
X2149906Y-873201D01*
X2149906Y-849020D01*
X2144877Y-843991D01*
G37*
G36*
X2223922Y-843991D02*
G01*
X2218893Y-849020D01*
X2218893Y-871778D01*
X2255875Y-871778D01*
X2255875Y-904798D01*
X2218893Y-904798D01*
X2218893Y-928979D01*
X2223922Y-934008D01*
X2303881Y-934008D01*
X2308910Y-928979D01*
X2308910Y-849020D01*
X2303881Y-843991D01*
G37*
G36*
X661822Y-2380691D02*
G01*
X656793Y-2385720D01*
X656793Y-2408478D01*
X693826Y-2408478D01*
X693826Y-2441498D01*
X656793Y-2441498D01*
X656793Y-2465679D01*
X661822Y-2470708D01*
X741781Y-2470708D01*
X746810Y-2465679D01*
X746810Y-2385720D01*
X741781Y-2380691D01*
G37*
G36*
X502818Y-2380691D02*
G01*
X497789Y-2385720D01*
X497789Y-2465679D01*
X502818Y-2470708D01*
X582777Y-2470708D01*
X587806Y-2465679D01*
X587806Y-2442921D01*
X550773Y-2442921D01*
X550773Y-2409901D01*
X587806Y-2409901D01*
X587806Y-2385720D01*
X582777Y-2380691D01*
G37*
G36*
X3722522Y-1936191D02*
G01*
X3717493Y-1941220D01*
X3717493Y-1963978D01*
X3754475Y-1963978D01*
X3754475Y-1996998D01*
X3717493Y-1996998D01*
X3717493Y-2021179D01*
X3722522Y-2026208D01*
X3802481Y-2026208D01*
X3807510Y-2021179D01*
X3807510Y-1941220D01*
X3802481Y-1936191D01*
G37*
G36*
X3563518Y-1936191D02*
G01*
X3558489Y-1941220D01*
X3558489Y-2021179D01*
X3563518Y-2026208D01*
X3643477Y-2026208D01*
X3648506Y-2021179D01*
X3648506Y-1998421D01*
X3611524Y-1998421D01*
X3611524Y-1965401D01*
X3648506Y-1965401D01*
X3648506Y-1941220D01*
X3643477Y-1936191D01*
G37*
G36*
X3722522Y-1580591D02*
G01*
X3717493Y-1585620D01*
X3717493Y-1608378D01*
X3754475Y-1608378D01*
X3754475Y-1641398D01*
X3717493Y-1641398D01*
X3717493Y-1665579D01*
X3722522Y-1670608D01*
X3802481Y-1670608D01*
X3807510Y-1665579D01*
X3807510Y-1585620D01*
X3802481Y-1580591D01*
G37*
G36*
X3563518Y-1580591D02*
G01*
X3558489Y-1585620D01*
X3558489Y-1665579D01*
X3563518Y-1670608D01*
X3643477Y-1670608D01*
X3648506Y-1665579D01*
X3648506Y-1642821D01*
X3611524Y-1642821D01*
X3611524Y-1609801D01*
X3648506Y-1609801D01*
X3648506Y-1585620D01*
X3643477Y-1580591D01*
G37*
G36*
X3722522Y-1275791D02*
G01*
X3717493Y-1280820D01*
X3717493Y-1303578D01*
X3754475Y-1303578D01*
X3754475Y-1336598D01*
X3717493Y-1336598D01*
X3717493Y-1360779D01*
X3722522Y-1365808D01*
X3802481Y-1365808D01*
X3807510Y-1360779D01*
X3807510Y-1280820D01*
X3802481Y-1275791D01*
G37*
G36*
X3563518Y-1275791D02*
G01*
X3558489Y-1280820D01*
X3558489Y-1360779D01*
X3563518Y-1365808D01*
X3643477Y-1365808D01*
X3648506Y-1360779D01*
X3648506Y-1338021D01*
X3611524Y-1338021D01*
X3611524Y-1305001D01*
X3648506Y-1305001D01*
X3648506Y-1280820D01*
X3643477Y-1275791D01*
G37*
G36*
X1847850Y-919683D02*
G01*
X1844802Y-920140D01*
X1841195Y-921562D01*
X1838756Y-923391D01*
X1836724Y-925728D01*
X1835556Y-927709D01*
X1834540Y-930656D01*
X1834286Y-932180D01*
X1834235Y-986485D01*
X1834743Y-989533D01*
X1836267Y-993038D01*
X1837639Y-994918D01*
X1840585Y-997407D01*
X1844039Y-999083D01*
X1847088Y-999642D01*
X1848612Y-999693D01*
X1851660Y-999286D01*
X1854555Y-998169D01*
X1857705Y-995984D01*
X1859737Y-993698D01*
X1861464Y-990244D01*
X1862124Y-987247D01*
X1862226Y-933703D01*
X1862023Y-931418D01*
X1861464Y-929132D01*
X1859737Y-925728D01*
X1857705Y-923391D01*
X1854555Y-921207D01*
X1852422Y-920343D01*
X1849374Y-919734D01*
G37*
G36*
X1447850Y-919683D02*
G01*
X1444802Y-920140D01*
X1441196Y-921562D01*
X1438757Y-923391D01*
X1436725Y-925728D01*
X1435557Y-927709D01*
X1434541Y-930656D01*
X1434287Y-932180D01*
X1434236Y-986485D01*
X1434744Y-989533D01*
X1436268Y-993038D01*
X1437640Y-994918D01*
X1440586Y-997407D01*
X1444040Y-999083D01*
X1447088Y-999642D01*
X1448612Y-999693D01*
X1451660Y-999286D01*
X1454556Y-998169D01*
X1457706Y-995984D01*
X1459738Y-993698D01*
X1461465Y-990244D01*
X1462125Y-987247D01*
X1462227Y-933703D01*
X1462024Y-931418D01*
X1461465Y-929132D01*
X1459738Y-925728D01*
X1457706Y-923391D01*
X1454556Y-921207D01*
X1452422Y-920343D01*
X1449374Y-919734D01*
G37*
G36*
X1647850Y-919683D02*
G01*
X1645513Y-919937D01*
X1641906Y-921207D01*
X1640535Y-921969D01*
X1638757Y-923391D01*
X1636725Y-925728D01*
X1635556Y-927709D01*
X1634540Y-930656D01*
X1634286Y-932180D01*
X1634236Y-986485D01*
X1634744Y-989533D01*
X1636268Y-993038D01*
X1637639Y-994918D01*
X1640535Y-997407D01*
X1644040Y-999083D01*
X1647037Y-999642D01*
X1648612Y-999693D01*
X1651660Y-999286D01*
X1654556Y-998169D01*
X1657705Y-995984D01*
X1659737Y-993698D01*
X1660906Y-991666D01*
X1661871Y-988771D01*
X1662125Y-987247D01*
X1662226Y-933703D01*
X1662023Y-931418D01*
X1660906Y-927709D01*
X1658772Y-924509D01*
X1657705Y-923391D01*
X1654556Y-921207D01*
X1650898Y-919937D01*
G37*
G36*
X1247851Y-919683D02*
G01*
X1244803Y-920140D01*
X1241196Y-921562D01*
X1239316Y-922883D01*
X1237640Y-924509D01*
X1236268Y-926388D01*
X1234744Y-929894D01*
X1234236Y-932942D01*
X1234287Y-987247D01*
X1234541Y-988771D01*
X1235913Y-992378D01*
X1236726Y-993698D01*
X1238199Y-995476D01*
X1239926Y-997000D01*
X1243330Y-998829D01*
X1246276Y-999591D01*
X1250137Y-999591D01*
X1252372Y-999083D01*
X1255217Y-997813D01*
X1256487Y-997000D01*
X1258265Y-995476D01*
X1260551Y-992378D01*
X1261668Y-989533D01*
X1262024Y-988009D01*
X1262227Y-985723D01*
X1262126Y-932180D01*
X1261211Y-928420D01*
X1259281Y-925118D01*
X1257096Y-922883D01*
X1255217Y-921562D01*
X1251661Y-920140D01*
X1249375Y-919734D01*
G37*
G36*
X1747824Y-919683D02*
G01*
X1745538Y-919937D01*
X1741881Y-921207D01*
X1738731Y-923391D01*
X1736699Y-925728D01*
X1734972Y-929132D01*
X1734413Y-931418D01*
X1734210Y-933703D01*
X1734312Y-987247D01*
X1734972Y-990244D01*
X1736699Y-993698D01*
X1738731Y-995984D01*
X1741881Y-998169D01*
X1744776Y-999286D01*
X1747824Y-999693D01*
X1750923Y-999439D01*
X1753819Y-998524D01*
X1757121Y-996492D01*
X1758797Y-994918D01*
X1760169Y-993038D01*
X1761693Y-989533D01*
X1762201Y-986485D01*
X1762150Y-932180D01*
X1761439Y-929132D01*
X1760880Y-927709D01*
X1759712Y-925728D01*
X1757680Y-923391D01*
X1755241Y-921562D01*
X1751634Y-920140D01*
X1749399Y-919734D01*
G37*
G36*
X1347825Y-919683D02*
G01*
X1345539Y-919937D01*
X1343304Y-920597D01*
X1341221Y-921562D01*
X1338173Y-923950D01*
X1335887Y-927049D01*
X1335227Y-928420D01*
X1334312Y-932180D01*
X1334211Y-985723D01*
X1334414Y-988009D01*
X1335227Y-990955D01*
X1335887Y-992378D01*
X1338173Y-995476D01*
X1339951Y-997000D01*
X1342593Y-998524D01*
X1344015Y-999083D01*
X1346301Y-999591D01*
X1350162Y-999591D01*
X1353108Y-998829D01*
X1356512Y-997000D01*
X1358239Y-995476D01*
X1359712Y-993698D01*
X1361186Y-990955D01*
X1361897Y-988771D01*
X1362151Y-987247D01*
X1362202Y-932942D01*
X1361694Y-929894D01*
X1360170Y-926388D01*
X1358798Y-924509D01*
X1357122Y-922883D01*
X1354531Y-921207D01*
X1350924Y-919937D01*
G37*
G36*
X1547825Y-919683D02*
G01*
X1545539Y-919937D01*
X1541881Y-921207D01*
X1538732Y-923391D01*
X1536700Y-925728D01*
X1535531Y-927709D01*
X1534414Y-931418D01*
X1534210Y-933703D01*
X1534312Y-987247D01*
X1534972Y-990244D01*
X1535531Y-991666D01*
X1536700Y-993698D01*
X1538732Y-995984D01*
X1541881Y-998169D01*
X1544777Y-999286D01*
X1547825Y-999693D01*
X1550924Y-999439D01*
X1553819Y-998524D01*
X1555902Y-997407D01*
X1558798Y-994918D01*
X1560169Y-993038D01*
X1561693Y-989533D01*
X1562201Y-986485D01*
X1562150Y-932180D01*
X1561439Y-929132D01*
X1560880Y-927709D01*
X1559712Y-925728D01*
X1557680Y-923391D01*
X1555902Y-921969D01*
X1552397Y-920343D01*
X1549349Y-919734D01*
G37*
G36*
X1147826Y-919683D02*
G01*
X1145540Y-919937D01*
X1141882Y-921207D01*
X1138732Y-923391D01*
X1136700Y-925728D01*
X1135532Y-927709D01*
X1134414Y-931418D01*
X1134211Y-933703D01*
X1134313Y-987247D01*
X1134973Y-990244D01*
X1135532Y-991666D01*
X1136700Y-993698D01*
X1138732Y-995984D01*
X1141882Y-998169D01*
X1144778Y-999286D01*
X1147826Y-999693D01*
X1150924Y-999439D01*
X1153820Y-998524D01*
X1155903Y-997407D01*
X1158798Y-994918D01*
X1160170Y-993038D01*
X1161694Y-989533D01*
X1162202Y-986485D01*
X1162151Y-932180D01*
X1161440Y-929132D01*
X1160881Y-927709D01*
X1159713Y-925728D01*
X1157681Y-923391D01*
X1155903Y-921969D01*
X1152398Y-920343D01*
X1150924Y-919937D01*
G37*
G36*
X1797812Y-919683D02*
G01*
X1795525Y-919937D01*
X1793290Y-920597D01*
X1791207Y-921562D01*
X1788160Y-923950D01*
X1785874Y-927049D01*
X1785213Y-928420D01*
X1784299Y-932180D01*
X1784197Y-985723D01*
X1784400Y-988009D01*
X1785213Y-990955D01*
X1785874Y-992378D01*
X1788160Y-995476D01*
X1789938Y-997000D01*
X1792579Y-998524D01*
X1794002Y-999083D01*
X1796288Y-999591D01*
X1800148Y-999591D01*
X1803095Y-998829D01*
X1806498Y-997000D01*
X1808225Y-995476D01*
X1809699Y-993698D01*
X1811172Y-990955D01*
X1811883Y-988771D01*
X1812137Y-987247D01*
X1812188Y-932942D01*
X1811680Y-929894D01*
X1810156Y-926388D01*
X1808784Y-924509D01*
X1807108Y-922883D01*
X1805228Y-921562D01*
X1801622Y-920140D01*
G37*
G36*
X1397812Y-919683D02*
G01*
X1395526Y-919937D01*
X1393291Y-920597D01*
X1391208Y-921562D01*
X1388160Y-923950D01*
X1385874Y-927049D01*
X1385214Y-928420D01*
X1384300Y-932180D01*
X1384198Y-985723D01*
X1384401Y-988009D01*
X1385214Y-990955D01*
X1385874Y-992378D01*
X1388160Y-995476D01*
X1389938Y-997000D01*
X1392580Y-998524D01*
X1394002Y-999083D01*
X1396288Y-999591D01*
X1400149Y-999591D01*
X1403096Y-998829D01*
X1406499Y-997000D01*
X1408226Y-995476D01*
X1409700Y-993698D01*
X1411173Y-990955D01*
X1411884Y-988771D01*
X1412138Y-987247D01*
X1412189Y-932942D01*
X1411681Y-929894D01*
X1410157Y-926388D01*
X1408785Y-924509D01*
X1407109Y-922883D01*
X1405229Y-921562D01*
X1401622Y-920140D01*
G37*
G36*
X1597812Y-919683D02*
G01*
X1595526Y-919937D01*
X1591868Y-921207D01*
X1588719Y-923391D01*
X1586687Y-925728D01*
X1585518Y-927709D01*
X1584401Y-931418D01*
X1584198Y-933703D01*
X1584299Y-987247D01*
X1584960Y-990244D01*
X1585518Y-991666D01*
X1586687Y-993698D01*
X1588719Y-995984D01*
X1591868Y-998169D01*
X1594764Y-999286D01*
X1597812Y-999693D01*
X1600911Y-999439D01*
X1603806Y-998524D01*
X1607108Y-996492D01*
X1608785Y-994918D01*
X1610156Y-993038D01*
X1611680Y-989533D01*
X1612188Y-986485D01*
X1612138Y-932180D01*
X1611426Y-929132D01*
X1610868Y-927709D01*
X1609699Y-925728D01*
X1607667Y-923391D01*
X1605229Y-921562D01*
X1601622Y-920140D01*
X1599387Y-919734D01*
G37*
G36*
X1197813Y-919683D02*
G01*
X1195527Y-919937D01*
X1191869Y-921207D01*
X1188720Y-923391D01*
X1186688Y-925728D01*
X1184960Y-929132D01*
X1184402Y-931418D01*
X1184198Y-933703D01*
X1184300Y-987247D01*
X1184960Y-990244D01*
X1186688Y-993698D01*
X1188720Y-995984D01*
X1191869Y-998169D01*
X1194765Y-999286D01*
X1197813Y-999693D01*
X1200912Y-999439D01*
X1203807Y-998524D01*
X1207109Y-996492D01*
X1208786Y-994918D01*
X1210157Y-993038D01*
X1211681Y-989533D01*
X1212189Y-986485D01*
X1212138Y-932180D01*
X1211427Y-929132D01*
X1210868Y-927709D01*
X1209700Y-925728D01*
X1207668Y-923391D01*
X1205230Y-921562D01*
X1201623Y-920140D01*
X1199388Y-919734D01*
G37*
G36*
X1697837Y-919683D02*
G01*
X1694789Y-920140D01*
X1691182Y-921562D01*
X1689303Y-922883D01*
X1687626Y-924509D01*
X1686255Y-926388D01*
X1684731Y-929894D01*
X1684223Y-932942D01*
X1684274Y-987247D01*
X1684528Y-988771D01*
X1685899Y-992378D01*
X1686712Y-993698D01*
X1688185Y-995476D01*
X1689912Y-997000D01*
X1693316Y-998829D01*
X1696262Y-999591D01*
X1700123Y-999591D01*
X1702409Y-999083D01*
X1705203Y-997813D01*
X1706473Y-997000D01*
X1708251Y-995476D01*
X1710537Y-992378D01*
X1711655Y-989533D01*
X1712010Y-988009D01*
X1712214Y-985723D01*
X1712112Y-932180D01*
X1711198Y-928420D01*
X1709267Y-925118D01*
X1707083Y-922883D01*
X1705203Y-921562D01*
X1703120Y-920597D01*
X1700885Y-919937D01*
G37*
G36*
X1297178Y-919683D02*
G01*
X1294892Y-919937D01*
X1292656Y-920597D01*
X1290574Y-921562D01*
X1287526Y-923950D01*
X1285240Y-927049D01*
X1284579Y-928420D01*
X1283665Y-932180D01*
X1283563Y-985723D01*
X1283766Y-988009D01*
X1284579Y-990955D01*
X1285240Y-992378D01*
X1287526Y-995476D01*
X1289304Y-997000D01*
X1291945Y-998524D01*
X1293368Y-999083D01*
X1295654Y-999591D01*
X1299514Y-999591D01*
X1302461Y-998829D01*
X1305864Y-997000D01*
X1307592Y-995476D01*
X1309065Y-993698D01*
X1310538Y-990955D01*
X1311249Y-988771D01*
X1311503Y-987247D01*
X1311554Y-932942D01*
X1311046Y-929894D01*
X1309522Y-926388D01*
X1308150Y-924509D01*
X1306474Y-922883D01*
X1304594Y-921562D01*
X1300988Y-920140D01*
G37*
G36*
X1497838Y-919683D02*
G01*
X1495501Y-919937D01*
X1491894Y-921207D01*
X1490522Y-921969D01*
X1488744Y-923391D01*
X1486712Y-925728D01*
X1485544Y-927709D01*
X1484528Y-930656D01*
X1484274Y-932180D01*
X1484223Y-986485D01*
X1484731Y-989533D01*
X1486255Y-993038D01*
X1487627Y-994918D01*
X1490522Y-997407D01*
X1494028Y-999083D01*
X1497025Y-999642D01*
X1498600Y-999693D01*
X1501648Y-999286D01*
X1504543Y-998169D01*
X1507693Y-995984D01*
X1509725Y-993698D01*
X1510893Y-991666D01*
X1511858Y-988771D01*
X1512112Y-987247D01*
X1512214Y-933703D01*
X1512011Y-931418D01*
X1510893Y-927709D01*
X1508760Y-924509D01*
X1507693Y-923391D01*
X1504543Y-921207D01*
X1500886Y-919937D01*
G37*
G36*
X1097838Y-919683D02*
G01*
X1095502Y-919937D01*
X1091895Y-921207D01*
X1090523Y-921969D01*
X1088745Y-923391D01*
X1086713Y-925728D01*
X1085545Y-927709D01*
X1084529Y-930656D01*
X1084275Y-932180D01*
X1084224Y-986485D01*
X1084732Y-989533D01*
X1086256Y-993038D01*
X1087628Y-994918D01*
X1090523Y-997407D01*
X1094028Y-999083D01*
X1097026Y-999642D01*
X1098600Y-999693D01*
X1101648Y-999286D01*
X1104544Y-998169D01*
X1107694Y-995984D01*
X1109726Y-993698D01*
X1110894Y-991666D01*
X1111859Y-988771D01*
X1112113Y-987247D01*
X1112215Y-933703D01*
X1112012Y-931418D01*
X1110894Y-927709D01*
X1108760Y-924509D01*
X1107694Y-923391D01*
X1104544Y-921207D01*
X1100886Y-919937D01*
G37*
G36*
X1896414Y-1020724D02*
G01*
X1893366Y-1021232D01*
X1889861Y-1022756D01*
X1887982Y-1024128D01*
X1885492Y-1027023D01*
X1883816Y-1030528D01*
X1883257Y-1033526D01*
X1883206Y-1035100D01*
X1883613Y-1038148D01*
X1884730Y-1041044D01*
X1886915Y-1044194D01*
X1889201Y-1046226D01*
X1891233Y-1047394D01*
X1894128Y-1048359D01*
X1895652Y-1048613D01*
X1949196Y-1048715D01*
X1951482Y-1048512D01*
X1955190Y-1047394D01*
X1958390Y-1045260D01*
X1959508Y-1044194D01*
X1961692Y-1041044D01*
X1962962Y-1037386D01*
X1963216Y-1035100D01*
X1963166Y-1033526D01*
X1962302Y-1029817D01*
X1961337Y-1027684D01*
X1960016Y-1025804D01*
X1958390Y-1024128D01*
X1956511Y-1022756D01*
X1953006Y-1021232D01*
X1949957Y-1020724D01*
G37*
G36*
X996442Y-1020724D02*
G01*
X993394Y-1021232D01*
X989888Y-1022756D01*
X988009Y-1024128D01*
X986383Y-1025804D01*
X985062Y-1027684D01*
X983640Y-1031290D01*
X983234Y-1033526D01*
X983183Y-1035100D01*
X983437Y-1037386D01*
X984707Y-1041044D01*
X986891Y-1044194D01*
X989228Y-1046226D01*
X991209Y-1047394D01*
X994918Y-1048512D01*
X997203Y-1048715D01*
X1050747Y-1048613D01*
X1053744Y-1047953D01*
X1055166Y-1047394D01*
X1057198Y-1046226D01*
X1059484Y-1044194D01*
X1061669Y-1041044D01*
X1062786Y-1038148D01*
X1063193Y-1035100D01*
X1062939Y-1032002D01*
X1062024Y-1029106D01*
X1060907Y-1027023D01*
X1058418Y-1024128D01*
X1056538Y-1022756D01*
X1053033Y-1021232D01*
X1049985Y-1020724D01*
G37*
G36*
X1173226Y-1109726D02*
G01*
X1173226Y-1709724D01*
X1773224Y-1709724D01*
X1773224Y-1109726D01*
G37*
G36*
X1896414Y-1070711D02*
G01*
X1893366Y-1071219D01*
X1889861Y-1072743D01*
X1887982Y-1074115D01*
X1885492Y-1077010D01*
X1883816Y-1080516D01*
X1883257Y-1083564D01*
X1883206Y-1085088D01*
X1883613Y-1088136D01*
X1884730Y-1091031D01*
X1886915Y-1094181D01*
X1889201Y-1096213D01*
X1892655Y-1097940D01*
X1895652Y-1098600D01*
X1949196Y-1098702D01*
X1951482Y-1098499D01*
X1953768Y-1097940D01*
X1957171Y-1096213D01*
X1959508Y-1094181D01*
X1961692Y-1091031D01*
X1962556Y-1088898D01*
X1963166Y-1085850D01*
X1963064Y-1082751D01*
X1962302Y-1079804D01*
X1961337Y-1077671D01*
X1960016Y-1075791D01*
X1958390Y-1074115D01*
X1956511Y-1072743D01*
X1953006Y-1071219D01*
X1949957Y-1070711D01*
G37*
G36*
X996442Y-1070711D02*
G01*
X993394Y-1071219D01*
X989888Y-1072743D01*
X988009Y-1074115D01*
X986383Y-1075791D01*
X985062Y-1077671D01*
X983640Y-1081278D01*
X983183Y-1084326D01*
X983234Y-1085850D01*
X983843Y-1088898D01*
X984707Y-1091031D01*
X986891Y-1094181D01*
X989228Y-1096213D01*
X992632Y-1097940D01*
X994918Y-1098499D01*
X997203Y-1098702D01*
X1050747Y-1098600D01*
X1053744Y-1097940D01*
X1057198Y-1096213D01*
X1059484Y-1094181D01*
X1061669Y-1091031D01*
X1062786Y-1088136D01*
X1063193Y-1085088D01*
X1062939Y-1081989D01*
X1062024Y-1079093D01*
X1060907Y-1077010D01*
X1058418Y-1074115D01*
X1056538Y-1072743D01*
X1053033Y-1071219D01*
X1049985Y-1070711D01*
G37*
G36*
X1897176Y-1120698D02*
G01*
X1894890Y-1120902D01*
X1891944Y-1121714D01*
X1890522Y-1122375D01*
X1887423Y-1124661D01*
X1885899Y-1126439D01*
X1884375Y-1129080D01*
X1883816Y-1130554D01*
X1883308Y-1132789D01*
X1883308Y-1136650D01*
X1884070Y-1139596D01*
X1885899Y-1143000D01*
X1887423Y-1144727D01*
X1889201Y-1146200D01*
X1891944Y-1147673D01*
X1894128Y-1148384D01*
X1895652Y-1148638D01*
X1949957Y-1148689D01*
X1953006Y-1148181D01*
X1956511Y-1146657D01*
X1958390Y-1145286D01*
X1960016Y-1143609D01*
X1961692Y-1141018D01*
X1962962Y-1137412D01*
X1963216Y-1135075D01*
X1963166Y-1133551D01*
X1962302Y-1129792D01*
X1961337Y-1127709D01*
X1958949Y-1124661D01*
X1955850Y-1122375D01*
X1954479Y-1121714D01*
X1950720Y-1120800D01*
G37*
G36*
X997203Y-1120698D02*
G01*
X994918Y-1120902D01*
X992632Y-1121460D01*
X989228Y-1123188D01*
X986891Y-1125220D01*
X984707Y-1128369D01*
X983437Y-1132027D01*
X983183Y-1134313D01*
X983234Y-1135888D01*
X984097Y-1139596D01*
X985062Y-1141730D01*
X986891Y-1144168D01*
X989228Y-1146200D01*
X991209Y-1147368D01*
X994156Y-1148384D01*
X995680Y-1148638D01*
X1049985Y-1148689D01*
X1053033Y-1148181D01*
X1056538Y-1146657D01*
X1058418Y-1145286D01*
X1060907Y-1142339D01*
X1062583Y-1138885D01*
X1063142Y-1135888D01*
X1063193Y-1134313D01*
X1062786Y-1131265D01*
X1061669Y-1128369D01*
X1059484Y-1125220D01*
X1057198Y-1123188D01*
X1053744Y-1121460D01*
X1050747Y-1120800D01*
G37*
G36*
X1897176Y-1170686D02*
G01*
X1894890Y-1170889D01*
X1891944Y-1171702D01*
X1890522Y-1172362D01*
X1887423Y-1174648D01*
X1885899Y-1176426D01*
X1884375Y-1179068D01*
X1883816Y-1180490D01*
X1883308Y-1182776D01*
X1883308Y-1186637D01*
X1884070Y-1189583D01*
X1885899Y-1192987D01*
X1887423Y-1194714D01*
X1889201Y-1196187D01*
X1891944Y-1197660D01*
X1894128Y-1198372D01*
X1895652Y-1198626D01*
X1949957Y-1198676D01*
X1953006Y-1198168D01*
X1956511Y-1196644D01*
X1958390Y-1195273D01*
X1960016Y-1193596D01*
X1961337Y-1191717D01*
X1962759Y-1188110D01*
X1963216Y-1185062D01*
X1963166Y-1183538D01*
X1962556Y-1180490D01*
X1961692Y-1178356D01*
X1959508Y-1175207D01*
X1957171Y-1173175D01*
X1953768Y-1171448D01*
X1951482Y-1170889D01*
X1949196Y-1170686D01*
G37*
G36*
X997203Y-1170686D02*
G01*
X994918Y-1170889D01*
X992632Y-1171448D01*
X989228Y-1173175D01*
X986891Y-1175207D01*
X984707Y-1178356D01*
X983843Y-1180490D01*
X983234Y-1183538D01*
X983335Y-1186637D01*
X984097Y-1189583D01*
X985062Y-1191717D01*
X986383Y-1193596D01*
X988009Y-1195273D01*
X989888Y-1196644D01*
X993394Y-1198168D01*
X996442Y-1198676D01*
X1050747Y-1198626D01*
X1052271Y-1198372D01*
X1055878Y-1197000D01*
X1057198Y-1196187D01*
X1058976Y-1194714D01*
X1060500Y-1192987D01*
X1062329Y-1189583D01*
X1063091Y-1186637D01*
X1063091Y-1182776D01*
X1062583Y-1180490D01*
X1061313Y-1177696D01*
X1060500Y-1176426D01*
X1058976Y-1174648D01*
X1055878Y-1172362D01*
X1053033Y-1171244D01*
X1051509Y-1170889D01*
X1049223Y-1170686D01*
G37*
G36*
X1896414Y-1220724D02*
G01*
X1893366Y-1221232D01*
X1889861Y-1222756D01*
X1887982Y-1224127D01*
X1885492Y-1227074D01*
X1883816Y-1230528D01*
X1883257Y-1233576D01*
X1883206Y-1235100D01*
X1883613Y-1238148D01*
X1884730Y-1241044D01*
X1886915Y-1244193D01*
X1889201Y-1246225D01*
X1892655Y-1247952D01*
X1895652Y-1248613D01*
X1949196Y-1248714D01*
X1951482Y-1248511D01*
X1953768Y-1247952D01*
X1957171Y-1246225D01*
X1959508Y-1244193D01*
X1961692Y-1241044D01*
X1962556Y-1238910D01*
X1963166Y-1235862D01*
X1963064Y-1232763D01*
X1962302Y-1229817D01*
X1961337Y-1227683D01*
X1959508Y-1225245D01*
X1957171Y-1223213D01*
X1955190Y-1222044D01*
X1952243Y-1221028D01*
X1950720Y-1220774D01*
G37*
G36*
X996442Y-1220724D02*
G01*
X993394Y-1221232D01*
X989888Y-1222756D01*
X988009Y-1224127D01*
X986383Y-1225804D01*
X984707Y-1228394D01*
X983437Y-1232001D01*
X983183Y-1235100D01*
X983437Y-1237386D01*
X984097Y-1239621D01*
X985062Y-1241704D01*
X987450Y-1244752D01*
X990549Y-1247038D01*
X991920Y-1247698D01*
X995680Y-1248613D01*
X1049223Y-1248714D01*
X1051509Y-1248511D01*
X1054455Y-1247698D01*
X1055878Y-1247038D01*
X1058976Y-1244752D01*
X1060500Y-1242974D01*
X1062024Y-1240332D01*
X1062583Y-1238910D01*
X1063091Y-1236624D01*
X1063091Y-1232763D01*
X1062329Y-1229817D01*
X1060500Y-1226413D01*
X1058976Y-1224686D01*
X1057198Y-1223213D01*
X1054455Y-1221740D01*
X1052271Y-1221028D01*
X1050747Y-1220774D01*
G37*
G36*
X1896414Y-1270711D02*
G01*
X1893366Y-1271219D01*
X1889861Y-1272743D01*
X1887982Y-1274114D01*
X1885492Y-1277061D01*
X1883816Y-1280515D01*
X1883257Y-1283512D01*
X1883206Y-1285087D01*
X1883613Y-1288135D01*
X1884730Y-1291031D01*
X1886915Y-1294180D01*
X1889201Y-1296212D01*
X1891233Y-1297381D01*
X1894128Y-1298346D01*
X1895652Y-1298600D01*
X1949196Y-1298702D01*
X1951482Y-1298498D01*
X1955190Y-1297381D01*
X1958390Y-1295247D01*
X1959508Y-1294180D01*
X1961692Y-1291031D01*
X1962962Y-1287373D01*
X1963216Y-1285087D01*
X1963166Y-1283512D01*
X1962302Y-1279804D01*
X1961337Y-1277670D01*
X1959508Y-1275232D01*
X1957171Y-1273200D01*
X1955190Y-1272032D01*
X1952243Y-1271016D01*
X1950720Y-1270762D01*
G37*
G36*
X996442Y-1270711D02*
G01*
X993394Y-1271219D01*
X989888Y-1272743D01*
X988009Y-1274114D01*
X986383Y-1275791D01*
X984707Y-1278382D01*
X983437Y-1281988D01*
X983183Y-1284325D01*
X983234Y-1285849D01*
X984097Y-1289608D01*
X985062Y-1291691D01*
X987450Y-1294739D01*
X990549Y-1297025D01*
X991920Y-1297686D01*
X995680Y-1298600D01*
X1049223Y-1298702D01*
X1051509Y-1298498D01*
X1054455Y-1297686D01*
X1055878Y-1297025D01*
X1058976Y-1294739D01*
X1060500Y-1292961D01*
X1062024Y-1290320D01*
X1062583Y-1288846D01*
X1063091Y-1286611D01*
X1063091Y-1282750D01*
X1062329Y-1279804D01*
X1060500Y-1276400D01*
X1058976Y-1274673D01*
X1057198Y-1273200D01*
X1054455Y-1271727D01*
X1052271Y-1271016D01*
X1050747Y-1270762D01*
G37*
G36*
X1897176Y-1320698D02*
G01*
X1894890Y-1320901D01*
X1891944Y-1321714D01*
X1890522Y-1322374D01*
X1887423Y-1324660D01*
X1885899Y-1326438D01*
X1884375Y-1329080D01*
X1883816Y-1330502D01*
X1883308Y-1332788D01*
X1883308Y-1336649D01*
X1884070Y-1339596D01*
X1885899Y-1342999D01*
X1887423Y-1344726D01*
X1889201Y-1346200D01*
X1891944Y-1347673D01*
X1894128Y-1348384D01*
X1895652Y-1348638D01*
X1949957Y-1348689D01*
X1953006Y-1348181D01*
X1956511Y-1346657D01*
X1958390Y-1345285D01*
X1960016Y-1343609D01*
X1961337Y-1341729D01*
X1962759Y-1338122D01*
X1963216Y-1335074D01*
X1963166Y-1333550D01*
X1962556Y-1330502D01*
X1961692Y-1328369D01*
X1959508Y-1325219D01*
X1957171Y-1323187D01*
X1955190Y-1322019D01*
X1951482Y-1320901D01*
X1949196Y-1320698D01*
G37*
G36*
X997203Y-1320698D02*
G01*
X994918Y-1320901D01*
X991209Y-1322019D01*
X988009Y-1324152D01*
X986891Y-1325219D01*
X984707Y-1328369D01*
X983843Y-1330502D01*
X983234Y-1333550D01*
X983335Y-1336649D01*
X984097Y-1339596D01*
X985062Y-1341729D01*
X986383Y-1343609D01*
X988009Y-1345285D01*
X989888Y-1346657D01*
X993394Y-1348181D01*
X996442Y-1348689D01*
X1050747Y-1348638D01*
X1052271Y-1348384D01*
X1055878Y-1347012D01*
X1057198Y-1346200D01*
X1058976Y-1344726D01*
X1060500Y-1342999D01*
X1062329Y-1339596D01*
X1063091Y-1336649D01*
X1063091Y-1332788D01*
X1062583Y-1330502D01*
X1061313Y-1327708D01*
X1060500Y-1326438D01*
X1058976Y-1324660D01*
X1055878Y-1322374D01*
X1053033Y-1321257D01*
X1051509Y-1320901D01*
X1049223Y-1320698D01*
G37*
G36*
X1897176Y-1370685D02*
G01*
X1894890Y-1370888D01*
X1891944Y-1371701D01*
X1890522Y-1372362D01*
X1887423Y-1374648D01*
X1885899Y-1376426D01*
X1884375Y-1379067D01*
X1883816Y-1380540D01*
X1883308Y-1382776D01*
X1883308Y-1386636D01*
X1884070Y-1389583D01*
X1885899Y-1392986D01*
X1887423Y-1394714D01*
X1889201Y-1396187D01*
X1891944Y-1397660D01*
X1894128Y-1398371D01*
X1895652Y-1398625D01*
X1949957Y-1398676D01*
X1953006Y-1398168D01*
X1956511Y-1396644D01*
X1958390Y-1395272D01*
X1960016Y-1393596D01*
X1961337Y-1391716D01*
X1962759Y-1388110D01*
X1963166Y-1385874D01*
X1963216Y-1384300D01*
X1962962Y-1382014D01*
X1961692Y-1378356D01*
X1959508Y-1375206D01*
X1957171Y-1373174D01*
X1955190Y-1372006D01*
X1951482Y-1370888D01*
X1949196Y-1370685D01*
G37*
G36*
X997203Y-1370685D02*
G01*
X994918Y-1370888D01*
X991209Y-1372006D01*
X988009Y-1374140D01*
X986891Y-1375206D01*
X984707Y-1378356D01*
X983437Y-1382014D01*
X983183Y-1384300D01*
X983234Y-1385874D01*
X984097Y-1389583D01*
X985062Y-1391716D01*
X986383Y-1393596D01*
X988009Y-1395272D01*
X989888Y-1396644D01*
X993394Y-1398168D01*
X996442Y-1398676D01*
X1050747Y-1398625D01*
X1052271Y-1398371D01*
X1055878Y-1397000D01*
X1057198Y-1396187D01*
X1058976Y-1394714D01*
X1060500Y-1392986D01*
X1062329Y-1389583D01*
X1063091Y-1386636D01*
X1063091Y-1382776D01*
X1062583Y-1380540D01*
X1061313Y-1377696D01*
X1060500Y-1376426D01*
X1058976Y-1374648D01*
X1055878Y-1372362D01*
X1053033Y-1371244D01*
X1051509Y-1370888D01*
X1049223Y-1370685D01*
G37*
G36*
X1896414Y-1420723D02*
G01*
X1893366Y-1421231D01*
X1889861Y-1422755D01*
X1887982Y-1424127D01*
X1885492Y-1427022D01*
X1883816Y-1430528D01*
X1883257Y-1433525D01*
X1883206Y-1435100D01*
X1883613Y-1438148D01*
X1884730Y-1441043D01*
X1886915Y-1444193D01*
X1889201Y-1446225D01*
X1891233Y-1447393D01*
X1894128Y-1448358D01*
X1895652Y-1448612D01*
X1949196Y-1448714D01*
X1951482Y-1448511D01*
X1955190Y-1447393D01*
X1958390Y-1445260D01*
X1959508Y-1444193D01*
X1961692Y-1441043D01*
X1962962Y-1437386D01*
X1963216Y-1435100D01*
X1963166Y-1433525D01*
X1962302Y-1429816D01*
X1961337Y-1427683D01*
X1960016Y-1425803D01*
X1958390Y-1424127D01*
X1956511Y-1422755D01*
X1953006Y-1421231D01*
X1949957Y-1420723D01*
G37*
G36*
X996442Y-1420723D02*
G01*
X993394Y-1421231D01*
X989888Y-1422755D01*
X988009Y-1424127D01*
X986383Y-1425803D01*
X985062Y-1427683D01*
X983640Y-1431290D01*
X983234Y-1433525D01*
X983183Y-1435100D01*
X983437Y-1437386D01*
X984707Y-1441043D01*
X986891Y-1444193D01*
X989228Y-1446225D01*
X991209Y-1447393D01*
X994918Y-1448511D01*
X997203Y-1448714D01*
X1050747Y-1448612D01*
X1053744Y-1447952D01*
X1055166Y-1447393D01*
X1057198Y-1446225D01*
X1059484Y-1444193D01*
X1061669Y-1441043D01*
X1062786Y-1438148D01*
X1063193Y-1435100D01*
X1062939Y-1432001D01*
X1062024Y-1429105D01*
X1060907Y-1427022D01*
X1058418Y-1424127D01*
X1056538Y-1422755D01*
X1053033Y-1421231D01*
X1049985Y-1420723D01*
G37*
G36*
X1896414Y-1470710D02*
G01*
X1893366Y-1471218D01*
X1889861Y-1472742D01*
X1887982Y-1474114D01*
X1885492Y-1477010D01*
X1883816Y-1480515D01*
X1883257Y-1483563D01*
X1883206Y-1485087D01*
X1883613Y-1488135D01*
X1884730Y-1491030D01*
X1886915Y-1494180D01*
X1889201Y-1496212D01*
X1891233Y-1497380D01*
X1894128Y-1498346D01*
X1895652Y-1498600D01*
X1949196Y-1498701D01*
X1951482Y-1498498D01*
X1955190Y-1497380D01*
X1958390Y-1495247D01*
X1959508Y-1494180D01*
X1961692Y-1491030D01*
X1962556Y-1488897D01*
X1963166Y-1485849D01*
X1963064Y-1482750D01*
X1962302Y-1479804D01*
X1961337Y-1477670D01*
X1960016Y-1475790D01*
X1958390Y-1474114D01*
X1956511Y-1472742D01*
X1953006Y-1471218D01*
X1949957Y-1470710D01*
G37*
G36*
X996442Y-1470710D02*
G01*
X993394Y-1471218D01*
X989888Y-1472742D01*
X988009Y-1474114D01*
X986383Y-1475790D01*
X985062Y-1477670D01*
X983640Y-1481277D01*
X983183Y-1484325D01*
X983234Y-1485849D01*
X983843Y-1488897D01*
X984707Y-1491030D01*
X986891Y-1494180D01*
X989228Y-1496212D01*
X991209Y-1497380D01*
X994918Y-1498498D01*
X997203Y-1498701D01*
X1050747Y-1498600D01*
X1053744Y-1497939D01*
X1055166Y-1497380D01*
X1057198Y-1496212D01*
X1059484Y-1494180D01*
X1061669Y-1491030D01*
X1062786Y-1488135D01*
X1063193Y-1485087D01*
X1062939Y-1481988D01*
X1062024Y-1479092D01*
X1060907Y-1477010D01*
X1058418Y-1474114D01*
X1056538Y-1472742D01*
X1053033Y-1471218D01*
X1049985Y-1470710D01*
G37*
G36*
X1897176Y-1520698D02*
G01*
X1894890Y-1520901D01*
X1891944Y-1521714D01*
X1890522Y-1522374D01*
X1887423Y-1524660D01*
X1885899Y-1526438D01*
X1884375Y-1529080D01*
X1883816Y-1530553D01*
X1883308Y-1532788D01*
X1883308Y-1536649D01*
X1884070Y-1539595D01*
X1885899Y-1542999D01*
X1887423Y-1544726D01*
X1889201Y-1546199D01*
X1891944Y-1547672D01*
X1894128Y-1548384D01*
X1895652Y-1548638D01*
X1949957Y-1548688D01*
X1953006Y-1548180D01*
X1956511Y-1546656D01*
X1958390Y-1545285D01*
X1960016Y-1543608D01*
X1961692Y-1541018D01*
X1962962Y-1537411D01*
X1963216Y-1535074D01*
X1963166Y-1533550D01*
X1962302Y-1529791D01*
X1961337Y-1527708D01*
X1958949Y-1524660D01*
X1955850Y-1522374D01*
X1954479Y-1521714D01*
X1950720Y-1520799D01*
G37*
G36*
X997203Y-1520698D02*
G01*
X994918Y-1520901D01*
X991209Y-1522018D01*
X988009Y-1524152D01*
X986891Y-1525219D01*
X984707Y-1528368D01*
X983437Y-1532026D01*
X983183Y-1534312D01*
X983234Y-1535887D01*
X984097Y-1539595D01*
X985062Y-1541729D01*
X986891Y-1544167D01*
X989228Y-1546199D01*
X991209Y-1547368D01*
X994156Y-1548384D01*
X995680Y-1548638D01*
X1049985Y-1548688D01*
X1053033Y-1548180D01*
X1056538Y-1546656D01*
X1058418Y-1545285D01*
X1060907Y-1542338D01*
X1062583Y-1538884D01*
X1063142Y-1535887D01*
X1063193Y-1534312D01*
X1062786Y-1531264D01*
X1061669Y-1528368D01*
X1059484Y-1525219D01*
X1057198Y-1523187D01*
X1055166Y-1522018D01*
X1052271Y-1521053D01*
X1050747Y-1520799D01*
G37*
G36*
X1897176Y-1570685D02*
G01*
X1894890Y-1570888D01*
X1891944Y-1571701D01*
X1890522Y-1572361D01*
X1887423Y-1574647D01*
X1885899Y-1576425D01*
X1884375Y-1579067D01*
X1883816Y-1580489D01*
X1883308Y-1582775D01*
X1883308Y-1586636D01*
X1884070Y-1589582D01*
X1885899Y-1592986D01*
X1887423Y-1594713D01*
X1889201Y-1596186D01*
X1891944Y-1597660D01*
X1894128Y-1598371D01*
X1895652Y-1598625D01*
X1949957Y-1598676D01*
X1953006Y-1598168D01*
X1956511Y-1596644D01*
X1958390Y-1595272D01*
X1960016Y-1593596D01*
X1961692Y-1591005D01*
X1962962Y-1587398D01*
X1963216Y-1584299D01*
X1962962Y-1582013D01*
X1962302Y-1579778D01*
X1961337Y-1577695D01*
X1958949Y-1574647D01*
X1955850Y-1572361D01*
X1954479Y-1571701D01*
X1950720Y-1570786D01*
G37*
G36*
X997203Y-1570685D02*
G01*
X994918Y-1570888D01*
X992632Y-1571447D01*
X989228Y-1573174D01*
X986891Y-1575206D01*
X984707Y-1578356D01*
X983843Y-1580489D01*
X983234Y-1583537D01*
X983335Y-1586636D01*
X984097Y-1589582D01*
X985062Y-1591716D01*
X986891Y-1594154D01*
X989228Y-1596186D01*
X991209Y-1597355D01*
X994156Y-1598371D01*
X995680Y-1598625D01*
X1049985Y-1598676D01*
X1053033Y-1598168D01*
X1056538Y-1596644D01*
X1058418Y-1595272D01*
X1060907Y-1592326D01*
X1062583Y-1588871D01*
X1063142Y-1585823D01*
X1063193Y-1584299D01*
X1062786Y-1581251D01*
X1061669Y-1578356D01*
X1059484Y-1575206D01*
X1057198Y-1573174D01*
X1053744Y-1571447D01*
X1050747Y-1570786D01*
G37*
G36*
X1896414Y-1620723D02*
G01*
X1893366Y-1621231D01*
X1889861Y-1622755D01*
X1887982Y-1624126D01*
X1885492Y-1627022D01*
X1883816Y-1630527D01*
X1883257Y-1633575D01*
X1883206Y-1635099D01*
X1883613Y-1638147D01*
X1884730Y-1641043D01*
X1886915Y-1644192D01*
X1889201Y-1646224D01*
X1892655Y-1647952D01*
X1895652Y-1648612D01*
X1949196Y-1648714D01*
X1951482Y-1648510D01*
X1953768Y-1647952D01*
X1957171Y-1646224D01*
X1959508Y-1644192D01*
X1961692Y-1641043D01*
X1962556Y-1638909D01*
X1963166Y-1635861D01*
X1963064Y-1632762D01*
X1962302Y-1629816D01*
X1961337Y-1627682D01*
X1960016Y-1625803D01*
X1958390Y-1624126D01*
X1956511Y-1622755D01*
X1953006Y-1621231D01*
X1949957Y-1620723D01*
G37*
G36*
X996442Y-1623771D02*
G01*
X993394Y-1624279D01*
X989888Y-1625803D01*
X988009Y-1627174D01*
X986383Y-1628851D01*
X984707Y-1631442D01*
X983437Y-1635048D01*
X983183Y-1637385D01*
X983234Y-1638909D01*
X983843Y-1641957D01*
X984707Y-1644091D01*
X986891Y-1647240D01*
X989228Y-1649272D01*
X992632Y-1651000D01*
X994918Y-1651558D01*
X997203Y-1651762D01*
X1050747Y-1651660D01*
X1053744Y-1651000D01*
X1057198Y-1649272D01*
X1059484Y-1647240D01*
X1061669Y-1644091D01*
X1062786Y-1641195D01*
X1063193Y-1638147D01*
X1062939Y-1635048D01*
X1062024Y-1632153D01*
X1059992Y-1628851D01*
X1058418Y-1627174D01*
X1056538Y-1625803D01*
X1053033Y-1624279D01*
X1049985Y-1623771D01*
G37*
G36*
X1896414Y-1670710D02*
G01*
X1893366Y-1671218D01*
X1889861Y-1672742D01*
X1887982Y-1674114D01*
X1885492Y-1677060D01*
X1883816Y-1680514D01*
X1883257Y-1683512D01*
X1883206Y-1685086D01*
X1883613Y-1688134D01*
X1884730Y-1691030D01*
X1886915Y-1694180D01*
X1889201Y-1696212D01*
X1892655Y-1697939D01*
X1895652Y-1698599D01*
X1949196Y-1698701D01*
X1951482Y-1698498D01*
X1953768Y-1697939D01*
X1957171Y-1696212D01*
X1959508Y-1694180D01*
X1961692Y-1691030D01*
X1962962Y-1687372D01*
X1963216Y-1685086D01*
X1963166Y-1683512D01*
X1962302Y-1679803D01*
X1961337Y-1677670D01*
X1959508Y-1675231D01*
X1957171Y-1673199D01*
X1955190Y-1672031D01*
X1952243Y-1671015D01*
X1950720Y-1670761D01*
G37*
G36*
X997203Y-1673758D02*
G01*
X994918Y-1673961D01*
X992632Y-1674520D01*
X989228Y-1676247D01*
X986891Y-1678279D01*
X984707Y-1681429D01*
X983843Y-1683562D01*
X983234Y-1686610D01*
X983335Y-1689709D01*
X984097Y-1692656D01*
X985062Y-1694789D01*
X986891Y-1697228D01*
X989228Y-1699260D01*
X991209Y-1700428D01*
X994156Y-1701444D01*
X995680Y-1701698D01*
X1049985Y-1701749D01*
X1053033Y-1701241D01*
X1056538Y-1699717D01*
X1058418Y-1698345D01*
X1060907Y-1695399D01*
X1062583Y-1691944D01*
X1063142Y-1688896D01*
X1063193Y-1687372D01*
X1062786Y-1684324D01*
X1061669Y-1681429D01*
X1059484Y-1678279D01*
X1057198Y-1676247D01*
X1053744Y-1674520D01*
X1050747Y-1673860D01*
G37*
G36*
X1897176Y-1720697D02*
G01*
X1894890Y-1720900D01*
X1891944Y-1721713D01*
X1890522Y-1722374D01*
X1887423Y-1724660D01*
X1885899Y-1726438D01*
X1884375Y-1729079D01*
X1883816Y-1730502D01*
X1883308Y-1732788D01*
X1883308Y-1736648D01*
X1884070Y-1739595D01*
X1885899Y-1742998D01*
X1887423Y-1744725D01*
X1889201Y-1746199D01*
X1891944Y-1747672D01*
X1894128Y-1748383D01*
X1895652Y-1748637D01*
X1949957Y-1748688D01*
X1953006Y-1748180D01*
X1956511Y-1746656D01*
X1958390Y-1745284D01*
X1960016Y-1743608D01*
X1961337Y-1741728D01*
X1962759Y-1738122D01*
X1963216Y-1735074D01*
X1963166Y-1733550D01*
X1962556Y-1730502D01*
X1961692Y-1728368D01*
X1959508Y-1725218D01*
X1957171Y-1723186D01*
X1953768Y-1721459D01*
X1951482Y-1720900D01*
X1949196Y-1720697D01*
G37*
G36*
X997203Y-1720697D02*
G01*
X994918Y-1720900D01*
X992632Y-1721459D01*
X989228Y-1723186D01*
X986891Y-1725218D01*
X984707Y-1728368D01*
X983843Y-1730502D01*
X983234Y-1733550D01*
X983335Y-1736648D01*
X984097Y-1739595D01*
X985062Y-1741728D01*
X986383Y-1743608D01*
X988009Y-1745284D01*
X989888Y-1746656D01*
X993394Y-1748180D01*
X996442Y-1748688D01*
X1050747Y-1748637D01*
X1052271Y-1748383D01*
X1055878Y-1747012D01*
X1057198Y-1746199D01*
X1058976Y-1744725D01*
X1060500Y-1742998D01*
X1062329Y-1739595D01*
X1063091Y-1736648D01*
X1063091Y-1732788D01*
X1062583Y-1730502D01*
X1061313Y-1727707D01*
X1060500Y-1726438D01*
X1058976Y-1724660D01*
X1055878Y-1722374D01*
X1053033Y-1721256D01*
X1051509Y-1720900D01*
X1049223Y-1720697D01*
G37*
G36*
X1897176Y-1770684D02*
G01*
X1894890Y-1770888D01*
X1891944Y-1771700D01*
X1890522Y-1772361D01*
X1887423Y-1774647D01*
X1885899Y-1776425D01*
X1884375Y-1779066D01*
X1883816Y-1780539D01*
X1883308Y-1782775D01*
X1883308Y-1786636D01*
X1884070Y-1789582D01*
X1885899Y-1792986D01*
X1887423Y-1794713D01*
X1889201Y-1796186D01*
X1891944Y-1797659D01*
X1894128Y-1798370D01*
X1895652Y-1798624D01*
X1949957Y-1798675D01*
X1953006Y-1798167D01*
X1956511Y-1796643D01*
X1958390Y-1795272D01*
X1960016Y-1793595D01*
X1961337Y-1791716D01*
X1962759Y-1788109D01*
X1963166Y-1785874D01*
X1963216Y-1784299D01*
X1962962Y-1782013D01*
X1961692Y-1778355D01*
X1959508Y-1775206D01*
X1957171Y-1773174D01*
X1955190Y-1772005D01*
X1951482Y-1770888D01*
X1949196Y-1770684D01*
G37*
G36*
X997203Y-1770684D02*
G01*
X994918Y-1770888D01*
X991209Y-1772005D01*
X988009Y-1774139D01*
X986891Y-1775206D01*
X984707Y-1778355D01*
X983437Y-1782013D01*
X983183Y-1784299D01*
X983234Y-1785874D01*
X984097Y-1789582D01*
X985062Y-1791716D01*
X986383Y-1793595D01*
X988009Y-1795272D01*
X989888Y-1796643D01*
X993394Y-1798167D01*
X996442Y-1798675D01*
X1050747Y-1798624D01*
X1052271Y-1798370D01*
X1055878Y-1796999D01*
X1057198Y-1796186D01*
X1058976Y-1794713D01*
X1060500Y-1792986D01*
X1062329Y-1789582D01*
X1063091Y-1786636D01*
X1063091Y-1782775D01*
X1062583Y-1780539D01*
X1061313Y-1777695D01*
X1060500Y-1776425D01*
X1058976Y-1774647D01*
X1055878Y-1772361D01*
X1053033Y-1771243D01*
X1051509Y-1770888D01*
X1049223Y-1770684D01*
G37*
G36*
X1847850Y-1819706D02*
G01*
X1844802Y-1820113D01*
X1843328Y-1820570D01*
X1839925Y-1822399D01*
X1838198Y-1823923D01*
X1836724Y-1825701D01*
X1835251Y-1828444D01*
X1834540Y-1830628D01*
X1834286Y-1832152D01*
X1834235Y-1886457D01*
X1834743Y-1889506D01*
X1836267Y-1893011D01*
X1837639Y-1894890D01*
X1839315Y-1896516D01*
X1841906Y-1898192D01*
X1845513Y-1899462D01*
X1848612Y-1899716D01*
X1850898Y-1899462D01*
X1853133Y-1898802D01*
X1855216Y-1897837D01*
X1858264Y-1895449D01*
X1860550Y-1892350D01*
X1861210Y-1890979D01*
X1862124Y-1887220D01*
X1862226Y-1833676D01*
X1862023Y-1831390D01*
X1861210Y-1828444D01*
X1860550Y-1827022D01*
X1858264Y-1823923D01*
X1856486Y-1822399D01*
X1853844Y-1820875D01*
X1852422Y-1820316D01*
X1850136Y-1819808D01*
G37*
G36*
X1447850Y-1819706D02*
G01*
X1444802Y-1820113D01*
X1443329Y-1820570D01*
X1439926Y-1822399D01*
X1438198Y-1823923D01*
X1436725Y-1825701D01*
X1435252Y-1828444D01*
X1434541Y-1830628D01*
X1434287Y-1832152D01*
X1434236Y-1886457D01*
X1434744Y-1889506D01*
X1436268Y-1893011D01*
X1437640Y-1894890D01*
X1439316Y-1896516D01*
X1441907Y-1898192D01*
X1445514Y-1899462D01*
X1448612Y-1899716D01*
X1450898Y-1899462D01*
X1453134Y-1898802D01*
X1455216Y-1897837D01*
X1458264Y-1895449D01*
X1460550Y-1892350D01*
X1461211Y-1890979D01*
X1462125Y-1887220D01*
X1462227Y-1833676D01*
X1462024Y-1831390D01*
X1461211Y-1828444D01*
X1460550Y-1827022D01*
X1458264Y-1823923D01*
X1456486Y-1822399D01*
X1453845Y-1820875D01*
X1452422Y-1820316D01*
X1450136Y-1819808D01*
G37*
G36*
X1647850Y-1819706D02*
G01*
X1644802Y-1820113D01*
X1643329Y-1820570D01*
X1639925Y-1822399D01*
X1638198Y-1823923D01*
X1636725Y-1825701D01*
X1635251Y-1828444D01*
X1634540Y-1830628D01*
X1634286Y-1832152D01*
X1634236Y-1886457D01*
X1634744Y-1889506D01*
X1636268Y-1893011D01*
X1637639Y-1894890D01*
X1639316Y-1896516D01*
X1641195Y-1897837D01*
X1644802Y-1899259D01*
X1647037Y-1899666D01*
X1648612Y-1899716D01*
X1650898Y-1899462D01*
X1654556Y-1898192D01*
X1657705Y-1896008D01*
X1659737Y-1893671D01*
X1660906Y-1891690D01*
X1662023Y-1887982D01*
X1662226Y-1885696D01*
X1662125Y-1832152D01*
X1661464Y-1829155D01*
X1660906Y-1827733D01*
X1659737Y-1825701D01*
X1657705Y-1823415D01*
X1654556Y-1821230D01*
X1651660Y-1820113D01*
G37*
G36*
X1247851Y-1819706D02*
G01*
X1244803Y-1820113D01*
X1243330Y-1820570D01*
X1239926Y-1822399D01*
X1238199Y-1823923D01*
X1236726Y-1825701D01*
X1235252Y-1828444D01*
X1234541Y-1830628D01*
X1234287Y-1832152D01*
X1234236Y-1886457D01*
X1234744Y-1889506D01*
X1236268Y-1893011D01*
X1237640Y-1894890D01*
X1239316Y-1896516D01*
X1241196Y-1897837D01*
X1244803Y-1899259D01*
X1247851Y-1899716D01*
X1249375Y-1899666D01*
X1253134Y-1898802D01*
X1255217Y-1897837D01*
X1258265Y-1895449D01*
X1260551Y-1892350D01*
X1261211Y-1890979D01*
X1262126Y-1887220D01*
X1262227Y-1833676D01*
X1262024Y-1831390D01*
X1261211Y-1828444D01*
X1260551Y-1827022D01*
X1258265Y-1823923D01*
X1256487Y-1822399D01*
X1253845Y-1820875D01*
X1252372Y-1820316D01*
X1250137Y-1819808D01*
G37*
G36*
X1747824Y-1819706D02*
G01*
X1744776Y-1820113D01*
X1741881Y-1821230D01*
X1738731Y-1823415D01*
X1736699Y-1825701D01*
X1734972Y-1829155D01*
X1734312Y-1832152D01*
X1734210Y-1885696D01*
X1734413Y-1887982D01*
X1734972Y-1890268D01*
X1736699Y-1893671D01*
X1738731Y-1896008D01*
X1741881Y-1898192D01*
X1745538Y-1899462D01*
X1747824Y-1899716D01*
X1749399Y-1899666D01*
X1753107Y-1898802D01*
X1755241Y-1897837D01*
X1757680Y-1896008D01*
X1759712Y-1893671D01*
X1760880Y-1891690D01*
X1761896Y-1888743D01*
X1762150Y-1887220D01*
X1762201Y-1832914D01*
X1761693Y-1829866D01*
X1760169Y-1826361D01*
X1758797Y-1824482D01*
X1755851Y-1821992D01*
X1752396Y-1820316D01*
X1749399Y-1819757D01*
G37*
G36*
X1347825Y-1819706D02*
G01*
X1344777Y-1820113D01*
X1341882Y-1821230D01*
X1338732Y-1823415D01*
X1336700Y-1825701D01*
X1334973Y-1829155D01*
X1334312Y-1832152D01*
X1334211Y-1885696D01*
X1334414Y-1887982D01*
X1334973Y-1890268D01*
X1336700Y-1893671D01*
X1338732Y-1896008D01*
X1341882Y-1898192D01*
X1344015Y-1899056D01*
X1347063Y-1899666D01*
X1348587Y-1899716D01*
X1350924Y-1899462D01*
X1354531Y-1898192D01*
X1357122Y-1896516D01*
X1358798Y-1894890D01*
X1360170Y-1893011D01*
X1361694Y-1889506D01*
X1362202Y-1886457D01*
X1362151Y-1832152D01*
X1361897Y-1830628D01*
X1360525Y-1827022D01*
X1359712Y-1825701D01*
X1358239Y-1823923D01*
X1356512Y-1822399D01*
X1353108Y-1820570D01*
X1350162Y-1819808D01*
G37*
G36*
X1547825Y-1819706D02*
G01*
X1544777Y-1820113D01*
X1541881Y-1821230D01*
X1538732Y-1823415D01*
X1536700Y-1825701D01*
X1535531Y-1827733D01*
X1534566Y-1830628D01*
X1534312Y-1832152D01*
X1534210Y-1885696D01*
X1534414Y-1887982D01*
X1535531Y-1891690D01*
X1537665Y-1894890D01*
X1538732Y-1896008D01*
X1541881Y-1898192D01*
X1545539Y-1899462D01*
X1547825Y-1899716D01*
X1550924Y-1899462D01*
X1554530Y-1898192D01*
X1555902Y-1897430D01*
X1557680Y-1896008D01*
X1559712Y-1893671D01*
X1560880Y-1891690D01*
X1561896Y-1888743D01*
X1562150Y-1887220D01*
X1562201Y-1832914D01*
X1561693Y-1829866D01*
X1560169Y-1826361D01*
X1558798Y-1824482D01*
X1555902Y-1821992D01*
X1552397Y-1820316D01*
X1549349Y-1819757D01*
G37*
G36*
X1147826Y-1819706D02*
G01*
X1144778Y-1820113D01*
X1141882Y-1821230D01*
X1138732Y-1823415D01*
X1136700Y-1825701D01*
X1135532Y-1827733D01*
X1134567Y-1830628D01*
X1134313Y-1832152D01*
X1134211Y-1885696D01*
X1134414Y-1887982D01*
X1135532Y-1891690D01*
X1137666Y-1894890D01*
X1138732Y-1896008D01*
X1141882Y-1898192D01*
X1145540Y-1899462D01*
X1147826Y-1899716D01*
X1149400Y-1899666D01*
X1153109Y-1898802D01*
X1155242Y-1897837D01*
X1157122Y-1896516D01*
X1158798Y-1894890D01*
X1160170Y-1893011D01*
X1161694Y-1889506D01*
X1162202Y-1886457D01*
X1162151Y-1832152D01*
X1161897Y-1830628D01*
X1160526Y-1827022D01*
X1159713Y-1825701D01*
X1158240Y-1823923D01*
X1156512Y-1822399D01*
X1153109Y-1820570D01*
X1150162Y-1819808D01*
G37*
G36*
X1797812Y-1819706D02*
G01*
X1794764Y-1820113D01*
X1791868Y-1821230D01*
X1788718Y-1823415D01*
X1786686Y-1825701D01*
X1784959Y-1829155D01*
X1784299Y-1832152D01*
X1784197Y-1885696D01*
X1784400Y-1887982D01*
X1784959Y-1890268D01*
X1786686Y-1893671D01*
X1788718Y-1896008D01*
X1791868Y-1898192D01*
X1794002Y-1899056D01*
X1797050Y-1899666D01*
X1800148Y-1899564D01*
X1803095Y-1898802D01*
X1805228Y-1897837D01*
X1807108Y-1896516D01*
X1808784Y-1894890D01*
X1810156Y-1893011D01*
X1811680Y-1889506D01*
X1812188Y-1886457D01*
X1812137Y-1832152D01*
X1811883Y-1830628D01*
X1810512Y-1827022D01*
X1809699Y-1825701D01*
X1808225Y-1823923D01*
X1806498Y-1822399D01*
X1803095Y-1820570D01*
X1800148Y-1819808D01*
G37*
G36*
X1397812Y-1819706D02*
G01*
X1394764Y-1820113D01*
X1391869Y-1821230D01*
X1388719Y-1823415D01*
X1386687Y-1825701D01*
X1385519Y-1827733D01*
X1384554Y-1830628D01*
X1384300Y-1832152D01*
X1384198Y-1885696D01*
X1384401Y-1887982D01*
X1385519Y-1891690D01*
X1387652Y-1894890D01*
X1388719Y-1896008D01*
X1391869Y-1898192D01*
X1394002Y-1899056D01*
X1397050Y-1899666D01*
X1400149Y-1899564D01*
X1403096Y-1898802D01*
X1405229Y-1897837D01*
X1407109Y-1896516D01*
X1408785Y-1894890D01*
X1410157Y-1893011D01*
X1411681Y-1889506D01*
X1412189Y-1886457D01*
X1412138Y-1832152D01*
X1411884Y-1830628D01*
X1410512Y-1827022D01*
X1409700Y-1825701D01*
X1408226Y-1823923D01*
X1406499Y-1822399D01*
X1403096Y-1820570D01*
X1400149Y-1819808D01*
G37*
G36*
X1597812Y-1819706D02*
G01*
X1594764Y-1820113D01*
X1591868Y-1821230D01*
X1588719Y-1823415D01*
X1586687Y-1825701D01*
X1585518Y-1827733D01*
X1584553Y-1830628D01*
X1584299Y-1832152D01*
X1584198Y-1885696D01*
X1584401Y-1887982D01*
X1585518Y-1891690D01*
X1587652Y-1894890D01*
X1588719Y-1896008D01*
X1591868Y-1898192D01*
X1595526Y-1899462D01*
X1597812Y-1899716D01*
X1599387Y-1899666D01*
X1603095Y-1898802D01*
X1605229Y-1897837D01*
X1607667Y-1896008D01*
X1609699Y-1893671D01*
X1610868Y-1891690D01*
X1611884Y-1888743D01*
X1612138Y-1887220D01*
X1612188Y-1832914D01*
X1611680Y-1829866D01*
X1610156Y-1826361D01*
X1608785Y-1824482D01*
X1605838Y-1821992D01*
X1602384Y-1820316D01*
X1599387Y-1819757D01*
G37*
G36*
X1197813Y-1819706D02*
G01*
X1194765Y-1820113D01*
X1191869Y-1821230D01*
X1188720Y-1823415D01*
X1186688Y-1825701D01*
X1184960Y-1829155D01*
X1184300Y-1832152D01*
X1184198Y-1885696D01*
X1184402Y-1887982D01*
X1184960Y-1890268D01*
X1186688Y-1893671D01*
X1188720Y-1896008D01*
X1191869Y-1898192D01*
X1195527Y-1899462D01*
X1197813Y-1899716D01*
X1199388Y-1899666D01*
X1203096Y-1898802D01*
X1205230Y-1897837D01*
X1207668Y-1896008D01*
X1209700Y-1893671D01*
X1210868Y-1891690D01*
X1211884Y-1888743D01*
X1212138Y-1887220D01*
X1212189Y-1832914D01*
X1211681Y-1829866D01*
X1210157Y-1826361D01*
X1208786Y-1824482D01*
X1205839Y-1821992D01*
X1202385Y-1820316D01*
X1199388Y-1819757D01*
G37*
G36*
X1697837Y-1819706D02*
G01*
X1694789Y-1820113D01*
X1693316Y-1820570D01*
X1689912Y-1822399D01*
X1688185Y-1823923D01*
X1686712Y-1825701D01*
X1685239Y-1828444D01*
X1684528Y-1830628D01*
X1684274Y-1832152D01*
X1684223Y-1886457D01*
X1684731Y-1889506D01*
X1686255Y-1893011D01*
X1687626Y-1894890D01*
X1689303Y-1896516D01*
X1691182Y-1897837D01*
X1694789Y-1899259D01*
X1697837Y-1899716D01*
X1699361Y-1899666D01*
X1702409Y-1899056D01*
X1704543Y-1898192D01*
X1707692Y-1896008D01*
X1709724Y-1893671D01*
X1711452Y-1890268D01*
X1712010Y-1887982D01*
X1712214Y-1885696D01*
X1712112Y-1832152D01*
X1711452Y-1829155D01*
X1709724Y-1825701D01*
X1707692Y-1823415D01*
X1704543Y-1821230D01*
X1701647Y-1820113D01*
G37*
G36*
X1297838Y-1819706D02*
G01*
X1294790Y-1820113D01*
X1293317Y-1820570D01*
X1289913Y-1822399D01*
X1288186Y-1823923D01*
X1286713Y-1825701D01*
X1285240Y-1828444D01*
X1284528Y-1830628D01*
X1284274Y-1832152D01*
X1284224Y-1886457D01*
X1284732Y-1889506D01*
X1286256Y-1893011D01*
X1287627Y-1894890D01*
X1289304Y-1896516D01*
X1291894Y-1898192D01*
X1295501Y-1899462D01*
X1298600Y-1899716D01*
X1300886Y-1899462D01*
X1303121Y-1898802D01*
X1305204Y-1897837D01*
X1308252Y-1895449D01*
X1310538Y-1892350D01*
X1311198Y-1890979D01*
X1312113Y-1887220D01*
X1312214Y-1833676D01*
X1312011Y-1831390D01*
X1311198Y-1828444D01*
X1310538Y-1827022D01*
X1308252Y-1823923D01*
X1306474Y-1822399D01*
X1303832Y-1820875D01*
X1302410Y-1820316D01*
X1300124Y-1819808D01*
G37*
G36*
X1497838Y-1819706D02*
G01*
X1494790Y-1820113D01*
X1493316Y-1820570D01*
X1489913Y-1822399D01*
X1488186Y-1823923D01*
X1486712Y-1825701D01*
X1485239Y-1828444D01*
X1484528Y-1830628D01*
X1484274Y-1832152D01*
X1484223Y-1886457D01*
X1484731Y-1889506D01*
X1486255Y-1893011D01*
X1487627Y-1894890D01*
X1489303Y-1896516D01*
X1491183Y-1897837D01*
X1494790Y-1899259D01*
X1497025Y-1899666D01*
X1498600Y-1899716D01*
X1500886Y-1899462D01*
X1504543Y-1898192D01*
X1507693Y-1896008D01*
X1509725Y-1893671D01*
X1510893Y-1891690D01*
X1512011Y-1887982D01*
X1512214Y-1885696D01*
X1512112Y-1832152D01*
X1511452Y-1829155D01*
X1510893Y-1827733D01*
X1509725Y-1825701D01*
X1507693Y-1823415D01*
X1504543Y-1821230D01*
X1501648Y-1820113D01*
G37*
G36*
X1097838Y-1819706D02*
G01*
X1094790Y-1820113D01*
X1093317Y-1820570D01*
X1089914Y-1822399D01*
X1088186Y-1823923D01*
X1086713Y-1825701D01*
X1085240Y-1828444D01*
X1084529Y-1830628D01*
X1084275Y-1832152D01*
X1084224Y-1886457D01*
X1084732Y-1889506D01*
X1086256Y-1893011D01*
X1087628Y-1894890D01*
X1089304Y-1896516D01*
X1091184Y-1897837D01*
X1094790Y-1899259D01*
X1097026Y-1899666D01*
X1098600Y-1899716D01*
X1100886Y-1899462D01*
X1104544Y-1898192D01*
X1107694Y-1896008D01*
X1109726Y-1893671D01*
X1110894Y-1891690D01*
X1112012Y-1887982D01*
X1112215Y-1885696D01*
X1112113Y-1832152D01*
X1111453Y-1829155D01*
X1110894Y-1827733D01*
X1109726Y-1825701D01*
X1107694Y-1823415D01*
X1104544Y-1821230D01*
X1101648Y-1820113D01*
G37*
D10*
G01*
X2711297Y-2438400D03*
G01*
X2851302Y-2438400D03*
D11*
G01*
X3086100Y-2254402D03*
G01*
X3086100Y-2114397D03*
G01*
X3213100Y-997102D03*
G01*
X3213100Y-857097D03*
D10*
G01*
X2762097Y-1117600D03*
G01*
X2902102Y-1117600D03*
G01*
X2304897Y-1651000D03*
G01*
X2444902Y-1651000D03*
G01*
X2393797Y-1016000D03*
G01*
X2533802Y-1016000D03*
D12*
G01*
X3746500Y-2301239D03*
G01*
X3746500Y-2143760D03*
G01*
X2844800Y-1450339D03*
G01*
X2844800Y-1292860D03*
D13*
G01*
X3036366Y-958595D03*
G01*
X3036366Y-863600D03*
G01*
X3036366Y-768604D03*
D14*
G01*
X2805633Y-768604D03*
G01*
X2805633Y-958595D03*
D13*
G01*
X3557066Y-2330195D03*
G01*
X3557066Y-2235200D03*
G01*
X3557066Y-2140204D03*
D14*
G01*
X3326333Y-2140204D03*
G01*
X3326333Y-2330195D03*
D15*
G01*
X3620698Y-907492D03*
G01*
X3620698Y-997507D03*
G01*
X3770701Y-997507D03*
G01*
X3770701Y-907492D03*
D16*
G01*
X3762959Y-1790344D03*
G01*
X3603066Y-1791055D03*
G01*
X3762959Y-1472844D03*
G01*
X3603066Y-1473555D03*
D17*
G01*
X241300Y-431800D03*
G01*
X241300Y-685800D03*
G01*
X241300Y-939800D03*
G01*
X241300Y-1193800D03*
G01*
X241300Y-1447800D03*
G01*
X241300Y-1701800D03*
G01*
X241300Y-1955800D03*
G01*
X241300Y-2209800D03*
G01*
X241300Y-2463800D03*
G01*
X241300Y-2717800D03*
D18*
G01*
X3617899Y-678408D03*
G01*
X3517900Y-678408D03*
G01*
X3417900Y-678408D03*
D19*
G01*
X3792905Y-608406D03*
G01*
X3242894Y-608406D03*
G01*
X3792905Y-388391D03*
G01*
X3242894Y-388391D03*
D20*
G01*
X3035300Y-1840229D03*
G01*
X3162300Y-1840229D03*
G01*
X3289300Y-1840229D03*
G01*
X3416300Y-1840229D03*
G01*
X3416300Y-1258570D03*
G01*
X3289300Y-1258570D03*
G01*
X3162300Y-1258570D03*
G01*
X3035300Y-1258570D03*
D21*
G01*
X3225800Y-1549400D03*
D22*
G01*
X2409088Y-1430807D03*
D23*
G01*
X2409088Y-1210800D03*
G01*
X2239086Y-1210800D03*
G01*
X2239086Y-1430799D03*
D24*
G01*
X3408705Y-2831109D03*
G01*
X3408705Y-2706090D03*
D25*
G01*
X3728694Y-2521102D03*
G01*
X3728694Y-3016097D03*
D26*
G01*
X2664028Y-2292121D03*
G01*
X2664028Y-2102129D03*
G01*
X2924047Y-2102129D03*
G01*
X2924047Y-2197125D03*
G01*
X2924047Y-2292121D03*
D12*
G01*
X698500Y-1691639D03*
G01*
X698500Y-1534160D03*
D27*
G01*
X750158Y-1070874D03*
D28*
G01*
X646841Y-1189725D03*
D29*
G01*
X1727200Y-2044700D03*
G01*
X1803400Y-2044700D03*
G01*
X1879600Y-2044700D03*
G01*
X1955800Y-2044700D03*
G01*
X2197100Y-1041400D03*
M02*
