G04 Layer: TopPasteMaskLayer*
G04 EasyEDA v6.5.47, 2024-10-09 00:53:15*
G04 5ec392d24d9d47da98b20392d8b9c800,a18d025d90d848418757c69f2d6d6cc0,10*
G04 Gerber Generator version 0.2*
G04 Scale: 100 percent, Rotated: No, Reflected: No *
G04 Dimensions in millimeters *
G04 leading zeros omitted , absolute positions ,4 integer and 5 decimal *
%FSLAX45Y45*%
%MOMM*%

%AMMACRO1*21,1,$1,$2,0,0,$3*%
%ADD10R,0.8000X0.9000*%
%ADD11R,0.9000X0.8000*%
%ADD12R,1.0922X0.8128*%
%ADD13R,1.1570X0.4900*%
%ADD14R,1.1750X0.4900*%
%ADD15MACRO1,0.8X0.65X0.0000*%
%ADD16R,0.8000X0.8000*%
%ADD17O,3.9999919999999998X1.499997*%
%ADD18R,0.7000X1.5000*%
%ADD19R,1.0000X0.8000*%
%ADD20O,1.5699994X0.2800096*%
%ADD21O,0.2800096X1.5699994*%
%ADD22R,0.6000X1.2000*%
%ADD23R,3.3000X2.4000*%
%ADD24R,1.2000X1.4000*%
%ADD25MACRO1,1.2X1.4X0.0000*%
%ADD26R,1.7000X0.6000*%
%ADD27R,2.9000X1.3000*%
%ADD28R,1.1000X0.6000*%

%LPD*%
G36*
X3722522Y-1936191D02*
G01*
X3717493Y-1941220D01*
X3717493Y-1963978D01*
X3754475Y-1963978D01*
X3754475Y-1996998D01*
X3717493Y-1996998D01*
X3717493Y-2021179D01*
X3722522Y-2026208D01*
X3802481Y-2026208D01*
X3807510Y-2021179D01*
X3807510Y-1941220D01*
X3802481Y-1936191D01*
G37*
G36*
X3563518Y-1936191D02*
G01*
X3558489Y-1941220D01*
X3558489Y-2021179D01*
X3563518Y-2026208D01*
X3643477Y-2026208D01*
X3648506Y-2021179D01*
X3648506Y-1998421D01*
X3611524Y-1998421D01*
X3611524Y-1965401D01*
X3648506Y-1965401D01*
X3648506Y-1941220D01*
X3643477Y-1936191D01*
G37*
G36*
X3722522Y-1580591D02*
G01*
X3717493Y-1585620D01*
X3717493Y-1608378D01*
X3754475Y-1608378D01*
X3754475Y-1641398D01*
X3717493Y-1641398D01*
X3717493Y-1665579D01*
X3722522Y-1670608D01*
X3802481Y-1670608D01*
X3807510Y-1665579D01*
X3807510Y-1585620D01*
X3802481Y-1580591D01*
G37*
G36*
X3563518Y-1580591D02*
G01*
X3558489Y-1585620D01*
X3558489Y-1665579D01*
X3563518Y-1670608D01*
X3643477Y-1670608D01*
X3648506Y-1665579D01*
X3648506Y-1642821D01*
X3611524Y-1642821D01*
X3611524Y-1609801D01*
X3648506Y-1609801D01*
X3648506Y-1585620D01*
X3643477Y-1580591D01*
G37*
G36*
X3722522Y-1275791D02*
G01*
X3717493Y-1280820D01*
X3717493Y-1303578D01*
X3754475Y-1303578D01*
X3754475Y-1336598D01*
X3717493Y-1336598D01*
X3717493Y-1360779D01*
X3722522Y-1365808D01*
X3802481Y-1365808D01*
X3807510Y-1360779D01*
X3807510Y-1280820D01*
X3802481Y-1275791D01*
G37*
G36*
X3563518Y-1275791D02*
G01*
X3558489Y-1280820D01*
X3558489Y-1360779D01*
X3563518Y-1365808D01*
X3643477Y-1365808D01*
X3648506Y-1360779D01*
X3648506Y-1338021D01*
X3611524Y-1338021D01*
X3611524Y-1305001D01*
X3648506Y-1305001D01*
X3648506Y-1280820D01*
X3643477Y-1275791D01*
G37*
G36*
X1627022Y-2215591D02*
G01*
X1621993Y-2220620D01*
X1621993Y-2243378D01*
X1659026Y-2243378D01*
X1659026Y-2276398D01*
X1621993Y-2276398D01*
X1621993Y-2300579D01*
X1627022Y-2305608D01*
X1706981Y-2305608D01*
X1712010Y-2300579D01*
X1712010Y-2220620D01*
X1706981Y-2215591D01*
G37*
G36*
X1468018Y-2215591D02*
G01*
X1462989Y-2220620D01*
X1462989Y-2300579D01*
X1468018Y-2305608D01*
X1547977Y-2305608D01*
X1553006Y-2300579D01*
X1553006Y-2277821D01*
X1515973Y-2277821D01*
X1515973Y-2244801D01*
X1553006Y-2244801D01*
X1553006Y-2220620D01*
X1547977Y-2215591D01*
G37*
G36*
X1627022Y-2088591D02*
G01*
X1621993Y-2093620D01*
X1621993Y-2116378D01*
X1659026Y-2116378D01*
X1659026Y-2149398D01*
X1621993Y-2149398D01*
X1621993Y-2173579D01*
X1627022Y-2178608D01*
X1706981Y-2178608D01*
X1712010Y-2173579D01*
X1712010Y-2093620D01*
X1706981Y-2088591D01*
G37*
G36*
X1468018Y-2088591D02*
G01*
X1462989Y-2093620D01*
X1462989Y-2173579D01*
X1468018Y-2178608D01*
X1547977Y-2178608D01*
X1553006Y-2173579D01*
X1553006Y-2150821D01*
X1515973Y-2150821D01*
X1515973Y-2117801D01*
X1553006Y-2117801D01*
X1553006Y-2093620D01*
X1547977Y-2088591D01*
G37*
D10*
G01*
X2711297Y-2438400D03*
G01*
X2851302Y-2438400D03*
D11*
G01*
X3086100Y-2254402D03*
G01*
X3086100Y-2114397D03*
G01*
X3213100Y-997102D03*
G01*
X3213100Y-857097D03*
D10*
G01*
X2762097Y-1117600D03*
G01*
X2902102Y-1117600D03*
G01*
X655446Y-2448001D03*
G01*
X795451Y-2448001D03*
G01*
X653897Y-2197100D03*
G01*
X793902Y-2197100D03*
G01*
X653897Y-1946732D03*
G01*
X793902Y-1946732D03*
G01*
X653897Y-1696364D03*
G01*
X793902Y-1696364D03*
G01*
X655446Y-1446529D03*
G01*
X795451Y-1446529D03*
G01*
X653897Y-1195603D03*
G01*
X793902Y-1195603D03*
G01*
X655446Y-945794D03*
G01*
X795451Y-945794D03*
G01*
X655446Y-695401D03*
G01*
X795451Y-695401D03*
G01*
X2178202Y-1066800D03*
G01*
X2038197Y-1066800D03*
G01*
X2178202Y-1714500D03*
G01*
X2038197Y-1714500D03*
G01*
X1593697Y-1955800D03*
G01*
X1733702Y-1955800D03*
D11*
G01*
X1816100Y-1009497D03*
G01*
X1816100Y-1149502D03*
D10*
G01*
X1644802Y-965200D03*
G01*
X1504797Y-965200D03*
D12*
G01*
X3746500Y-2301239D03*
G01*
X3746500Y-2143760D03*
G01*
X2844800Y-1450339D03*
G01*
X2844800Y-1292860D03*
D13*
G01*
X3036366Y-958595D03*
G01*
X3036366Y-863600D03*
G01*
X3036366Y-768604D03*
D14*
G01*
X2805633Y-768604D03*
G01*
X2805633Y-958595D03*
D13*
G01*
X3557066Y-2330195D03*
G01*
X3557066Y-2235200D03*
G01*
X3557066Y-2140204D03*
D14*
G01*
X3326333Y-2140204D03*
G01*
X3326333Y-2330195D03*
D15*
G01*
X3620698Y-907492D03*
G01*
X3620698Y-997507D03*
G01*
X3770701Y-997507D03*
G01*
X3770701Y-907492D03*
D16*
G01*
X3762959Y-1790344D03*
G01*
X3603066Y-1791055D03*
G01*
X3762959Y-1472844D03*
G01*
X3603066Y-1473555D03*
D17*
G01*
X241300Y-431800D03*
G01*
X241300Y-685800D03*
G01*
X241300Y-939800D03*
G01*
X241300Y-1193800D03*
G01*
X241300Y-1447800D03*
G01*
X241300Y-1701800D03*
G01*
X241300Y-1955800D03*
G01*
X241300Y-2209800D03*
G01*
X241300Y-2463800D03*
G01*
X241300Y-2717800D03*
D18*
G01*
X3617899Y-678408D03*
G01*
X3517900Y-678408D03*
G01*
X3417900Y-678408D03*
D19*
G01*
X3792905Y-608406D03*
G01*
X3242894Y-608406D03*
G01*
X3792905Y-388391D03*
G01*
X3242894Y-388391D03*
D20*
G01*
X1142009Y-1298194D03*
G01*
X1142009Y-1348206D03*
G01*
X1142009Y-1398193D03*
G01*
X1142009Y-1448206D03*
G01*
X1142009Y-1498193D03*
G01*
X1142009Y-1548206D03*
G01*
X1142009Y-1598193D03*
G01*
X1142009Y-1648205D03*
D21*
G01*
X1285494Y-1791690D03*
G01*
X1335506Y-1791690D03*
G01*
X1385493Y-1791690D03*
G01*
X1435506Y-1791690D03*
G01*
X1485493Y-1791690D03*
G01*
X1535506Y-1791690D03*
G01*
X1585493Y-1791690D03*
G01*
X1635505Y-1791690D03*
D20*
G01*
X1778990Y-1648205D03*
G01*
X1778990Y-1598193D03*
G01*
X1778990Y-1548206D03*
G01*
X1778990Y-1498193D03*
G01*
X1778990Y-1448206D03*
G01*
X1778990Y-1398193D03*
G01*
X1778990Y-1348206D03*
G01*
X1778990Y-1298194D03*
D21*
G01*
X1635505Y-1154709D03*
G01*
X1585493Y-1154709D03*
G01*
X1535506Y-1154709D03*
G01*
X1485493Y-1154709D03*
G01*
X1435506Y-1154709D03*
G01*
X1385493Y-1154709D03*
G01*
X1335506Y-1154709D03*
G01*
X1285494Y-1154709D03*
D22*
G01*
X3035300Y-1840229D03*
G01*
X3162300Y-1840229D03*
G01*
X3289300Y-1840229D03*
G01*
X3416300Y-1840229D03*
G01*
X3416300Y-1258570D03*
G01*
X3289300Y-1258570D03*
G01*
X3162300Y-1258570D03*
G01*
X3035300Y-1258570D03*
D23*
G01*
X3225800Y-1549400D03*
D24*
G01*
X2023211Y-1286992D03*
D25*
G01*
X2023211Y-1506999D03*
G01*
X2193213Y-1506999D03*
G01*
X2193213Y-1287000D03*
D26*
G01*
X3408705Y-2831109D03*
G01*
X3408705Y-2706090D03*
D27*
G01*
X3728694Y-2521102D03*
G01*
X3728694Y-3016097D03*
D28*
G01*
X2664028Y-2292121D03*
G01*
X2664028Y-2102129D03*
G01*
X2924047Y-2102129D03*
G01*
X2924047Y-2197125D03*
G01*
X2924047Y-2292121D03*
M02*
