G04 This is an RS-274x file exported by *
G04 gerbv version 2.10.0~037b94 *
G04 More information is available about gerbv at *
G04 https://gerbv.github.io/ *
G04 --End of header info--*
%MOIN*%
%FSLAX36Y36*%
%IPPOS*%
G04 --Define apertures--*
%ADD10C,0.0788*%
%AMMACRO11*
21,1,0.039370,0.059055,0.000000,0.000000,90.000000*
%
%ADD11MACRO11*%
%AMMACRO12*
21,1,0.032000,0.043000,0.000000,0.000000,90.000000*
%
%ADD12MACRO12*%
%AMMACRO13*
21,1,0.047244,0.047244,0.000000,0.000000,90.000000*
%
%ADD13MACRO13*%
%AMMACRO14*
21,1,0.062992,0.059055,0.000000,0.000000,90.000000*
%
%ADD14MACRO14*%
%AMMACRO15*
21,1,0.032000,0.043000,0.000000,0.000000,-90.000000*
%
%ADD15MACRO15*%
%AMMACRO16*
21,1,0.015748,0.066929,0.000000,0.000000,90.000000*
%
%ADD16MACRO16*%
%AMMACRO17*
21,1,0.031496,0.035433,0.000000,0.000000,-90.000000*
%
%ADD17MACRO17*%
%AMMACRO18*
21,1,0.059055,0.053500,0.000000,0.000000,0.000000*
%
%ADD18MACRO18*%
%AMMACRO19*
21,1,0.032000,0.043000,0.000000,0.000000,0.000000*
%
%ADD19MACRO19*%
%AMMACRO20*
21,1,0.031496,0.035433,0.000000,0.000000,0.000000*
%
%ADD20MACRO20*%
%AMMACRO21*
21,1,0.059055,0.012000,0.000000,0.000000,0.000000*
%
%ADD21MACRO21*%
%ADD22O,0.1575X0.0591*%
%ADD23O,0.0005X0.0591*%
%AMMACRO24*
21,1,0.039370,0.059055,0.000000,0.000000,90.000000*
%
%ADD24MACRO24*%
%AMMACRO25*
21,1,0.039370,0.059055,0.000000,0.000000,0.000000*
%
%ADD25MACRO25*%
%AMMACRO26*
21,1,0.032000,0.043000,0.000000,0.000000,0.000000*
%
%ADD26MACRO26*%
%AMMACRO27*
21,1,0.032000,0.043000,0.000000,0.000000,90.000000*
%
%ADD27MACRO27*%
%AMMACRO28*
21,1,0.032000,0.043000,0.000000,0.000000,-90.000000*
%
%ADD28MACRO28*%
%AMMACRO29*
21,1,0.019685,0.039370,0.000000,0.000000,-90.000000*
%
%ADD29MACRO29*%
%AMMACRO30*
21,1,0.051181,0.055118,0.000000,0.000000,-90.000000*
%
%ADD30MACRO30*%
%AMMACRO31*
21,1,0.031496,0.035433,0.000000,0.000000,90.000000*
%
%ADD31MACRO31*%
%AMMACRO32*
21,1,0.031496,0.035433,0.000000,0.000000,-90.000000*
%
%ADD32MACRO32*%
%AMMACRO33*
21,1,0.031496,0.035433,0.000000,0.000000,0.000000*
%
%ADD33MACRO33*%
%ADD34O,0.0006X0.0591*%
%AMMACRO35*
21,1,0.039370,0.059055,0.000000,0.000000,0.000000*
%
%ADD35MACRO35*%
%AMMACRO36*
21,1,0.032000,0.043000,0.000000,0.000000,0.000000*
%
%ADD36MACRO36*%
%AMMACRO37*
21,1,0.032000,0.043000,0.000000,0.000000,90.000000*
%
%ADD37MACRO37*%
%AMMACRO38*
21,1,0.032000,0.043000,0.000000,0.000000,-90.000000*
%
%ADD38MACRO38*%
%AMMACRO39*
21,1,0.031496,0.035433,0.000000,0.000000,0.000000*
%
%ADD39MACRO39*%
%AMMACRO40*
21,1,0.031496,0.035433,0.000000,0.000000,90.000000*
%
%ADD40MACRO40*%
%AMMACRO41*
21,1,0.043307,0.023622,0.000000,0.000000,90.000000*
%
%ADD41MACRO41*%
%AMMACRO42*
21,1,0.015748,0.035433,0.000000,0.000000,0.000000*
%
%ADD42MACRO42*%
%AMMACRO43*
21,1,0.019685,0.039370,0.000000,0.000000,90.000000*
%
%ADD43MACRO43*%
%AMMACRO44*
21,1,0.051181,0.055118,0.000000,0.000000,90.000000*
%
%ADD44MACRO44*%
%ADD45O,0.0004X0.0591*%
G04 --Start main section--*
G36*
G01X5411268Y-208580D02*
G01X5409288Y-210560D01*
G01X5409288Y-242040D01*
G01X5411268Y-244020D01*
G01X5442748Y-244020D01*
G01X5444728Y-242040D01*
G01X5444728Y-210560D01*
G01X5442748Y-208580D01*
G01X5433228Y-208580D01*
G01X5433228Y-223160D01*
G01X5420228Y-223160D01*
G01X5420228Y-208580D01*
G37*
G36*
G01X5411268Y-145980D02*
G01X5409288Y-147960D01*
G01X5409288Y-179440D01*
G01X5411268Y-181420D01*
G01X5420788Y-181420D01*
G01X5420788Y-166840D01*
G01X5433788Y-166840D01*
G01X5433788Y-181420D01*
G01X5442748Y-181420D01*
G01X5444728Y-179440D01*
G01X5444728Y-147960D01*
G01X5442748Y-145980D01*
G37*
G36*
G01X4229968Y-742280D02*
G01X4227988Y-744260D01*
G01X4227988Y-775740D01*
G01X4229968Y-777720D01*
G01X4261448Y-777720D01*
G01X4263428Y-775740D01*
G01X4263428Y-766220D01*
G01X4248848Y-766220D01*
G01X4248848Y-753220D01*
G01X4263428Y-753220D01*
G01X4263428Y-744260D01*
G01X4261448Y-742280D01*
G37*
G36*
G01X4292568Y-742280D02*
G01X4290588Y-744260D01*
G01X4290588Y-753780D01*
G01X4305168Y-753780D01*
G01X4305168Y-766780D01*
G01X4290588Y-766780D01*
G01X4290588Y-775740D01*
G01X4292568Y-777720D01*
G01X4324048Y-777720D01*
G01X4326028Y-775740D01*
G01X4326028Y-744260D01*
G01X4324048Y-742280D01*
G37*
G36*
G01X4372568Y-842280D02*
G01X4370588Y-844260D01*
G01X4370588Y-853780D01*
G01X4385168Y-853780D01*
G01X4385168Y-866780D01*
G01X4370588Y-866780D01*
G01X4370588Y-875740D01*
G01X4372568Y-877720D01*
G01X4404048Y-877720D01*
G01X4406028Y-875740D01*
G01X4406028Y-844260D01*
G01X4404048Y-842280D01*
G37*
G36*
G01X4309968Y-842280D02*
G01X4307988Y-844260D01*
G01X4307988Y-875740D01*
G01X4309968Y-877720D01*
G01X4341448Y-877720D01*
G01X4343428Y-875740D01*
G01X4343428Y-866220D01*
G01X4328848Y-866220D01*
G01X4328848Y-853220D01*
G01X4343428Y-853220D01*
G01X4343428Y-844260D01*
G01X4341448Y-842280D01*
G37*
G36*
G01X4281268Y-398580D02*
G01X4279288Y-400560D01*
G01X4279288Y-432040D01*
G01X4281268Y-434020D01*
G01X4312748Y-434020D01*
G01X4314728Y-432040D01*
G01X4314728Y-400560D01*
G01X4312748Y-398580D01*
G01X4303228Y-398580D01*
G01X4303228Y-413160D01*
G01X4290228Y-413160D01*
G01X4290228Y-398580D01*
G37*
G36*
G01X4281268Y-335980D02*
G01X4279288Y-337960D01*
G01X4279288Y-369440D01*
G01X4281268Y-371420D01*
G01X4290788Y-371420D01*
G01X4290788Y-356840D01*
G01X4303788Y-356840D01*
G01X4303788Y-371420D01*
G01X4312748Y-371420D01*
G01X4314728Y-369440D01*
G01X4314728Y-337960D01*
G01X4312748Y-335980D01*
G37*
G36*
G01X4211268Y-363580D02*
G01X4209288Y-365560D01*
G01X4209288Y-397040D01*
G01X4211268Y-399020D01*
G01X4242748Y-399020D01*
G01X4244728Y-397040D01*
G01X4244728Y-365560D01*
G01X4242748Y-363580D01*
G01X4233228Y-363580D01*
G01X4233228Y-378160D01*
G01X4220228Y-378160D01*
G01X4220228Y-363580D01*
G37*
G36*
G01X4211268Y-300980D02*
G01X4209288Y-302960D01*
G01X4209288Y-334440D01*
G01X4211268Y-336420D01*
G01X4220788Y-336420D01*
G01X4220788Y-321840D01*
G01X4233788Y-321840D01*
G01X4233788Y-336420D01*
G01X4242748Y-336420D01*
G01X4244728Y-334440D01*
G01X4244728Y-302960D01*
G01X4242748Y-300980D01*
G37*
G36*
G01X4226268Y-470980D02*
G01X4224288Y-472960D01*
G01X4224288Y-504440D01*
G01X4226268Y-506420D01*
G01X4235788Y-506420D01*
G01X4235788Y-491840D01*
G01X4248788Y-491840D01*
G01X4248788Y-506420D01*
G01X4257748Y-506420D01*
G01X4259728Y-504440D01*
G01X4259728Y-472960D01*
G01X4257748Y-470980D01*
G37*
G36*
G01X4226268Y-533580D02*
G01X4224288Y-535560D01*
G01X4224288Y-567040D01*
G01X4226268Y-569020D01*
G01X4257748Y-569020D01*
G01X4259728Y-567040D01*
G01X4259728Y-535560D01*
G01X4257748Y-533580D01*
G01X4248228Y-533580D01*
G01X4248228Y-548160D01*
G01X4235228Y-548160D01*
G01X4235228Y-533580D01*
G37*
G36*
G01X4296268Y-470980D02*
G01X4294288Y-472960D01*
G01X4294288Y-504440D01*
G01X4296268Y-506420D01*
G01X4305788Y-506420D01*
G01X4305788Y-491840D01*
G01X4318788Y-491840D01*
G01X4318788Y-506420D01*
G01X4327748Y-506420D01*
G01X4329728Y-504440D01*
G01X4329728Y-472960D01*
G01X4327748Y-470980D01*
G37*
G36*
G01X4296268Y-533580D02*
G01X4294288Y-535560D01*
G01X4294288Y-567040D01*
G01X4296268Y-569020D01*
G01X4327748Y-569020D01*
G01X4329728Y-567040D01*
G01X4329728Y-535560D01*
G01X4327748Y-533580D01*
G01X4318228Y-533580D01*
G01X4318228Y-548160D01*
G01X4305228Y-548160D01*
G01X4305228Y-533580D01*
G37*
G36*
G01X4171268Y-425980D02*
G01X4169288Y-427960D01*
G01X4169288Y-459440D01*
G01X4171268Y-461420D01*
G01X4180788Y-461420D01*
G01X4180788Y-446840D01*
G01X4193788Y-446840D01*
G01X4193788Y-461420D01*
G01X4202748Y-461420D01*
G01X4204728Y-459440D01*
G01X4204728Y-427960D01*
G01X4202748Y-425980D01*
G37*
G36*
G01X4171268Y-488580D02*
G01X4169288Y-490560D01*
G01X4169288Y-522040D01*
G01X4171268Y-524020D01*
G01X4202748Y-524020D01*
G01X4204728Y-522040D01*
G01X4204728Y-490560D01*
G01X4202748Y-488580D01*
G01X4193228Y-488580D01*
G01X4193228Y-503160D01*
G01X4180228Y-503160D01*
G01X4180228Y-488580D01*
G37*
G36*
G01X4401268Y-743580D02*
G01X4399288Y-745560D01*
G01X4399288Y-777040D01*
G01X4401268Y-779020D01*
G01X4432748Y-779020D01*
G01X4434728Y-777040D01*
G01X4434728Y-745560D01*
G01X4432748Y-743580D01*
G01X4423228Y-743580D01*
G01X4423228Y-758160D01*
G01X4410228Y-758160D01*
G01X4410228Y-743580D01*
G37*
G36*
G01X4401268Y-680980D02*
G01X4399288Y-682960D01*
G01X4399288Y-714440D01*
G01X4401268Y-716420D01*
G01X4410788Y-716420D01*
G01X4410788Y-701840D01*
G01X4423788Y-701840D01*
G01X4423788Y-716420D01*
G01X4432748Y-716420D01*
G01X4434728Y-714440D01*
G01X4434728Y-682960D01*
G01X4432748Y-680980D01*
G37*
G36*
G01X4476268Y-680980D02*
G01X4474288Y-682960D01*
G01X4474288Y-714440D01*
G01X4476268Y-716420D01*
G01X4485788Y-716420D01*
G01X4485788Y-701840D01*
G01X4498788Y-701840D01*
G01X4498788Y-716420D01*
G01X4507748Y-716420D01*
G01X4509728Y-714440D01*
G01X4509728Y-682960D01*
G01X4507748Y-680980D01*
G37*
G36*
G01X4476268Y-743580D02*
G01X4474288Y-745560D01*
G01X4474288Y-777040D01*
G01X4476268Y-779020D01*
G01X4507748Y-779020D01*
G01X4509728Y-777040D01*
G01X4509728Y-745560D01*
G01X4507748Y-743580D01*
G01X4498228Y-743580D01*
G01X4498228Y-758160D01*
G01X4485228Y-758160D01*
G01X4485228Y-743580D01*
G37*
G36*
G01X4711268Y-513580D02*
G01X4709288Y-515560D01*
G01X4709288Y-547040D01*
G01X4711268Y-549020D01*
G01X4742748Y-549020D01*
G01X4744728Y-547040D01*
G01X4744728Y-515560D01*
G01X4742748Y-513580D01*
G01X4733228Y-513580D01*
G01X4733228Y-528160D01*
G01X4720228Y-528160D01*
G01X4720228Y-513580D01*
G37*
G36*
G01X4711268Y-450980D02*
G01X4709288Y-452960D01*
G01X4709288Y-484440D01*
G01X4711268Y-486420D01*
G01X4720788Y-486420D01*
G01X4720788Y-471840D01*
G01X4733788Y-471840D01*
G01X4733788Y-486420D01*
G01X4742748Y-486420D01*
G01X4744728Y-484440D01*
G01X4744728Y-452960D01*
G01X4742748Y-450980D01*
G37*
G36*
G01X4776268Y-450980D02*
G01X4774288Y-452960D01*
G01X4774288Y-484440D01*
G01X4776268Y-486420D01*
G01X4785788Y-486420D01*
G01X4785788Y-471840D01*
G01X4798788Y-471840D01*
G01X4798788Y-486420D01*
G01X4807748Y-486420D01*
G01X4809728Y-484440D01*
G01X4809728Y-452960D01*
G01X4807748Y-450980D01*
G37*
G36*
G01X4776268Y-513580D02*
G01X4774288Y-515560D01*
G01X4774288Y-547040D01*
G01X4776268Y-549020D01*
G01X4807748Y-549020D01*
G01X4809728Y-547040D01*
G01X4809728Y-515560D01*
G01X4807748Y-513580D01*
G01X4798228Y-513580D01*
G01X4798228Y-528160D01*
G01X4785228Y-528160D01*
G01X4785228Y-513580D01*
G37*
G36*
G01X4689968Y-232280D02*
G01X4687988Y-234260D01*
G01X4687988Y-265740D01*
G01X4689968Y-267720D01*
G01X4721448Y-267720D01*
G01X4723428Y-265740D01*
G01X4723428Y-256220D01*
G01X4708868Y-256220D01*
G01X4708868Y-243220D01*
G01X4723428Y-243220D01*
G01X4723428Y-234260D01*
G01X4721448Y-232280D01*
G37*
G36*
G01X4752568Y-232280D02*
G01X4750588Y-234260D01*
G01X4750588Y-243780D01*
G01X4765148Y-243780D01*
G01X4765148Y-256780D01*
G01X4750588Y-256780D01*
G01X4750588Y-265740D01*
G01X4752568Y-267720D01*
G01X4784048Y-267720D01*
G01X4786028Y-265740D01*
G01X4786028Y-234260D01*
G01X4784048Y-232280D01*
G37*
G36*
G01X4776268Y-295980D02*
G01X4774288Y-297960D01*
G01X4774288Y-329440D01*
G01X4776268Y-331420D01*
G01X4785788Y-331420D01*
G01X4785788Y-316840D01*
G01X4798788Y-316840D01*
G01X4798788Y-331420D01*
G01X4807748Y-331420D01*
G01X4809728Y-329440D01*
G01X4809728Y-297960D01*
G01X4807748Y-295980D01*
G37*
G36*
G01X4776268Y-358580D02*
G01X4774288Y-360560D01*
G01X4774288Y-392040D01*
G01X4776268Y-394020D01*
G01X4807748Y-394020D01*
G01X4809728Y-392040D01*
G01X4809728Y-360560D01*
G01X4807748Y-358580D01*
G01X4798228Y-358580D01*
G01X4798228Y-373160D01*
G01X4785228Y-373160D01*
G01X4785228Y-358580D01*
G37*
G36*
G01X4706268Y-295980D02*
G01X4704288Y-297960D01*
G01X4704288Y-329440D01*
G01X4706268Y-331420D01*
G01X4715788Y-331420D01*
G01X4715788Y-316840D01*
G01X4728788Y-316840D01*
G01X4728788Y-331420D01*
G01X4737748Y-331420D01*
G01X4739728Y-329440D01*
G01X4739728Y-297960D01*
G01X4737748Y-295980D01*
G37*
G36*
G01X4706268Y-358580D02*
G01X4704288Y-360560D01*
G01X4704288Y-392040D01*
G01X4706268Y-394020D01*
G01X4737748Y-394020D01*
G01X4739728Y-392040D01*
G01X4739728Y-360560D01*
G01X4737748Y-358580D01*
G01X4728228Y-358580D01*
G01X4728228Y-373160D01*
G01X4715228Y-373160D01*
G01X4715228Y-358580D01*
G37*
G36*
G01X4774968Y-677280D02*
G01X4772988Y-679260D01*
G01X4772988Y-710740D01*
G01X4774968Y-712720D01*
G01X4806448Y-712720D01*
G01X4808428Y-710740D01*
G01X4808428Y-701220D01*
G01X4793868Y-701220D01*
G01X4793868Y-688220D01*
G01X4808428Y-688220D01*
G01X4808428Y-679260D01*
G01X4806448Y-677280D01*
G37*
G36*
G01X4837568Y-677280D02*
G01X4835588Y-679260D01*
G01X4835588Y-688780D01*
G01X4850148Y-688780D01*
G01X4850148Y-701780D01*
G01X4835588Y-701780D01*
G01X4835588Y-710740D01*
G01X4837568Y-712720D01*
G01X4869048Y-712720D01*
G01X4871028Y-710740D01*
G01X4871028Y-679260D01*
G01X4869048Y-677280D01*
G37*
G36*
G01X4716268Y-673580D02*
G01X4714288Y-675560D01*
G01X4714288Y-707040D01*
G01X4716268Y-709020D01*
G01X4747748Y-709020D01*
G01X4749728Y-707040D01*
G01X4749728Y-675560D01*
G01X4747748Y-673580D01*
G01X4738228Y-673580D01*
G01X4738228Y-688160D01*
G01X4725228Y-688160D01*
G01X4725228Y-673580D01*
G37*
G36*
G01X4716268Y-610980D02*
G01X4714288Y-612960D01*
G01X4714288Y-644440D01*
G01X4716268Y-646420D01*
G01X4725788Y-646420D01*
G01X4725788Y-631840D01*
G01X4738788Y-631840D01*
G01X4738788Y-646420D01*
G01X4747748Y-646420D01*
G01X4749728Y-644440D01*
G01X4749728Y-612960D01*
G01X4747748Y-610980D01*
G37*
G36*
G01X4859968Y-597280D02*
G01X4857988Y-599260D01*
G01X4857988Y-630740D01*
G01X4859968Y-632720D01*
G01X4891448Y-632720D01*
G01X4893428Y-630740D01*
G01X4893428Y-621220D01*
G01X4878868Y-621220D01*
G01X4878868Y-608220D01*
G01X4893428Y-608220D01*
G01X4893428Y-599260D01*
G01X4891448Y-597280D01*
G37*
G36*
G01X4922568Y-597280D02*
G01X4920588Y-599260D01*
G01X4920588Y-608780D01*
G01X4935148Y-608780D01*
G01X4935148Y-621780D01*
G01X4920588Y-621780D01*
G01X4920588Y-630740D01*
G01X4922568Y-632720D01*
G01X4954048Y-632720D01*
G01X4956028Y-630740D01*
G01X4956028Y-599260D01*
G01X4954048Y-597280D01*
G37*
G36*
G01X4927568Y-382280D02*
G01X4925588Y-384260D01*
G01X4925588Y-393780D01*
G01X4940148Y-393780D01*
G01X4940148Y-406780D01*
G01X4925588Y-406780D01*
G01X4925588Y-415740D01*
G01X4927568Y-417720D01*
G01X4959048Y-417720D01*
G01X4961028Y-415740D01*
G01X4961028Y-384260D01*
G01X4959048Y-382280D01*
G37*
G36*
G01X4864968Y-382280D02*
G01X4862988Y-384260D01*
G01X4862988Y-415740D01*
G01X4864968Y-417720D01*
G01X4896448Y-417720D01*
G01X4898428Y-415740D01*
G01X4898428Y-406220D01*
G01X4883868Y-406220D01*
G01X4883868Y-393220D01*
G01X4898428Y-393220D01*
G01X4898428Y-384260D01*
G01X4896448Y-382280D01*
G37*
G36*
G01X5396268Y-368580D02*
G01X5394288Y-370560D01*
G01X5394288Y-402040D01*
G01X5396268Y-404020D01*
G01X5427748Y-404020D01*
G01X5429728Y-402040D01*
G01X5429728Y-370560D01*
G01X5427748Y-368580D01*
G01X5418228Y-368580D01*
G01X5418228Y-383160D01*
G01X5405228Y-383160D01*
G01X5405228Y-368580D01*
G37*
G36*
G01X5396268Y-305980D02*
G01X5394288Y-307960D01*
G01X5394288Y-339440D01*
G01X5396268Y-341420D01*
G01X5405788Y-341420D01*
G01X5405788Y-326840D01*
G01X5418788Y-326840D01*
G01X5418788Y-341420D01*
G01X5427748Y-341420D01*
G01X5429728Y-339440D01*
G01X5429728Y-307960D01*
G01X5427748Y-305980D01*
G37*
G36*
G01X5296268Y-275980D02*
G01X5294288Y-277960D01*
G01X5294288Y-309440D01*
G01X5296268Y-311420D01*
G01X5305788Y-311420D01*
G01X5305788Y-296840D01*
G01X5318788Y-296840D01*
G01X5318788Y-311420D01*
G01X5327748Y-311420D01*
G01X5329728Y-309440D01*
G01X5329728Y-277960D01*
G01X5327748Y-275980D01*
G37*
G36*
G01X5296268Y-338580D02*
G01X5294288Y-340560D01*
G01X5294288Y-372040D01*
G01X5296268Y-374020D01*
G01X5327748Y-374020D01*
G01X5329728Y-372040D01*
G01X5329728Y-340560D01*
G01X5327748Y-338580D01*
G01X5318228Y-338580D01*
G01X5318228Y-353160D01*
G01X5305228Y-353160D01*
G01X5305228Y-338580D01*
G37*
G36*
G01X5226268Y-275980D02*
G01X5224288Y-277960D01*
G01X5224288Y-309440D01*
G01X5226268Y-311420D01*
G01X5235788Y-311420D01*
G01X5235788Y-296840D01*
G01X5248788Y-296840D01*
G01X5248788Y-311420D01*
G01X5257748Y-311420D01*
G01X5259728Y-309440D01*
G01X5259728Y-277960D01*
G01X5257748Y-275980D01*
G37*
G36*
G01X5226268Y-338580D02*
G01X5224288Y-340560D01*
G01X5224288Y-372040D01*
G01X5226268Y-374020D01*
G01X5257748Y-374020D01*
G01X5259728Y-372040D01*
G01X5259728Y-340560D01*
G01X5257748Y-338580D01*
G01X5248228Y-338580D01*
G01X5248228Y-353160D01*
G01X5235228Y-353160D01*
G01X5235228Y-338580D01*
G37*
G36*
G01X5176268Y-150980D02*
G01X5174288Y-152960D01*
G01X5174288Y-184440D01*
G01X5176268Y-186420D01*
G01X5185788Y-186420D01*
G01X5185788Y-171840D01*
G01X5198788Y-171840D01*
G01X5198788Y-186420D01*
G01X5207748Y-186420D01*
G01X5209728Y-184440D01*
G01X5209728Y-152960D01*
G01X5207748Y-150980D01*
G37*
G36*
G01X5176268Y-213580D02*
G01X5174288Y-215560D01*
G01X5174288Y-247040D01*
G01X5176268Y-249020D01*
G01X5207748Y-249020D01*
G01X5209728Y-247040D01*
G01X5209728Y-215560D01*
G01X5207748Y-213580D01*
G01X5198228Y-213580D01*
G01X5198228Y-228160D01*
G01X5185228Y-228160D01*
G01X5185228Y-213580D01*
G37*
G54D10*
G01X5047008Y-315000D03*
G01X5047008Y-415000D03*
G01X5047008Y-515000D03*
G01X5047008Y-615000D03*
G01X5047008Y-715000D03*
G54D11*
G01X5262008Y-900000D03*
G01X5262008Y-850000D03*
G01X5262008Y-950000D03*
G54D12*
G01X4367008Y-326000D03*
G01X4367008Y-264000D03*
G54D13*
G01X4536283Y-349621D03*
G54D14*
G01X4647735Y-314650D03*
G54D13*
G01X4536283Y-280379D03*
G54D15*
G01X4457008Y-259000D03*
G01X4457008Y-321000D03*
G54D13*
G01X4856283Y-544621D03*
G54D14*
G01X4967735Y-509650D03*
G54D13*
G01X4856283Y-475379D03*
G54D16*
G01X4416768Y-566770D03*
G01X4416768Y-541180D03*
G01X4416768Y-515590D03*
G01X4416768Y-490000D03*
G01X4416768Y-464410D03*
G01X4416768Y-438820D03*
G01X4416768Y-413230D03*
G01X4637248Y-413230D03*
G01X4637248Y-438820D03*
G01X4637248Y-464410D03*
G01X4637248Y-490000D03*
G01X4637248Y-515590D03*
G01X4637248Y-541180D03*
G01X4637248Y-566770D03*
G54D17*
G01X4657008Y-757559D03*
G01X4657008Y-702441D03*
G54D12*
G01X4572008Y-761000D03*
G01X4572008Y-699000D03*
G54D18*
G01X5291526Y-560778D03*
G01X5197038Y-560778D03*
G54D19*
G01X5216008Y-650000D03*
G01X5278007Y-650000D03*
G54D20*
G01X5221723Y-725778D03*
G01X5276841Y-725778D03*
G54D21*
G01X5340781Y-416408D03*
G01X5340781Y-436098D03*
G01X5340781Y-455778D03*
G01X5340781Y-475468D03*
G01X5340781Y-495148D03*
G01X5147781Y-495148D03*
G01X5147781Y-475468D03*
G01X5147781Y-455778D03*
G01X5147781Y-436098D03*
G01X5147781Y-416408D03*
G54D22*
G01X4032008Y-1070000D03*
G01X4032008Y-970000D03*
G01X4032008Y-870000D03*
G01X4032008Y-770000D03*
G01X4032008Y-670000D03*
G01X4032008Y-570000D03*
G01X4032008Y-470000D03*
G01X4032008Y-370000D03*
G01X4032008Y-270000D03*
G01X4032008Y-170000D03*
G01X1968504Y0000000D02*
G36*
G01X2302764Y-263580D02*
G01X2300784Y-265560D01*
G01X2300784Y-297040D01*
G01X2302764Y-299020D01*
G01X2334244Y-299020D01*
G01X2336224Y-297040D01*
G01X2336224Y-265560D01*
G01X2334244Y-263580D01*
G01X2324724Y-263580D01*
G01X2324724Y-278160D01*
G01X2311724Y-278160D01*
G01X2311724Y-263580D01*
G37*
G36*
G01X2302764Y-200980D02*
G01X2300784Y-202960D01*
G01X2300784Y-234440D01*
G01X2302764Y-236420D01*
G01X2312284Y-236420D01*
G01X2312284Y-221840D01*
G01X2325284Y-221840D01*
G01X2325284Y-236420D01*
G01X2334244Y-236420D01*
G01X2336224Y-234440D01*
G01X2336224Y-202960D01*
G01X2334244Y-200980D01*
G37*
G36*
G01X2662764Y-283580D02*
G01X2660784Y-285560D01*
G01X2660784Y-317040D01*
G01X2662764Y-319020D01*
G01X2694244Y-319020D01*
G01X2696224Y-317040D01*
G01X2696224Y-285560D01*
G01X2694244Y-283580D01*
G01X2684724Y-283580D01*
G01X2684724Y-298160D01*
G01X2671724Y-298160D01*
G01X2671724Y-283580D01*
G37*
G36*
G01X2662764Y-220980D02*
G01X2660784Y-222960D01*
G01X2660784Y-254440D01*
G01X2662764Y-256420D01*
G01X2672284Y-256420D01*
G01X2672284Y-241840D01*
G01X2685284Y-241840D01*
G01X2685284Y-256420D01*
G01X2694244Y-256420D01*
G01X2696224Y-254440D01*
G01X2696224Y-222960D01*
G01X2694244Y-220980D01*
G37*
G36*
G01X3357764Y-213580D02*
G01X3355784Y-215560D01*
G01X3355784Y-247040D01*
G01X3357764Y-249020D01*
G01X3389244Y-249020D01*
G01X3391224Y-247040D01*
G01X3391224Y-215560D01*
G01X3389244Y-213580D01*
G01X3379724Y-213580D01*
G01X3379724Y-228160D01*
G01X3366724Y-228160D01*
G01X3366724Y-213580D01*
G37*
G36*
G01X3357764Y-150980D02*
G01X3355784Y-152960D01*
G01X3355784Y-184440D01*
G01X3357764Y-186420D01*
G01X3367284Y-186420D01*
G01X3367284Y-171840D01*
G01X3380284Y-171840D01*
G01X3380284Y-186420D01*
G01X3389244Y-186420D01*
G01X3391224Y-184440D01*
G01X3391224Y-152960D01*
G01X3389244Y-150980D01*
G37*
G36*
G01X3427764Y-998580D02*
G01X3425784Y-1000560D01*
G01X3425784Y-1032040D01*
G01X3427764Y-1034020D01*
G01X3459244Y-1034020D01*
G01X3461224Y-1032040D01*
G01X3461224Y-1000560D01*
G01X3459244Y-998580D01*
G01X3449724Y-998580D01*
G01X3449724Y-1013160D01*
G01X3436724Y-1013160D01*
G01X3436724Y-998580D01*
G37*
G36*
G01X3427764Y-935980D02*
G01X3425784Y-937960D01*
G01X3425784Y-969440D01*
G01X3427764Y-971420D01*
G01X3437284Y-971420D01*
G01X3437284Y-956840D01*
G01X3450284Y-956840D01*
G01X3450284Y-971420D01*
G01X3459244Y-971420D01*
G01X3461224Y-969440D01*
G01X3461224Y-937960D01*
G01X3459244Y-935980D01*
G37*
G36*
G01X3317764Y-998580D02*
G01X3315784Y-1000560D01*
G01X3315784Y-1032040D01*
G01X3317764Y-1034020D01*
G01X3349244Y-1034020D01*
G01X3351224Y-1032040D01*
G01X3351224Y-1000560D01*
G01X3349244Y-998580D01*
G01X3339724Y-998580D01*
G01X3339724Y-1013160D01*
G01X3326724Y-1013160D01*
G01X3326724Y-998580D01*
G37*
G36*
G01X3317764Y-935980D02*
G01X3315784Y-937960D01*
G01X3315784Y-969440D01*
G01X3317764Y-971420D01*
G01X3327284Y-971420D01*
G01X3327284Y-956840D01*
G01X3340284Y-956840D01*
G01X3340284Y-971420D01*
G01X3349244Y-971420D01*
G01X3351224Y-969440D01*
G01X3351224Y-937960D01*
G01X3349244Y-935980D01*
G37*
G36*
G01X2609064Y-872280D02*
G01X2607084Y-874260D01*
G01X2607084Y-883780D01*
G01X2621664Y-883780D01*
G01X2621664Y-896780D01*
G01X2607084Y-896780D01*
G01X2607084Y-905740D01*
G01X2609064Y-907720D01*
G01X2640544Y-907720D01*
G01X2642524Y-905740D01*
G01X2642524Y-874260D01*
G01X2640544Y-872280D01*
G37*
G36*
G01X2546464Y-872280D02*
G01X2544484Y-874260D01*
G01X2544484Y-905740D01*
G01X2546464Y-907720D01*
G01X2577944Y-907720D01*
G01X2579924Y-905740D01*
G01X2579924Y-896220D01*
G01X2565344Y-896220D01*
G01X2565344Y-883220D01*
G01X2579924Y-883220D01*
G01X2579924Y-874260D01*
G01X2577944Y-872280D01*
G37*
G36*
G01X2609064Y-822280D02*
G01X2607084Y-824260D01*
G01X2607084Y-833780D01*
G01X2621664Y-833780D01*
G01X2621664Y-846780D01*
G01X2607084Y-846780D01*
G01X2607084Y-855740D01*
G01X2609064Y-857720D01*
G01X2640544Y-857720D01*
G01X2642524Y-855740D01*
G01X2642524Y-824260D01*
G01X2640544Y-822280D01*
G37*
G36*
G01X2546464Y-822280D02*
G01X2544484Y-824260D01*
G01X2544484Y-855740D01*
G01X2546464Y-857720D01*
G01X2577944Y-857720D01*
G01X2579924Y-855740D01*
G01X2579924Y-846220D01*
G01X2565344Y-846220D01*
G01X2565344Y-833220D01*
G01X2579924Y-833220D01*
G01X2579924Y-824260D01*
G01X2577944Y-822280D01*
G37*
G36*
G01X2813033Y-335467D02*
G01X2813033Y-315782D01*
G01X2812984Y-314243D01*
G01X2812855Y-312708D01*
G01X2812645Y-311182D01*
G01X2812357Y-309669D01*
G01X2811990Y-308173D01*
G01X2811546Y-306699D01*
G01X2811025Y-305249D01*
G01X2810429Y-303829D01*
G01X2809760Y-302441D01*
G01X2809020Y-301091D01*
G01X2808210Y-299781D01*
G01X2807333Y-298514D01*
G01X2806392Y-297296D01*
G01X2805388Y-296128D01*
G01X2804324Y-295014D01*
G01X2803204Y-293957D01*
G01X2802030Y-292959D01*
G01X2800806Y-292025D01*
G01X2799535Y-291155D01*
G01X2798220Y-290353D01*
G01X2796865Y-289621D01*
G01X2795474Y-288960D01*
G01X2794050Y-288373D01*
G01X2792597Y-287860D01*
G01X2791120Y-287425D01*
G01X2789622Y-287066D01*
G01X2788108Y-286787D01*
G01X2786581Y-286586D01*
G01X2785045Y-286466D01*
G01X2783505Y-286426D01*
G01X2781966Y-286466D01*
G01X2780430Y-286586D01*
G01X2778903Y-286787D01*
G01X2777389Y-287066D01*
G01X2775891Y-287425D01*
G01X2774414Y-287860D01*
G01X2772961Y-288373D01*
G01X2771537Y-288960D01*
G01X2770146Y-289621D01*
G01X2768791Y-290353D01*
G01X2767476Y-291155D01*
G01X2766205Y-292025D01*
G01X2764981Y-292959D01*
G01X2763807Y-293957D01*
G01X2762687Y-295014D01*
G01X2761623Y-296128D01*
G01X2760619Y-297296D01*
G01X2759678Y-298514D01*
G01X2758801Y-299781D01*
G01X2757991Y-301091D01*
G01X2757251Y-302441D01*
G01X2756582Y-303829D01*
G01X2755986Y-305249D01*
G01X2755465Y-306699D01*
G01X2755021Y-308173D01*
G01X2754654Y-309669D01*
G01X2754366Y-311182D01*
G01X2754156Y-312708D01*
G01X2754027Y-314243D01*
G01X2753978Y-315782D01*
G01X2753978Y-335467D01*
G37*
G36*
G01X2753979Y-345480D02*
G01X2753979Y-365165D01*
G01X2754028Y-366704D01*
G01X2754157Y-368239D01*
G01X2754367Y-369765D01*
G01X2754655Y-371278D01*
G01X2755022Y-372774D01*
G01X2755466Y-374248D01*
G01X2755987Y-375698D01*
G01X2756583Y-377118D01*
G01X2757252Y-378506D01*
G01X2757992Y-379856D01*
G01X2758802Y-381166D01*
G01X2759679Y-382433D01*
G01X2760620Y-383651D01*
G01X2761624Y-384819D01*
G01X2762688Y-385933D01*
G01X2763808Y-386990D01*
G01X2764982Y-387988D01*
G01X2766206Y-388922D01*
G01X2767477Y-389792D01*
G01X2768792Y-390594D01*
G01X2770147Y-391326D01*
G01X2771538Y-391987D01*
G01X2772962Y-392574D01*
G01X2774415Y-393087D01*
G01X2775892Y-393522D01*
G01X2777390Y-393881D01*
G01X2778904Y-394160D01*
G01X2780431Y-394361D01*
G01X2781967Y-394481D01*
G01X2783507Y-394521D01*
G01X2785046Y-394481D01*
G01X2786582Y-394361D01*
G01X2788109Y-394160D01*
G01X2789623Y-393881D01*
G01X2791121Y-393522D01*
G01X2792598Y-393087D01*
G01X2794051Y-392574D01*
G01X2795475Y-391987D01*
G01X2796866Y-391326D01*
G01X2798221Y-390594D01*
G01X2799536Y-389792D01*
G01X2800807Y-388922D01*
G01X2802031Y-387988D01*
G01X2803205Y-386990D01*
G01X2804325Y-385933D01*
G01X2805389Y-384819D01*
G01X2806393Y-383651D01*
G01X2807334Y-382433D01*
G01X2808211Y-381166D01*
G01X2809021Y-379856D01*
G01X2809761Y-378506D01*
G01X2810430Y-377118D01*
G01X2811026Y-375698D01*
G01X2811547Y-374248D01*
G01X2811991Y-372774D01*
G01X2812358Y-371278D01*
G01X2812646Y-369765D01*
G01X2812856Y-368239D01*
G01X2812985Y-366704D01*
G01X2813034Y-365165D01*
G01X2813034Y-345480D01*
G37*
G36*
G01X2783975Y-864533D02*
G01X2783975Y-884218D01*
G01X2784024Y-885757D01*
G01X2784153Y-887292D01*
G01X2784363Y-888818D01*
G01X2784651Y-890331D01*
G01X2785018Y-891827D01*
G01X2785462Y-893301D01*
G01X2785983Y-894751D01*
G01X2786579Y-896171D01*
G01X2787248Y-897559D01*
G01X2787988Y-898909D01*
G01X2788798Y-900219D01*
G01X2789675Y-901486D01*
G01X2790616Y-902704D01*
G01X2791620Y-903872D01*
G01X2792684Y-904986D01*
G01X2793804Y-906043D01*
G01X2794978Y-907041D01*
G01X2796202Y-907975D01*
G01X2797473Y-908845D01*
G01X2798788Y-909647D01*
G01X2800143Y-910379D01*
G01X2801534Y-911040D01*
G01X2802958Y-911627D01*
G01X2804411Y-912140D01*
G01X2805888Y-912575D01*
G01X2807386Y-912934D01*
G01X2808900Y-913213D01*
G01X2810427Y-913414D01*
G01X2811963Y-913534D01*
G01X2813503Y-913574D01*
G01X2815042Y-913534D01*
G01X2816578Y-913414D01*
G01X2818105Y-913213D01*
G01X2819619Y-912934D01*
G01X2821117Y-912575D01*
G01X2822594Y-912140D01*
G01X2824047Y-911627D01*
G01X2825471Y-911040D01*
G01X2826862Y-910379D01*
G01X2828217Y-909647D01*
G01X2829532Y-908845D01*
G01X2830803Y-907975D01*
G01X2832027Y-907041D01*
G01X2833201Y-906043D01*
G01X2834321Y-904986D01*
G01X2835385Y-903872D01*
G01X2836389Y-902704D01*
G01X2837330Y-901486D01*
G01X2838207Y-900219D01*
G01X2839017Y-898909D01*
G01X2839757Y-897559D01*
G01X2840426Y-896171D01*
G01X2841022Y-894751D01*
G01X2841543Y-893301D01*
G01X2841987Y-891827D01*
G01X2842354Y-890331D01*
G01X2842642Y-888818D01*
G01X2842852Y-887292D01*
G01X2842981Y-885757D01*
G01X2843030Y-884218D01*
G01X2843030Y-864533D01*
G37*
G36*
G01X2843029Y-854520D02*
G01X2843029Y-834835D01*
G01X2842980Y-833296D01*
G01X2842851Y-831761D01*
G01X2842641Y-830235D01*
G01X2842353Y-828722D01*
G01X2841986Y-827226D01*
G01X2841542Y-825752D01*
G01X2841021Y-824302D01*
G01X2840425Y-822882D01*
G01X2839756Y-821494D01*
G01X2839016Y-820144D01*
G01X2838206Y-818834D01*
G01X2837329Y-817567D01*
G01X2836388Y-816349D01*
G01X2835384Y-815181D01*
G01X2834320Y-814067D01*
G01X2833200Y-813010D01*
G01X2832026Y-812012D01*
G01X2830802Y-811078D01*
G01X2829531Y-810208D01*
G01X2828216Y-809406D01*
G01X2826861Y-808674D01*
G01X2825470Y-808013D01*
G01X2824046Y-807426D01*
G01X2822593Y-806913D01*
G01X2821116Y-806478D01*
G01X2819618Y-806119D01*
G01X2818104Y-805840D01*
G01X2816577Y-805639D01*
G01X2815041Y-805519D01*
G01X2813501Y-805479D01*
G01X2811962Y-805519D01*
G01X2810426Y-805639D01*
G01X2808899Y-805840D01*
G01X2807385Y-806119D01*
G01X2805887Y-806478D01*
G01X2804410Y-806913D01*
G01X2802957Y-807426D01*
G01X2801533Y-808013D01*
G01X2800142Y-808674D01*
G01X2798787Y-809406D01*
G01X2797472Y-810208D01*
G01X2796201Y-811078D01*
G01X2794977Y-812012D01*
G01X2793803Y-813010D01*
G01X2792683Y-814067D01*
G01X2791619Y-815181D01*
G01X2790615Y-816349D01*
G01X2789674Y-817567D01*
G01X2788797Y-818834D01*
G01X2787987Y-820144D01*
G01X2787247Y-821494D01*
G01X2786578Y-822882D01*
G01X2785982Y-824302D01*
G01X2785461Y-825752D01*
G01X2785017Y-827226D01*
G01X2784650Y-828722D01*
G01X2784362Y-830235D01*
G01X2784152Y-831761D01*
G01X2784023Y-833296D01*
G01X2783974Y-834835D01*
G01X2783974Y-854520D01*
G37*
G36*
G01X2553033Y-250467D02*
G01X2553033Y-230782D01*
G01X2552984Y-229243D01*
G01X2552855Y-227708D01*
G01X2552645Y-226182D01*
G01X2552357Y-224669D01*
G01X2551990Y-223173D01*
G01X2551546Y-221699D01*
G01X2551025Y-220249D01*
G01X2550429Y-218829D01*
G01X2549760Y-217441D01*
G01X2549020Y-216091D01*
G01X2548210Y-214781D01*
G01X2547333Y-213514D01*
G01X2546392Y-212296D01*
G01X2545388Y-211128D01*
G01X2544324Y-210014D01*
G01X2543204Y-208957D01*
G01X2542030Y-207959D01*
G01X2540806Y-207025D01*
G01X2539535Y-206155D01*
G01X2538220Y-205353D01*
G01X2536865Y-204621D01*
G01X2535474Y-203960D01*
G01X2534050Y-203373D01*
G01X2532597Y-202860D01*
G01X2531120Y-202425D01*
G01X2529622Y-202066D01*
G01X2528108Y-201787D01*
G01X2526581Y-201586D01*
G01X2525045Y-201466D01*
G01X2523505Y-201426D01*
G01X2521966Y-201466D01*
G01X2520430Y-201586D01*
G01X2518903Y-201787D01*
G01X2517389Y-202066D01*
G01X2515891Y-202425D01*
G01X2514414Y-202860D01*
G01X2512961Y-203373D01*
G01X2511537Y-203960D01*
G01X2510146Y-204621D01*
G01X2508791Y-205353D01*
G01X2507476Y-206155D01*
G01X2506205Y-207025D01*
G01X2504981Y-207959D01*
G01X2503807Y-208957D01*
G01X2502687Y-210014D01*
G01X2501623Y-211128D01*
G01X2500619Y-212296D01*
G01X2499678Y-213514D01*
G01X2498801Y-214781D01*
G01X2497991Y-216091D01*
G01X2497251Y-217441D01*
G01X2496582Y-218829D01*
G01X2495986Y-220249D01*
G01X2495465Y-221699D01*
G01X2495021Y-223173D01*
G01X2494654Y-224669D01*
G01X2494366Y-226182D01*
G01X2494156Y-227708D01*
G01X2494027Y-229243D01*
G01X2493978Y-230782D01*
G01X2493978Y-250467D01*
G37*
G36*
G01X2493979Y-260480D02*
G01X2493979Y-280165D01*
G01X2494028Y-281704D01*
G01X2494157Y-283239D01*
G01X2494367Y-284765D01*
G01X2494655Y-286278D01*
G01X2495022Y-287774D01*
G01X2495466Y-289248D01*
G01X2495987Y-290698D01*
G01X2496583Y-292118D01*
G01X2497252Y-293506D01*
G01X2497992Y-294856D01*
G01X2498802Y-296166D01*
G01X2499679Y-297433D01*
G01X2500620Y-298651D01*
G01X2501624Y-299819D01*
G01X2502688Y-300933D01*
G01X2503808Y-301990D01*
G01X2504982Y-302988D01*
G01X2506206Y-303922D01*
G01X2507477Y-304792D01*
G01X2508792Y-305594D01*
G01X2510147Y-306326D01*
G01X2511538Y-306987D01*
G01X2512962Y-307574D01*
G01X2514415Y-308087D01*
G01X2515892Y-308522D01*
G01X2517390Y-308881D01*
G01X2518904Y-309160D01*
G01X2520431Y-309361D01*
G01X2521967Y-309481D01*
G01X2523507Y-309521D01*
G01X2525046Y-309481D01*
G01X2526582Y-309361D01*
G01X2528109Y-309160D01*
G01X2529623Y-308881D01*
G01X2531121Y-308522D01*
G01X2532598Y-308087D01*
G01X2534051Y-307574D01*
G01X2535475Y-306987D01*
G01X2536866Y-306326D01*
G01X2538221Y-305594D01*
G01X2539536Y-304792D01*
G01X2540807Y-303922D01*
G01X2542031Y-302988D01*
G01X2543205Y-301990D01*
G01X2544325Y-300933D01*
G01X2545389Y-299819D01*
G01X2546393Y-298651D01*
G01X2547334Y-297433D01*
G01X2548211Y-296166D01*
G01X2549021Y-294856D01*
G01X2549761Y-293506D01*
G01X2550430Y-292118D01*
G01X2551026Y-290698D01*
G01X2551547Y-289248D01*
G01X2551991Y-287774D01*
G01X2552358Y-286278D01*
G01X2552646Y-284765D01*
G01X2552856Y-283239D01*
G01X2552985Y-281704D01*
G01X2553034Y-280165D01*
G01X2553034Y-260480D01*
G37*
G54D24*
G01X2218504Y-520000D03*
G01X2218504Y-470000D03*
G01X2218504Y-570000D03*
G54D25*
G01X3398504Y-320000D03*
G01X3448504Y-320000D03*
G01X3348504Y-320000D03*
G01X3388504Y-1100000D03*
G01X3438504Y-1100000D03*
G01X3338504Y-1100000D03*
G54D26*
G01X3042504Y-270000D03*
G01X3104504Y-270000D03*
G54D27*
G01X2608504Y-301000D03*
G01X2608504Y-239000D03*
G54D28*
G01X2393504Y-249000D03*
G01X2393504Y-311000D03*
G54D27*
G01X3223504Y-231000D03*
G01X3223504Y-169000D03*
G54D26*
G01X2977504Y-840000D03*
G01X3039504Y-840000D03*
G54D29*
G01X3115253Y-706575D03*
G01X3115253Y-663265D03*
G01X3115253Y-619965D03*
G01X3115253Y-590435D03*
G01X3115253Y-533345D03*
G01X3115253Y-490045D03*
G01X3115253Y-446735D03*
G01X3115253Y-403425D03*
G01X3115253Y-562875D03*
G54D30*
G01X3046944Y-354215D03*
G01X2871754Y-354215D03*
G01X2871754Y-755785D03*
G01X3046944Y-755785D03*
G54D28*
G01X2468504Y-804000D03*
G01X2468504Y-866000D03*
G54D31*
G01X2393504Y-807441D03*
G01X2393504Y-862559D03*
G54D27*
G01X2378504Y-451000D03*
G01X2378504Y-389000D03*
G54D32*
G01X2588504Y-442559D03*
G01X2588504Y-387441D03*
G54D27*
G01X2653504Y-446000D03*
G01X2653504Y-384000D03*
G54D32*
G01X2508504Y-702559D03*
G01X2508504Y-647441D03*
G54D27*
G01X2583504Y-706000D03*
G01X2583504Y-644000D03*
G01X2458504Y-451000D03*
G01X2458504Y-389000D03*
G54D32*
G01X2523504Y-442559D03*
G01X2523504Y-387441D03*
G54D33*
G01X2230945Y-625000D03*
G01X2286063Y-625000D03*
G54D26*
G01X2227504Y-695000D03*
G01X2289504Y-695000D03*
G01X2449504Y-690000D03*
G01X2387504Y-690000D03*
G54D33*
G01X2441063Y-630000D03*
G01X2385945Y-630000D03*
G54D26*
G01X2714504Y-565000D03*
G01X2652504Y-565000D03*
G54D33*
G01X2711063Y-500000D03*
G01X2655945Y-500000D03*
G54D26*
G01X2439504Y-515000D03*
G01X2377504Y-515000D03*
G54D33*
G01X2436063Y-575000D03*
G01X2380945Y-575000D03*
G54D26*
G01X2714504Y-695000D03*
G01X2652504Y-695000D03*
G54D33*
G01X2711063Y-630000D03*
G01X2655945Y-630000D03*
G54D22*
G01X2063504Y-1070000D03*
G01X2063504Y-970000D03*
G01X2063504Y-870000D03*
G01X2063504Y-770000D03*
G01X2063504Y-670000D03*
G01X2063504Y-570000D03*
G01X2063504Y-470000D03*
G01X2063504Y-370000D03*
G01X2063504Y-270000D03*
G01X2063504Y-170000D03*
G01X0000000Y0000000D02*
G36*
G01X0699260Y-288580D02*
G01X0697280Y-290560D01*
G01X0697280Y-322040D01*
G01X0699260Y-324020D01*
G01X0730740Y-324020D01*
G01X0732720Y-322040D01*
G01X0732720Y-290560D01*
G01X0730740Y-288580D01*
G01X0721220Y-288580D01*
G01X0721220Y-303160D01*
G01X0708220Y-303160D01*
G01X0708220Y-288580D01*
G37*
G36*
G01X0699260Y-225980D02*
G01X0697280Y-227960D01*
G01X0697280Y-259440D01*
G01X0699260Y-261420D01*
G01X0708780Y-261420D01*
G01X0708780Y-246840D01*
G01X0721780Y-246840D01*
G01X0721780Y-261420D01*
G01X0730740Y-261420D01*
G01X0732720Y-259440D01*
G01X0732720Y-227960D01*
G01X0730740Y-225980D01*
G37*
G36*
G01X1250560Y-262280D02*
G01X1248580Y-264260D01*
G01X1248580Y-273780D01*
G01X1263140Y-273780D01*
G01X1263140Y-286780D01*
G01X1248580Y-286780D01*
G01X1248580Y-295740D01*
G01X1250560Y-297720D01*
G01X1282040Y-297720D01*
G01X1284020Y-295740D01*
G01X1284020Y-264260D01*
G01X1282040Y-262280D01*
G37*
G36*
G01X1187960Y-262280D02*
G01X1185980Y-264260D01*
G01X1185980Y-295740D01*
G01X1187960Y-297720D01*
G01X1219440Y-297720D01*
G01X1221420Y-295740D01*
G01X1221420Y-286220D01*
G01X1206860Y-286220D01*
G01X1206860Y-273220D01*
G01X1221420Y-273220D01*
G01X1221420Y-264260D01*
G01X1219440Y-262280D01*
G37*
G36*
G01X1404260Y-575980D02*
G01X1402280Y-577960D01*
G01X1402280Y-609440D01*
G01X1404260Y-611420D01*
G01X1413780Y-611420D01*
G01X1413780Y-596840D01*
G01X1426780Y-596840D01*
G01X1426780Y-611420D01*
G01X1435740Y-611420D01*
G01X1437720Y-609440D01*
G01X1437720Y-577960D01*
G01X1435740Y-575980D01*
G37*
G36*
G01X1404260Y-638580D02*
G01X1402280Y-640560D01*
G01X1402280Y-672040D01*
G01X1404260Y-674020D01*
G01X1435740Y-674020D01*
G01X1437720Y-672040D01*
G01X1437720Y-640560D01*
G01X1435740Y-638580D01*
G01X1426220Y-638580D01*
G01X1426220Y-653160D01*
G01X1413220Y-653160D01*
G01X1413220Y-638580D01*
G37*
G36*
G01X1459260Y-998580D02*
G01X1457280Y-1000560D01*
G01X1457280Y-1032040D01*
G01X1459260Y-1034020D01*
G01X1490740Y-1034020D01*
G01X1492720Y-1032040D01*
G01X1492720Y-1000560D01*
G01X1490740Y-998580D01*
G01X1481220Y-998580D01*
G01X1481220Y-1013160D01*
G01X1468220Y-1013160D01*
G01X1468220Y-998580D01*
G37*
G36*
G01X1459260Y-935980D02*
G01X1457280Y-937960D01*
G01X1457280Y-969440D01*
G01X1459260Y-971420D01*
G01X1468780Y-971420D01*
G01X1468780Y-956840D01*
G01X1481780Y-956840D01*
G01X1481780Y-971420D01*
G01X1490740Y-971420D01*
G01X1492720Y-969440D01*
G01X1492720Y-937960D01*
G01X1490740Y-935980D01*
G37*
G36*
G01X1349260Y-998580D02*
G01X1347280Y-1000560D01*
G01X1347280Y-1032040D01*
G01X1349260Y-1034020D01*
G01X1380740Y-1034020D01*
G01X1382720Y-1032040D01*
G01X1382720Y-1000560D01*
G01X1380740Y-998580D01*
G01X1371220Y-998580D01*
G01X1371220Y-1013160D01*
G01X1358220Y-1013160D01*
G01X1358220Y-998580D01*
G37*
G36*
G01X1349260Y-935980D02*
G01X1347280Y-937960D01*
G01X1347280Y-969440D01*
G01X1349260Y-971420D01*
G01X1358780Y-971420D01*
G01X1358780Y-956840D01*
G01X1371780Y-956840D01*
G01X1371780Y-971420D01*
G01X1380740Y-971420D01*
G01X1382720Y-969440D01*
G01X1382720Y-937960D01*
G01X1380740Y-935980D01*
G37*
G36*
G01X0410780Y-818000D02*
G01X0409480Y-818160D01*
G01X0408220Y-818620D01*
G01X0407140Y-819380D01*
G01X0406660Y-819840D01*
G01X0405900Y-820940D01*
G01X0405440Y-822180D01*
G01X0405280Y-823500D01*
G01X0405320Y-844640D01*
G01X0405640Y-845940D01*
G01X0405900Y-846540D01*
G01X0406660Y-847640D01*
G01X0407660Y-848520D01*
G01X0408840Y-849120D01*
G01X0410120Y-849440D01*
G01X0411460Y-849440D01*
G01X0412740Y-849120D01*
G01X0413920Y-848520D01*
G01X0414920Y-847640D01*
G01X0415680Y-846540D01*
G01X0416140Y-845300D01*
G01X0416300Y-843980D01*
G01X0416260Y-822840D01*
G01X0415940Y-821540D01*
G01X0415680Y-820940D01*
G01X0414920Y-819840D01*
G01X0413920Y-818960D01*
G01X0412740Y-818360D01*
G01X0411460Y-818040D01*
G37*
G36*
G01X0430480Y-818000D02*
G01X0429160Y-818160D01*
G01X0427900Y-818620D01*
G01X0426820Y-819380D01*
G01X0426340Y-819840D01*
G01X0425580Y-820940D01*
G01X0425120Y-822180D01*
G01X0424960Y-823500D01*
G01X0425000Y-844640D01*
G01X0425320Y-845940D01*
G01X0425580Y-846540D01*
G01X0426340Y-847640D01*
G01X0427340Y-848520D01*
G01X0428520Y-849120D01*
G01X0429800Y-849440D01*
G01X0431140Y-849440D01*
G01X0432420Y-849120D01*
G01X0433600Y-848520D01*
G01X0434600Y-847640D01*
G01X0435360Y-846540D01*
G01X0435820Y-845300D01*
G01X0435980Y-843980D01*
G01X0435940Y-822840D01*
G01X0435620Y-821540D01*
G01X0435360Y-820940D01*
G01X0434600Y-819840D01*
G01X0433600Y-818960D01*
G01X0432420Y-818360D01*
G01X0431140Y-818040D01*
G37*
G36*
G01X0450160Y-818000D02*
G01X0448840Y-818160D01*
G01X0447600Y-818620D01*
G01X0446500Y-819380D01*
G01X0445620Y-820380D01*
G01X0445000Y-821540D01*
G01X0444680Y-822840D01*
G01X0444640Y-843980D01*
G01X0444800Y-845300D01*
G01X0445280Y-846540D01*
G01X0446040Y-847640D01*
G01X0447020Y-848520D01*
G01X0448200Y-849120D01*
G01X0449500Y-849440D01*
G01X0450820Y-849440D01*
G01X0452120Y-849120D01*
G01X0453300Y-848520D01*
G01X0454280Y-847640D01*
G01X0455040Y-846540D01*
G01X0455520Y-845300D01*
G01X0455680Y-843980D01*
G01X0455640Y-822840D01*
G01X0455320Y-821540D01*
G01X0454700Y-820380D01*
G01X0453820Y-819380D01*
G01X0452720Y-818620D01*
G01X0451480Y-818160D01*
G37*
G36*
G01X0469840Y-818000D02*
G01X0468520Y-818160D01*
G01X0467280Y-818620D01*
G01X0466180Y-819380D01*
G01X0465300Y-820380D01*
G01X0464680Y-821540D01*
G01X0464360Y-822840D01*
G01X0464320Y-843980D01*
G01X0464480Y-845300D01*
G01X0464960Y-846540D01*
G01X0465720Y-847640D01*
G01X0466700Y-848520D01*
G01X0467880Y-849120D01*
G01X0469180Y-849440D01*
G01X0470500Y-849440D01*
G01X0471800Y-849120D01*
G01X0472980Y-848520D01*
G01X0473960Y-847640D01*
G01X0474720Y-846540D01*
G01X0475200Y-845300D01*
G01X0475360Y-843980D01*
G01X0475320Y-822840D01*
G01X0475000Y-821540D01*
G01X0474380Y-820380D01*
G01X0473500Y-819380D01*
G01X0472400Y-818620D01*
G01X0471160Y-818160D01*
G37*
G36*
G01X0489520Y-818000D02*
G01X0488220Y-818160D01*
G01X0486960Y-818620D01*
G01X0485880Y-819380D01*
G01X0485400Y-819840D01*
G01X0484640Y-820940D01*
G01X0484180Y-822180D01*
G01X0484020Y-823500D01*
G01X0484060Y-844640D01*
G01X0484380Y-845940D01*
G01X0484640Y-846540D01*
G01X0485400Y-847640D01*
G01X0486400Y-848520D01*
G01X0487580Y-849120D01*
G01X0488860Y-849440D01*
G01X0490200Y-849440D01*
G01X0491480Y-849120D01*
G01X0492660Y-848520D01*
G01X0493660Y-847640D01*
G01X0494420Y-846540D01*
G01X0494880Y-845300D01*
G01X0495040Y-843980D01*
G01X0495000Y-822840D01*
G01X0494680Y-821540D01*
G01X0494420Y-820940D01*
G01X0493660Y-819840D01*
G01X0492660Y-818960D01*
G01X0491480Y-818360D01*
G01X0490200Y-818040D01*
G37*
G36*
G01X0509220Y-818000D02*
G01X0507900Y-818160D01*
G01X0506640Y-818620D01*
G01X0505560Y-819380D01*
G01X0505080Y-819840D01*
G01X0504320Y-820940D01*
G01X0503860Y-822180D01*
G01X0503700Y-823500D01*
G01X0503740Y-844640D01*
G01X0504060Y-845940D01*
G01X0504320Y-846540D01*
G01X0505080Y-847640D01*
G01X0506080Y-848520D01*
G01X0507260Y-849120D01*
G01X0508540Y-849440D01*
G01X0509880Y-849440D01*
G01X0511160Y-849120D01*
G01X0512340Y-848520D01*
G01X0513340Y-847640D01*
G01X0514100Y-846540D01*
G01X0514560Y-845300D01*
G01X0514720Y-843980D01*
G01X0514680Y-822840D01*
G01X0514360Y-821540D01*
G01X0514100Y-820940D01*
G01X0513340Y-819840D01*
G01X0512340Y-818960D01*
G01X0511160Y-818360D01*
G01X0509880Y-818040D01*
G37*
G36*
G01X0528500Y-798380D02*
G01X0527180Y-798540D01*
G01X0525940Y-799020D01*
G01X0524840Y-799780D01*
G01X0523960Y-800760D01*
G01X0523360Y-801940D01*
G01X0523040Y-803240D01*
G01X0523040Y-804560D01*
G01X0523360Y-805860D01*
G01X0523960Y-807040D01*
G01X0524840Y-808020D01*
G01X0525940Y-808780D01*
G01X0527180Y-809260D01*
G01X0528500Y-809420D01*
G01X0549640Y-809380D01*
G01X0550940Y-809060D01*
G01X0552100Y-808440D01*
G01X0553100Y-807560D01*
G01X0553860Y-806460D01*
G01X0554320Y-805220D01*
G01X0554480Y-803900D01*
G01X0554320Y-802580D01*
G01X0553860Y-801340D01*
G01X0553100Y-800240D01*
G01X0552100Y-799360D01*
G01X0550940Y-798740D01*
G01X0549640Y-798420D01*
G37*
G36*
G01X0528500Y-779020D02*
G01X0527180Y-779180D01*
G01X0525940Y-779640D01*
G01X0524840Y-780400D01*
G01X0523960Y-781400D01*
G01X0523360Y-782580D01*
G01X0523040Y-783860D01*
G01X0523040Y-785200D01*
G01X0523360Y-786480D01*
G01X0523960Y-787660D01*
G01X0524840Y-788660D01*
G01X0525940Y-789420D01*
G01X0527180Y-789880D01*
G01X0528500Y-790040D01*
G01X0549640Y-790000D01*
G01X0550940Y-789680D01*
G01X0551540Y-789420D01*
G01X0552640Y-788660D01*
G01X0553520Y-787660D01*
G01X0554120Y-786480D01*
G01X0554440Y-785200D01*
G01X0554440Y-783860D01*
G01X0554120Y-782580D01*
G01X0553520Y-781400D01*
G01X0552640Y-780400D01*
G01X0551540Y-779640D01*
G01X0550300Y-779180D01*
G01X0548980Y-779020D01*
G37*
G36*
G01X0528500Y-759320D02*
G01X0527180Y-759480D01*
G01X0525940Y-759960D01*
G01X0524840Y-760720D01*
G01X0523960Y-761700D01*
G01X0523360Y-762880D01*
G01X0523040Y-764180D01*
G01X0523040Y-765500D01*
G01X0523360Y-766800D01*
G01X0523960Y-767980D01*
G01X0524840Y-768960D01*
G01X0525940Y-769720D01*
G01X0527180Y-770200D01*
G01X0528500Y-770360D01*
G01X0549640Y-770320D01*
G01X0550940Y-770000D01*
G01X0552100Y-769380D01*
G01X0553100Y-768500D01*
G01X0553860Y-767400D01*
G01X0554320Y-766160D01*
G01X0554480Y-764840D01*
G01X0554320Y-763520D01*
G01X0553860Y-762280D01*
G01X0553100Y-761180D01*
G01X0552100Y-760300D01*
G01X0550940Y-759680D01*
G01X0549640Y-759360D01*
G37*
G36*
G01X0528500Y-739640D02*
G01X0527180Y-739800D01*
G01X0525940Y-740280D01*
G01X0524840Y-741040D01*
G01X0523960Y-742020D01*
G01X0523360Y-743200D01*
G01X0523040Y-744500D01*
G01X0523040Y-745820D01*
G01X0523360Y-747120D01*
G01X0523960Y-748300D01*
G01X0524840Y-749280D01*
G01X0525940Y-750040D01*
G01X0527180Y-750520D01*
G01X0528500Y-750680D01*
G01X0549640Y-750640D01*
G01X0550940Y-750320D01*
G01X0552100Y-749700D01*
G01X0553100Y-748820D01*
G01X0553860Y-747720D01*
G01X0554320Y-746480D01*
G01X0554480Y-745160D01*
G01X0554320Y-743840D01*
G01X0553860Y-742600D01*
G01X0553100Y-741500D01*
G01X0552100Y-740620D01*
G01X0550940Y-740000D01*
G01X0549640Y-739680D01*
G37*
G36*
G01X0528500Y-719960D02*
G01X0527180Y-720120D01*
G01X0525940Y-720580D01*
G01X0524840Y-721340D01*
G01X0523960Y-722340D01*
G01X0523360Y-723520D01*
G01X0523040Y-724800D01*
G01X0523040Y-726140D01*
G01X0523360Y-727420D01*
G01X0523960Y-728600D01*
G01X0524840Y-729600D01*
G01X0525940Y-730360D01*
G01X0527180Y-730820D01*
G01X0528500Y-730980D01*
G01X0549640Y-730940D01*
G01X0550940Y-730620D01*
G01X0551540Y-730360D01*
G01X0552640Y-729600D01*
G01X0553520Y-728600D01*
G01X0554120Y-727420D01*
G01X0554440Y-726140D01*
G01X0554440Y-724800D01*
G01X0554120Y-723520D01*
G01X0553520Y-722340D01*
G01X0552640Y-721340D01*
G01X0551540Y-720580D01*
G01X0550300Y-720120D01*
G01X0548980Y-719960D01*
G37*
G36*
G01X0528500Y-700280D02*
G01X0527180Y-700440D01*
G01X0525940Y-700900D01*
G01X0524840Y-701660D01*
G01X0523960Y-702660D01*
G01X0523360Y-703840D01*
G01X0523040Y-705120D01*
G01X0523040Y-706460D01*
G01X0523360Y-707740D01*
G01X0523960Y-708920D01*
G01X0524840Y-709920D01*
G01X0525940Y-710680D01*
G01X0527180Y-711140D01*
G01X0528500Y-711300D01*
G01X0549640Y-711260D01*
G01X0550940Y-710940D01*
G01X0551540Y-710680D01*
G01X0552640Y-709920D01*
G01X0553520Y-708920D01*
G01X0554120Y-707740D01*
G01X0554440Y-706460D01*
G01X0554440Y-705120D01*
G01X0554120Y-703840D01*
G01X0553520Y-702660D01*
G01X0552640Y-701660D01*
G01X0551540Y-700900D01*
G01X0550300Y-700440D01*
G01X0548980Y-700280D01*
G37*
G36*
G01X0509220Y-660520D02*
G01X0507900Y-660680D01*
G01X0506640Y-661140D01*
G01X0505560Y-661900D01*
G01X0505080Y-662360D01*
G01X0504320Y-663460D01*
G01X0503860Y-664700D01*
G01X0503700Y-666020D01*
G01X0503740Y-687160D01*
G01X0504060Y-688460D01*
G01X0504320Y-689060D01*
G01X0505080Y-690160D01*
G01X0506080Y-691040D01*
G01X0507260Y-691640D01*
G01X0508540Y-691960D01*
G01X0509880Y-691960D01*
G01X0511160Y-691640D01*
G01X0512340Y-691040D01*
G01X0513340Y-690160D01*
G01X0514100Y-689060D01*
G01X0514560Y-687820D01*
G01X0514720Y-686500D01*
G01X0514680Y-665360D01*
G01X0514360Y-664060D01*
G01X0514100Y-663460D01*
G01X0513340Y-662360D01*
G01X0512340Y-661480D01*
G01X0511160Y-660880D01*
G01X0509880Y-660560D01*
G37*
G36*
G01X0489520Y-660520D02*
G01X0488220Y-660680D01*
G01X0486960Y-661140D01*
G01X0485880Y-661900D01*
G01X0485400Y-662360D01*
G01X0484640Y-663460D01*
G01X0484180Y-664700D01*
G01X0484020Y-666020D01*
G01X0484060Y-687160D01*
G01X0484380Y-688460D01*
G01X0484640Y-689060D01*
G01X0485400Y-690160D01*
G01X0486400Y-691040D01*
G01X0487580Y-691640D01*
G01X0488860Y-691960D01*
G01X0490200Y-691960D01*
G01X0491480Y-691640D01*
G01X0492660Y-691040D01*
G01X0493660Y-690160D01*
G01X0494420Y-689060D01*
G01X0494880Y-687820D01*
G01X0495040Y-686500D01*
G01X0495000Y-665360D01*
G01X0494680Y-664060D01*
G01X0494420Y-663460D01*
G01X0493660Y-662360D01*
G01X0492660Y-661480D01*
G01X0491480Y-660880D01*
G01X0490200Y-660560D01*
G37*
G36*
G01X0469840Y-660520D02*
G01X0468520Y-660680D01*
G01X0467280Y-661140D01*
G01X0466180Y-661900D01*
G01X0465300Y-662900D01*
G01X0464680Y-664060D01*
G01X0464360Y-665360D01*
G01X0464320Y-686500D01*
G01X0464480Y-687820D01*
G01X0464960Y-689060D01*
G01X0465720Y-690160D01*
G01X0466700Y-691040D01*
G01X0467880Y-691640D01*
G01X0469180Y-691960D01*
G01X0470500Y-691960D01*
G01X0471800Y-691640D01*
G01X0472980Y-691040D01*
G01X0473960Y-690160D01*
G01X0474720Y-689060D01*
G01X0475200Y-687820D01*
G01X0475360Y-686500D01*
G01X0475320Y-665360D01*
G01X0475000Y-664060D01*
G01X0474380Y-662900D01*
G01X0473500Y-661900D01*
G01X0472400Y-661140D01*
G01X0471160Y-660680D01*
G37*
G36*
G01X0450160Y-660520D02*
G01X0448840Y-660680D01*
G01X0447600Y-661140D01*
G01X0446500Y-661900D01*
G01X0445620Y-662900D01*
G01X0445000Y-664060D01*
G01X0444680Y-665360D01*
G01X0444640Y-686500D01*
G01X0444800Y-687820D01*
G01X0445280Y-689060D01*
G01X0446040Y-690160D01*
G01X0447020Y-691040D01*
G01X0448200Y-691640D01*
G01X0449500Y-691960D01*
G01X0450820Y-691960D01*
G01X0452120Y-691640D01*
G01X0453300Y-691040D01*
G01X0454280Y-690160D01*
G01X0455040Y-689060D01*
G01X0455520Y-687820D01*
G01X0455680Y-686500D01*
G01X0455640Y-665360D01*
G01X0455320Y-664060D01*
G01X0454700Y-662900D01*
G01X0453820Y-661900D01*
G01X0452720Y-661140D01*
G01X0451480Y-660680D01*
G37*
G36*
G01X0430480Y-660520D02*
G01X0429160Y-660680D01*
G01X0427900Y-661140D01*
G01X0426820Y-661900D01*
G01X0426340Y-662360D01*
G01X0425580Y-663460D01*
G01X0425120Y-664700D01*
G01X0424960Y-666020D01*
G01X0425000Y-687160D01*
G01X0425320Y-688460D01*
G01X0425580Y-689060D01*
G01X0426340Y-690160D01*
G01X0427340Y-691040D01*
G01X0428520Y-691640D01*
G01X0429800Y-691960D01*
G01X0431140Y-691960D01*
G01X0432420Y-691640D01*
G01X0433600Y-691040D01*
G01X0434600Y-690160D01*
G01X0435360Y-689060D01*
G01X0435820Y-687820D01*
G01X0435980Y-686500D01*
G01X0435940Y-665360D01*
G01X0435620Y-664060D01*
G01X0435360Y-663460D01*
G01X0434600Y-662360D01*
G01X0433600Y-661480D01*
G01X0432420Y-660880D01*
G01X0431140Y-660560D01*
G37*
G36*
G01X0410780Y-660520D02*
G01X0409480Y-660680D01*
G01X0408220Y-661140D01*
G01X0407140Y-661900D01*
G01X0406660Y-662360D01*
G01X0405900Y-663460D01*
G01X0405440Y-664700D01*
G01X0405280Y-666020D01*
G01X0405320Y-687160D01*
G01X0405640Y-688460D01*
G01X0405900Y-689060D01*
G01X0406660Y-690160D01*
G01X0407660Y-691040D01*
G01X0408840Y-691640D01*
G01X0410120Y-691960D01*
G01X0411460Y-691960D01*
G01X0412740Y-691640D01*
G01X0413920Y-691040D01*
G01X0414920Y-690160D01*
G01X0415680Y-689060D01*
G01X0416140Y-687820D01*
G01X0416300Y-686500D01*
G01X0416260Y-665360D01*
G01X0415940Y-664060D01*
G01X0415680Y-663460D01*
G01X0414920Y-662360D01*
G01X0413920Y-661480D01*
G01X0412740Y-660880D01*
G01X0411460Y-660560D01*
G37*
G36*
G01X0371020Y-700280D02*
G01X0369700Y-700440D01*
G01X0368460Y-700900D01*
G01X0367360Y-701660D01*
G01X0366480Y-702660D01*
G01X0365880Y-703840D01*
G01X0365560Y-705120D01*
G01X0365560Y-706460D01*
G01X0365880Y-707740D01*
G01X0366480Y-708920D01*
G01X0367360Y-709920D01*
G01X0368460Y-710680D01*
G01X0369700Y-711140D01*
G01X0371020Y-711300D01*
G01X0392160Y-711260D01*
G01X0393460Y-710940D01*
G01X0394060Y-710680D01*
G01X0395160Y-709920D01*
G01X0396040Y-708920D01*
G01X0396640Y-707740D01*
G01X0396960Y-706460D01*
G01X0396960Y-705120D01*
G01X0396640Y-703840D01*
G01X0396040Y-702660D01*
G01X0395160Y-701660D01*
G01X0394060Y-700900D01*
G01X0392820Y-700440D01*
G01X0391500Y-700280D01*
G37*
G36*
G01X0371020Y-719960D02*
G01X0369700Y-720120D01*
G01X0368460Y-720580D01*
G01X0367360Y-721340D01*
G01X0366480Y-722340D01*
G01X0365880Y-723520D01*
G01X0365560Y-724800D01*
G01X0365560Y-726140D01*
G01X0365880Y-727420D01*
G01X0366480Y-728600D01*
G01X0367360Y-729600D01*
G01X0368460Y-730360D01*
G01X0369700Y-730820D01*
G01X0371020Y-730980D01*
G01X0392160Y-730940D01*
G01X0393460Y-730620D01*
G01X0394060Y-730360D01*
G01X0395160Y-729600D01*
G01X0396040Y-728600D01*
G01X0396640Y-727420D01*
G01X0396960Y-726140D01*
G01X0396960Y-724800D01*
G01X0396640Y-723520D01*
G01X0396040Y-722340D01*
G01X0395160Y-721340D01*
G01X0394060Y-720580D01*
G01X0392820Y-720120D01*
G01X0391500Y-719960D01*
G37*
G36*
G01X0371020Y-739640D02*
G01X0369700Y-739800D01*
G01X0368460Y-740280D01*
G01X0367360Y-741040D01*
G01X0366480Y-742020D01*
G01X0365880Y-743200D01*
G01X0365560Y-744500D01*
G01X0365560Y-745820D01*
G01X0365880Y-747120D01*
G01X0366480Y-748300D01*
G01X0367360Y-749280D01*
G01X0368460Y-750040D01*
G01X0369700Y-750520D01*
G01X0371020Y-750680D01*
G01X0392160Y-750640D01*
G01X0393460Y-750320D01*
G01X0394620Y-749700D01*
G01X0395620Y-748820D01*
G01X0396380Y-747720D01*
G01X0396840Y-746480D01*
G01X0397000Y-745160D01*
G01X0396840Y-743840D01*
G01X0396380Y-742600D01*
G01X0395620Y-741500D01*
G01X0394620Y-740620D01*
G01X0393460Y-740000D01*
G01X0392160Y-739680D01*
G37*
G36*
G01X0371020Y-759320D02*
G01X0369700Y-759480D01*
G01X0368460Y-759960D01*
G01X0367360Y-760720D01*
G01X0366480Y-761700D01*
G01X0365880Y-762880D01*
G01X0365560Y-764180D01*
G01X0365560Y-765500D01*
G01X0365880Y-766800D01*
G01X0366480Y-767980D01*
G01X0367360Y-768960D01*
G01X0368460Y-769720D01*
G01X0369700Y-770200D01*
G01X0371020Y-770360D01*
G01X0392160Y-770320D01*
G01X0393460Y-770000D01*
G01X0394620Y-769380D01*
G01X0395620Y-768500D01*
G01X0396380Y-767400D01*
G01X0396840Y-766160D01*
G01X0397000Y-764840D01*
G01X0396840Y-763520D01*
G01X0396380Y-762280D01*
G01X0395620Y-761180D01*
G01X0394620Y-760300D01*
G01X0393460Y-759680D01*
G01X0392160Y-759360D01*
G37*
G36*
G01X0371020Y-779020D02*
G01X0369700Y-779180D01*
G01X0368460Y-779640D01*
G01X0367360Y-780400D01*
G01X0366480Y-781400D01*
G01X0365880Y-782580D01*
G01X0365560Y-783860D01*
G01X0365560Y-785200D01*
G01X0365880Y-786480D01*
G01X0366480Y-787660D01*
G01X0367360Y-788660D01*
G01X0368460Y-789420D01*
G01X0369700Y-789880D01*
G01X0371020Y-790040D01*
G01X0392160Y-790000D01*
G01X0393460Y-789680D01*
G01X0394060Y-789420D01*
G01X0395160Y-788660D01*
G01X0396040Y-787660D01*
G01X0396640Y-786480D01*
G01X0396960Y-785200D01*
G01X0396960Y-783860D01*
G01X0396640Y-782580D01*
G01X0396040Y-781400D01*
G01X0395160Y-780400D01*
G01X0394060Y-779640D01*
G01X0392820Y-779180D01*
G01X0391500Y-779020D01*
G37*
G36*
G01X0371020Y-798700D02*
G01X0369700Y-798860D01*
G01X0368460Y-799320D01*
G01X0367360Y-800080D01*
G01X0366480Y-801080D01*
G01X0365880Y-802260D01*
G01X0365560Y-803540D01*
G01X0365560Y-804880D01*
G01X0365880Y-806160D01*
G01X0366480Y-807340D01*
G01X0367360Y-808340D01*
G01X0368460Y-809100D01*
G01X0369700Y-809560D01*
G01X0371020Y-809720D01*
G01X0392160Y-809680D01*
G01X0393460Y-809360D01*
G01X0394060Y-809100D01*
G01X0395160Y-808340D01*
G01X0396040Y-807340D01*
G01X0396640Y-806160D01*
G01X0396960Y-804880D01*
G01X0396960Y-803540D01*
G01X0396640Y-802260D01*
G01X0396040Y-801080D01*
G01X0395160Y-800080D01*
G01X0394060Y-799320D01*
G01X0392820Y-798860D01*
G01X0391500Y-798700D01*
G37*
G36*
G01X0417480Y-712000D02*
G01X0417480Y-797020D01*
G01X0502520Y-797020D01*
G01X0502520Y-712000D01*
G37*
G36*
G01X0690471Y-849533D02*
G01X0690471Y-869218D01*
G01X0690520Y-870757D01*
G01X0690649Y-872292D01*
G01X0690859Y-873818D01*
G01X0691147Y-875331D01*
G01X0691514Y-876827D01*
G01X0691958Y-878301D01*
G01X0692479Y-879751D01*
G01X0693075Y-881171D01*
G01X0693744Y-882559D01*
G01X0694484Y-883909D01*
G01X0695294Y-885219D01*
G01X0696171Y-886486D01*
G01X0697112Y-887704D01*
G01X0698116Y-888872D01*
G01X0699180Y-889986D01*
G01X0700300Y-891043D01*
G01X0701474Y-892041D01*
G01X0702698Y-892975D01*
G01X0703969Y-893845D01*
G01X0705284Y-894647D01*
G01X0706639Y-895379D01*
G01X0708030Y-896040D01*
G01X0709454Y-896627D01*
G01X0710907Y-897140D01*
G01X0712384Y-897575D01*
G01X0713882Y-897934D01*
G01X0715396Y-898213D01*
G01X0716923Y-898414D01*
G01X0718459Y-898534D01*
G01X0719999Y-898574D01*
G01X0721538Y-898534D01*
G01X0723074Y-898414D01*
G01X0724601Y-898213D01*
G01X0726115Y-897934D01*
G01X0727613Y-897575D01*
G01X0729090Y-897140D01*
G01X0730543Y-896627D01*
G01X0731967Y-896040D01*
G01X0733358Y-895379D01*
G01X0734713Y-894647D01*
G01X0736028Y-893845D01*
G01X0737299Y-892975D01*
G01X0738523Y-892041D01*
G01X0739697Y-891043D01*
G01X0740817Y-889986D01*
G01X0741881Y-888872D01*
G01X0742885Y-887704D01*
G01X0743826Y-886486D01*
G01X0744703Y-885219D01*
G01X0745513Y-883909D01*
G01X0746253Y-882559D01*
G01X0746922Y-881171D01*
G01X0747518Y-879751D01*
G01X0748039Y-878301D01*
G01X0748483Y-876827D01*
G01X0748850Y-875331D01*
G01X0749138Y-873818D01*
G01X0749348Y-872292D01*
G01X0749477Y-870757D01*
G01X0749526Y-869218D01*
G01X0749526Y-849533D01*
G37*
G36*
G01X0749525Y-839520D02*
G01X0749525Y-819835D01*
G01X0749476Y-818296D01*
G01X0749347Y-816761D01*
G01X0749137Y-815235D01*
G01X0748849Y-813722D01*
G01X0748482Y-812226D01*
G01X0748038Y-810752D01*
G01X0747517Y-809302D01*
G01X0746921Y-807882D01*
G01X0746252Y-806494D01*
G01X0745512Y-805144D01*
G01X0744702Y-803834D01*
G01X0743825Y-802567D01*
G01X0742884Y-801349D01*
G01X0741880Y-800181D01*
G01X0740816Y-799067D01*
G01X0739696Y-798010D01*
G01X0738522Y-797012D01*
G01X0737298Y-796078D01*
G01X0736027Y-795208D01*
G01X0734712Y-794406D01*
G01X0733357Y-793674D01*
G01X0731966Y-793013D01*
G01X0730542Y-792426D01*
G01X0729089Y-791913D01*
G01X0727612Y-791478D01*
G01X0726114Y-791119D01*
G01X0724600Y-790840D01*
G01X0723073Y-790639D01*
G01X0721537Y-790519D01*
G01X0719997Y-790479D01*
G01X0718458Y-790519D01*
G01X0716922Y-790639D01*
G01X0715395Y-790840D01*
G01X0713881Y-791119D01*
G01X0712383Y-791478D01*
G01X0710906Y-791913D01*
G01X0709453Y-792426D01*
G01X0708029Y-793013D01*
G01X0706638Y-793674D01*
G01X0705283Y-794406D01*
G01X0703968Y-795208D01*
G01X0702697Y-796078D01*
G01X0701473Y-797012D01*
G01X0700299Y-798010D01*
G01X0699179Y-799067D01*
G01X0698115Y-800181D01*
G01X0697111Y-801349D01*
G01X0696170Y-802567D01*
G01X0695293Y-803834D01*
G01X0694483Y-805144D01*
G01X0693743Y-806494D01*
G01X0693074Y-807882D01*
G01X0692478Y-809302D01*
G01X0691957Y-810752D01*
G01X0691513Y-812226D01*
G01X0691146Y-813722D01*
G01X0690858Y-815235D01*
G01X0690648Y-816761D01*
G01X0690519Y-818296D01*
G01X0690470Y-819835D01*
G01X0690470Y-839520D01*
G37*
G36*
G01X0544529Y-280467D02*
G01X0544529Y-260782D01*
G01X0544480Y-259243D01*
G01X0544351Y-257708D01*
G01X0544141Y-256182D01*
G01X0543853Y-254669D01*
G01X0543486Y-253173D01*
G01X0543042Y-251699D01*
G01X0542521Y-250249D01*
G01X0541925Y-248829D01*
G01X0541256Y-247441D01*
G01X0540516Y-246091D01*
G01X0539706Y-244781D01*
G01X0538829Y-243514D01*
G01X0537888Y-242296D01*
G01X0536884Y-241128D01*
G01X0535820Y-240014D01*
G01X0534700Y-238957D01*
G01X0533526Y-237959D01*
G01X0532302Y-237025D01*
G01X0531031Y-236155D01*
G01X0529716Y-235353D01*
G01X0528361Y-234621D01*
G01X0526970Y-233960D01*
G01X0525546Y-233373D01*
G01X0524093Y-232860D01*
G01X0522616Y-232425D01*
G01X0521118Y-232066D01*
G01X0519604Y-231787D01*
G01X0518077Y-231586D01*
G01X0516541Y-231466D01*
G01X0515001Y-231426D01*
G01X0513462Y-231466D01*
G01X0511926Y-231586D01*
G01X0510399Y-231787D01*
G01X0508885Y-232066D01*
G01X0507387Y-232425D01*
G01X0505910Y-232860D01*
G01X0504457Y-233373D01*
G01X0503033Y-233960D01*
G01X0501642Y-234621D01*
G01X0500287Y-235353D01*
G01X0498972Y-236155D01*
G01X0497701Y-237025D01*
G01X0496477Y-237959D01*
G01X0495303Y-238957D01*
G01X0494183Y-240014D01*
G01X0493119Y-241128D01*
G01X0492115Y-242296D01*
G01X0491174Y-243514D01*
G01X0490297Y-244781D01*
G01X0489487Y-246091D01*
G01X0488747Y-247441D01*
G01X0488078Y-248829D01*
G01X0487482Y-250249D01*
G01X0486961Y-251699D01*
G01X0486517Y-253173D01*
G01X0486150Y-254669D01*
G01X0485862Y-256182D01*
G01X0485652Y-257708D01*
G01X0485523Y-259243D01*
G01X0485474Y-260782D01*
G01X0485474Y-280467D01*
G37*
G36*
G01X0485475Y-290480D02*
G01X0485475Y-310165D01*
G01X0485524Y-311704D01*
G01X0485653Y-313239D01*
G01X0485863Y-314765D01*
G01X0486151Y-316278D01*
G01X0486518Y-317774D01*
G01X0486962Y-319248D01*
G01X0487483Y-320698D01*
G01X0488079Y-322118D01*
G01X0488748Y-323506D01*
G01X0489488Y-324856D01*
G01X0490298Y-326166D01*
G01X0491175Y-327433D01*
G01X0492116Y-328651D01*
G01X0493120Y-329819D01*
G01X0494184Y-330933D01*
G01X0495304Y-331990D01*
G01X0496478Y-332988D01*
G01X0497702Y-333922D01*
G01X0498973Y-334792D01*
G01X0500288Y-335594D01*
G01X0501643Y-336326D01*
G01X0503034Y-336987D01*
G01X0504458Y-337574D01*
G01X0505911Y-338087D01*
G01X0507388Y-338522D01*
G01X0508886Y-338881D01*
G01X0510400Y-339160D01*
G01X0511927Y-339361D01*
G01X0513463Y-339481D01*
G01X0515003Y-339521D01*
G01X0516542Y-339481D01*
G01X0518078Y-339361D01*
G01X0519605Y-339160D01*
G01X0521119Y-338881D01*
G01X0522617Y-338522D01*
G01X0524094Y-338087D01*
G01X0525547Y-337574D01*
G01X0526971Y-336987D01*
G01X0528362Y-336326D01*
G01X0529717Y-335594D01*
G01X0531032Y-334792D01*
G01X0532303Y-333922D01*
G01X0533527Y-332988D01*
G01X0534701Y-331990D01*
G01X0535821Y-330933D01*
G01X0536885Y-329819D01*
G01X0537889Y-328651D01*
G01X0538830Y-327433D01*
G01X0539707Y-326166D01*
G01X0540517Y-324856D01*
G01X0541257Y-323506D01*
G01X0541926Y-322118D01*
G01X0542522Y-320698D01*
G01X0543043Y-319248D01*
G01X0543487Y-317774D01*
G01X0543854Y-316278D01*
G01X0544142Y-314765D01*
G01X0544352Y-313239D01*
G01X0544481Y-311704D01*
G01X0544530Y-310165D01*
G01X0544530Y-290480D01*
G37*
G36*
G01X0814529Y-270467D02*
G01X0814529Y-250782D01*
G01X0814480Y-249243D01*
G01X0814351Y-247708D01*
G01X0814141Y-246182D01*
G01X0813853Y-244669D01*
G01X0813486Y-243173D01*
G01X0813042Y-241699D01*
G01X0812521Y-240249D01*
G01X0811925Y-238829D01*
G01X0811256Y-237441D01*
G01X0810516Y-236091D01*
G01X0809706Y-234781D01*
G01X0808829Y-233514D01*
G01X0807888Y-232296D01*
G01X0806884Y-231128D01*
G01X0805820Y-230014D01*
G01X0804700Y-228957D01*
G01X0803526Y-227959D01*
G01X0802302Y-227025D01*
G01X0801031Y-226155D01*
G01X0799716Y-225353D01*
G01X0798361Y-224621D01*
G01X0796970Y-223960D01*
G01X0795546Y-223373D01*
G01X0794093Y-222860D01*
G01X0792616Y-222425D01*
G01X0791118Y-222066D01*
G01X0789604Y-221787D01*
G01X0788077Y-221586D01*
G01X0786541Y-221466D01*
G01X0785001Y-221426D01*
G01X0783462Y-221466D01*
G01X0781926Y-221586D01*
G01X0780399Y-221787D01*
G01X0778885Y-222066D01*
G01X0777387Y-222425D01*
G01X0775910Y-222860D01*
G01X0774457Y-223373D01*
G01X0773033Y-223960D01*
G01X0771642Y-224621D01*
G01X0770287Y-225353D01*
G01X0768972Y-226155D01*
G01X0767701Y-227025D01*
G01X0766477Y-227959D01*
G01X0765303Y-228957D01*
G01X0764183Y-230014D01*
G01X0763119Y-231128D01*
G01X0762115Y-232296D01*
G01X0761174Y-233514D01*
G01X0760297Y-234781D01*
G01X0759487Y-236091D01*
G01X0758747Y-237441D01*
G01X0758078Y-238829D01*
G01X0757482Y-240249D01*
G01X0756961Y-241699D01*
G01X0756517Y-243173D01*
G01X0756150Y-244669D01*
G01X0755862Y-246182D01*
G01X0755652Y-247708D01*
G01X0755523Y-249243D01*
G01X0755474Y-250782D01*
G01X0755474Y-270467D01*
G37*
G36*
G01X0755475Y-280480D02*
G01X0755475Y-300165D01*
G01X0755524Y-301704D01*
G01X0755653Y-303239D01*
G01X0755863Y-304765D01*
G01X0756151Y-306278D01*
G01X0756518Y-307774D01*
G01X0756962Y-309248D01*
G01X0757483Y-310698D01*
G01X0758079Y-312118D01*
G01X0758748Y-313506D01*
G01X0759488Y-314856D01*
G01X0760298Y-316166D01*
G01X0761175Y-317433D01*
G01X0762116Y-318651D01*
G01X0763120Y-319819D01*
G01X0764184Y-320933D01*
G01X0765304Y-321990D01*
G01X0766478Y-322988D01*
G01X0767702Y-323922D01*
G01X0768973Y-324792D01*
G01X0770288Y-325594D01*
G01X0771643Y-326326D01*
G01X0773034Y-326987D01*
G01X0774458Y-327574D01*
G01X0775911Y-328087D01*
G01X0777388Y-328522D01*
G01X0778886Y-328881D01*
G01X0780400Y-329160D01*
G01X0781927Y-329361D01*
G01X0783463Y-329481D01*
G01X0785003Y-329521D01*
G01X0786542Y-329481D01*
G01X0788078Y-329361D01*
G01X0789605Y-329160D01*
G01X0791119Y-328881D01*
G01X0792617Y-328522D01*
G01X0794094Y-328087D01*
G01X0795547Y-327574D01*
G01X0796971Y-326987D01*
G01X0798362Y-326326D01*
G01X0799717Y-325594D01*
G01X0801032Y-324792D01*
G01X0802303Y-323922D01*
G01X0803527Y-322988D01*
G01X0804701Y-321990D01*
G01X0805821Y-320933D01*
G01X0806885Y-319819D01*
G01X0807889Y-318651D01*
G01X0808830Y-317433D01*
G01X0809707Y-316166D01*
G01X0810517Y-314856D01*
G01X0811257Y-313506D01*
G01X0811926Y-312118D01*
G01X0812522Y-310698D01*
G01X0813043Y-309248D01*
G01X0813487Y-307774D01*
G01X0813854Y-306278D01*
G01X0814142Y-304765D01*
G01X0814352Y-303239D01*
G01X0814481Y-301704D01*
G01X0814530Y-300165D01*
G01X0814530Y-280480D01*
G37*
G54D35*
G01X1430000Y-320000D03*
G01X1480000Y-320000D03*
G01X1380000Y-320000D03*
G01X1420000Y-1100000D03*
G01X1470000Y-1100000D03*
G01X1370000Y-1100000D03*
G54D36*
G01X1009000Y-375000D03*
G01X1071000Y-375000D03*
G54D37*
G01X0640000Y-311000D03*
G01X0640000Y-249000D03*
G54D38*
G01X0425000Y-249000D03*
G01X0425000Y-311000D03*
G54D36*
G01X1069000Y-280000D03*
G01X1131000Y-280000D03*
G54D39*
G01X1337559Y-490000D03*
G01X1282441Y-490000D03*
G54D40*
G01X1490000Y-597441D03*
G01X1490000Y-652559D03*
G54D36*
G01X1289000Y-750000D03*
G01X1351000Y-750000D03*
G01X1279000Y-415000D03*
G01X1341000Y-415000D03*
G54D41*
G01X1282600Y-661185D03*
G01X1357400Y-661185D03*
G01X1357400Y-558814D03*
G01X1320000Y-558814D03*
G01X1282600Y-558814D03*
G54D42*
G01X1294408Y-693307D03*
G01X1345588Y-693307D03*
G01X1345588Y-606692D03*
G01X1319998Y-606692D03*
G01X1294408Y-606692D03*
G54D36*
G01X1139000Y-350000D03*
G01X1201000Y-350000D03*
G54D43*
G01X0943251Y-518424D03*
G01X0943251Y-561734D03*
G01X0943251Y-605034D03*
G01X0943251Y-634564D03*
G01X0943251Y-691654D03*
G01X0943251Y-734954D03*
G01X0943251Y-778264D03*
G01X0943251Y-821574D03*
G01X0943251Y-662124D03*
G54D44*
G01X1011560Y-870785D03*
G01X1186750Y-870785D03*
G01X1186750Y-469215D03*
G01X1011560Y-469215D03*
G54D36*
G01X0389000Y-605000D03*
G01X0451000Y-605000D03*
G54D39*
G01X0642559Y-870000D03*
G01X0587441Y-870000D03*
G54D22*
G01X0095000Y-1070000D03*
G01X0095000Y-970000D03*
G01X0095000Y-870000D03*
G01X0095000Y-770000D03*
G01X0095000Y-670000D03*
G01X0095000Y-570000D03*
G01X0095000Y-470000D03*
G01X0095000Y-370000D03*
G01X0095000Y-270000D03*
G01X0095000Y-170000D03*
M02*
