G04 This is an RS-274x file exported by *
G04 gerbv version 2.10.0~037b94 *
G04 More information is available about gerbv at *
G04 https://gerbv.github.io/ *
G04 --End of header info--*
%MOIN*%
%FSLAX36Y36*%
%IPPOS*%
G04 --Define apertures--*
%ADD10R,0.0315X0.0354*%
%ADD11R,0.0354X0.0315*%
%ADD12R,0.0430X0.0320*%
%ADD13R,0.0456X0.0193*%
%ADD14R,0.0463X0.0193*%
%AMMACRO15*
21,1,0.031496,0.025591,0.000000,0.000000,0.000000*
%
%ADD15MACRO15*%
%ADD16R,0.0315X0.0315*%
%ADD17O,0.1575X0.0591*%
%ADD18R,0.0276X0.0591*%
%ADD19R,0.0394X0.0315*%
%ADD20O,0.0618X0.0110*%
%ADD21O,0.0110X0.0618*%
%ADD22R,0.0236X0.0472*%
%ADD23R,0.1299X0.0945*%
%ADD24R,0.0472X0.0551*%
%AMMACRO25*
21,1,0.047244,0.055118,0.000000,0.000000,0.000000*
%
%ADD25MACRO25*%
%ADD26R,0.0669X0.0236*%
%ADD27R,0.1142X0.0512*%
%ADD28R,0.0433X0.0236*%
%AMMACRO29*
21,1,0.031496,0.025591,0.000000,0.000000,0.000000*
%
%ADD29MACRO29*%
%AMMACRO30*
21,1,0.047244,0.055118,0.000000,0.000000,0.000000*
%
%ADD30MACRO30*%
%AMMACRO31*
21,1,0.032000,0.043000,0.000000,0.000000,-130.999800*
%
%ADD31MACRO31*%
%AMMACRO32*
21,1,0.032000,0.043000,0.000000,0.000000,-130.998500*
%
%ADD32MACRO32*%
%ADD33R,0.0197X0.0197*%
%ADD34R,0.0006X0.0197*%
%ADD35C,0.0600*%
%ADD36R,0.0535X0.0591*%
%ADD37R,0.0472X0.0866*%
%ADD38R,0.0394X0.0591*%
%ADD39R,0.0422X0.0209*%
%ADD40R,0.0320X0.0430*%
%ADD41R,0.0157X0.0669*%
%ADD42R,0.0007X0.0669*%
G04 --Start main section--*
G36*
G01X1465560Y-762280D02*
G01X1463580Y-764260D01*
G01X1463580Y-773220D01*
G01X1478140Y-773220D01*
G01X1478140Y-786220D01*
G01X1463580Y-786220D01*
G01X1463580Y-795740D01*
G01X1465560Y-797720D01*
G01X1497040Y-797720D01*
G01X1499020Y-795740D01*
G01X1499020Y-764260D01*
G01X1497040Y-762280D01*
G37*
G36*
G01X1402960Y-762280D02*
G01X1400980Y-764260D01*
G01X1400980Y-795740D01*
G01X1402960Y-797720D01*
G01X1434440Y-797720D01*
G01X1436420Y-795740D01*
G01X1436420Y-786780D01*
G01X1421860Y-786780D01*
G01X1421860Y-773780D01*
G01X1436420Y-773780D01*
G01X1436420Y-764260D01*
G01X1434440Y-762280D01*
G37*
G36*
G01X1465560Y-622280D02*
G01X1463580Y-624260D01*
G01X1463580Y-633220D01*
G01X1478140Y-633220D01*
G01X1478140Y-646220D01*
G01X1463580Y-646220D01*
G01X1463580Y-655740D01*
G01X1465560Y-657720D01*
G01X1497040Y-657720D01*
G01X1499020Y-655740D01*
G01X1499020Y-624260D01*
G01X1497040Y-622280D01*
G37*
G36*
G01X1402960Y-622280D02*
G01X1400980Y-624260D01*
G01X1400980Y-655740D01*
G01X1402960Y-657720D01*
G01X1434440Y-657720D01*
G01X1436420Y-655740D01*
G01X1436420Y-646780D01*
G01X1421860Y-646780D01*
G01X1421860Y-633780D01*
G01X1436420Y-633780D01*
G01X1436420Y-624260D01*
G01X1434440Y-622280D01*
G37*
G36*
G01X1465560Y-502280D02*
G01X1463580Y-504260D01*
G01X1463580Y-513220D01*
G01X1478140Y-513220D01*
G01X1478140Y-526220D01*
G01X1463580Y-526220D01*
G01X1463580Y-535740D01*
G01X1465560Y-537720D01*
G01X1497040Y-537720D01*
G01X1499020Y-535740D01*
G01X1499020Y-504260D01*
G01X1497040Y-502280D01*
G37*
G36*
G01X1402960Y-502280D02*
G01X1400980Y-504260D01*
G01X1400980Y-535740D01*
G01X1402960Y-537720D01*
G01X1434440Y-537720D01*
G01X1436420Y-535740D01*
G01X1436420Y-526780D01*
G01X1421860Y-526780D01*
G01X1421860Y-513780D01*
G01X1436420Y-513780D01*
G01X1436420Y-504260D01*
G01X1434440Y-502280D01*
G37*
G36*
G01X0640560Y-872280D02*
G01X0638580Y-874260D01*
G01X0638580Y-883220D01*
G01X0653160Y-883220D01*
G01X0653160Y-896220D01*
G01X0638580Y-896220D01*
G01X0638580Y-905740D01*
G01X0640560Y-907720D01*
G01X0672040Y-907720D01*
G01X0674020Y-905740D01*
G01X0674020Y-874260D01*
G01X0672040Y-872280D01*
G37*
G36*
G01X0577960Y-872280D02*
G01X0575980Y-874260D01*
G01X0575980Y-905740D01*
G01X0577960Y-907720D01*
G01X0609440Y-907720D01*
G01X0611420Y-905740D01*
G01X0611420Y-896780D01*
G01X0596840Y-896780D01*
G01X0596840Y-883780D01*
G01X0611420Y-883780D01*
G01X0611420Y-874260D01*
G01X0609440Y-872280D01*
G37*
G36*
G01X0640560Y-822280D02*
G01X0638580Y-824260D01*
G01X0638580Y-833220D01*
G01X0653160Y-833220D01*
G01X0653160Y-846220D01*
G01X0638580Y-846220D01*
G01X0638580Y-855740D01*
G01X0640560Y-857720D01*
G01X0672040Y-857720D01*
G01X0674020Y-855740D01*
G01X0674020Y-824260D01*
G01X0672040Y-822280D01*
G37*
G36*
G01X0577960Y-822280D02*
G01X0575980Y-824260D01*
G01X0575980Y-855740D01*
G01X0577960Y-857720D01*
G01X0609440Y-857720D01*
G01X0611420Y-855740D01*
G01X0611420Y-846780D01*
G01X0596840Y-846780D01*
G01X0596840Y-833780D01*
G01X0611420Y-833780D01*
G01X0611420Y-824260D01*
G01X0609440Y-822280D01*
G37*
G54D10*
G01X1067440Y-960000D03*
G01X1122560Y-960000D03*
G54D11*
G01X1215000Y-887560D03*
G01X1215000Y-832440D03*
G01X1265000Y-392560D03*
G01X1265000Y-337440D03*
G54D10*
G01X1087440Y-440000D03*
G01X1142560Y-440000D03*
G01X0258050Y-963780D03*
G01X0313170Y-963780D03*
G01X0257440Y-865000D03*
G01X0312560Y-865000D03*
G01X0257440Y-766430D03*
G01X0312560Y-766430D03*
G01X0257440Y-667860D03*
G01X0312560Y-667860D03*
G01X0258050Y-569500D03*
G01X0313170Y-569500D03*
G01X0257440Y-470710D03*
G01X0312560Y-470710D03*
G01X0258050Y-372360D03*
G01X0313170Y-372360D03*
G01X0258050Y-273780D03*
G01X0313170Y-273780D03*
G01X0857560Y-420000D03*
G01X0802440Y-420000D03*
G01X0857560Y-675000D03*
G01X0802440Y-675000D03*
G01X0627440Y-770000D03*
G01X0682560Y-770000D03*
G54D11*
G01X0715000Y-397440D03*
G01X0715000Y-452560D03*
G54D10*
G01X0647560Y-380000D03*
G01X0592440Y-380000D03*
G54D12*
G01X1475000Y-906000D03*
G01X1475000Y-844000D03*
G01X1120000Y-571000D03*
G01X1120000Y-509000D03*
G54D13*
G01X1195420Y-377400D03*
G01X1195420Y-340000D03*
G01X1195420Y-302600D03*
G54D14*
G01X1104580Y-302600D03*
G01X1104580Y-377400D03*
G54D13*
G01X1400420Y-917400D03*
G01X1400420Y-880000D03*
G01X1400420Y-842600D03*
G54D14*
G01X1309580Y-842600D03*
G01X1309580Y-917400D03*
G54D15*
G01X1425472Y-357280D03*
G01X1425472Y-392719D03*
G01X1484528Y-392719D03*
G01X1484528Y-357280D03*
G54D16*
G01X1481480Y-704860D03*
G01X1418530Y-705140D03*
G01X1481480Y-579860D03*
G01X1418530Y-580140D03*
G54D17*
G01X0095000Y-170000D03*
G01X0095000Y-270000D03*
G01X0095000Y-370000D03*
G01X0095000Y-470000D03*
G01X0095000Y-570000D03*
G01X0095000Y-670000D03*
G01X0095000Y-770000D03*
G01X0095000Y-870000D03*
G01X0095000Y-970000D03*
G01X0095000Y-1070000D03*
G54D18*
G01X1424370Y-267090D03*
G01X1385000Y-267090D03*
G01X1345630Y-267090D03*
G54D19*
G01X1493270Y-239530D03*
G01X1276730Y-239530D03*
G01X1493270Y-152910D03*
G01X1276730Y-152910D03*
G54D20*
G01X0449610Y-511100D03*
G01X0449610Y-530790D03*
G01X0449610Y-550470D03*
G01X0449610Y-570160D03*
G01X0449610Y-589840D03*
G01X0449610Y-609530D03*
G01X0449610Y-629210D03*
G01X0449610Y-648900D03*
G54D21*
G01X0506100Y-705390D03*
G01X0525790Y-705390D03*
G01X0545470Y-705390D03*
G01X0565160Y-705390D03*
G01X0584840Y-705390D03*
G01X0604530Y-705390D03*
G01X0624210Y-705390D03*
G01X0643900Y-705390D03*
G54D20*
G01X0700390Y-648900D03*
G01X0700390Y-629210D03*
G01X0700390Y-609530D03*
G01X0700390Y-589840D03*
G01X0700390Y-570160D03*
G01X0700390Y-550470D03*
G01X0700390Y-530790D03*
G01X0700390Y-511100D03*
G54D21*
G01X0643900Y-454610D03*
G01X0624210Y-454610D03*
G01X0604530Y-454610D03*
G01X0584840Y-454610D03*
G01X0565160Y-454610D03*
G01X0545470Y-454610D03*
G01X0525790Y-454610D03*
G01X0506100Y-454610D03*
G54D22*
G01X1195000Y-724500D03*
G01X1245000Y-724500D03*
G01X1295000Y-724500D03*
G01X1345000Y-724500D03*
G01X1345000Y-495500D03*
G01X1295000Y-495500D03*
G01X1245000Y-495500D03*
G01X1195000Y-495500D03*
G54D23*
G01X1270000Y-610000D03*
G54D24*
G01X0796540Y-506690D03*
G54D25*
G01X0796540Y-593307D03*
G01X0863470Y-593307D03*
G01X0863470Y-506693D03*
G54D26*
G01X1342010Y-1114610D03*
G01X1342010Y-1065390D03*
G54D27*
G01X1467990Y-992560D03*
G01X1467990Y-1187440D03*
G54D28*
G01X1048830Y-902410D03*
G01X1048830Y-827610D03*
G01X1151200Y-827610D03*
G01X1151200Y-865010D03*
G01X1151200Y-902410D03*
G01X1968504Y0000000D02*
G36*
G01X2781464Y-332280D02*
G01X2779484Y-334260D01*
G01X2779484Y-365740D01*
G01X2781464Y-367720D01*
G01X2812944Y-367720D01*
G01X2814924Y-365740D01*
G01X2814924Y-356780D01*
G01X2800364Y-356780D01*
G01X2800364Y-343780D01*
G01X2814924Y-343780D01*
G01X2814924Y-334260D01*
G01X2812944Y-332280D01*
G37*
G36*
G01X2844064Y-332280D02*
G01X2842084Y-334260D01*
G01X2842084Y-343220D01*
G01X2856644Y-343220D01*
G01X2856644Y-356220D01*
G01X2842084Y-356220D01*
G01X2842084Y-365740D01*
G01X2844064Y-367720D01*
G01X2875544Y-367720D01*
G01X2877524Y-365740D01*
G01X2877524Y-334260D01*
G01X2875544Y-332280D01*
G37*
G36*
G01X2229064Y-937280D02*
G01X2227084Y-939260D01*
G01X2227084Y-948220D01*
G01X2241664Y-948220D01*
G01X2241664Y-961220D01*
G01X2227084Y-961220D01*
G01X2227084Y-970740D01*
G01X2229064Y-972720D01*
G01X2260544Y-972720D01*
G01X2262524Y-970740D01*
G01X2262524Y-939260D01*
G01X2260544Y-937280D01*
G37*
G36*
G01X2166464Y-937280D02*
G01X2164484Y-939260D01*
G01X2164484Y-970740D01*
G01X2166464Y-972720D01*
G01X2197944Y-972720D01*
G01X2199924Y-970740D01*
G01X2199924Y-961780D01*
G01X2185344Y-961780D01*
G01X2185344Y-948780D01*
G01X2199924Y-948780D01*
G01X2199924Y-939260D01*
G01X2197944Y-937280D01*
G37*
G36*
G01X3434064Y-762280D02*
G01X3432084Y-764260D01*
G01X3432084Y-773220D01*
G01X3446644Y-773220D01*
G01X3446644Y-786220D01*
G01X3432084Y-786220D01*
G01X3432084Y-795740D01*
G01X3434064Y-797720D01*
G01X3465544Y-797720D01*
G01X3467524Y-795740D01*
G01X3467524Y-764260D01*
G01X3465544Y-762280D01*
G37*
G36*
G01X3371464Y-762280D02*
G01X3369484Y-764260D01*
G01X3369484Y-795740D01*
G01X3371464Y-797720D01*
G01X3402944Y-797720D01*
G01X3404924Y-795740D01*
G01X3404924Y-786780D01*
G01X3390364Y-786780D01*
G01X3390364Y-773780D01*
G01X3404924Y-773780D01*
G01X3404924Y-764260D01*
G01X3402944Y-762280D01*
G37*
G36*
G01X3434064Y-622280D02*
G01X3432084Y-624260D01*
G01X3432084Y-633220D01*
G01X3446644Y-633220D01*
G01X3446644Y-646220D01*
G01X3432084Y-646220D01*
G01X3432084Y-655740D01*
G01X3434064Y-657720D01*
G01X3465544Y-657720D01*
G01X3467524Y-655740D01*
G01X3467524Y-624260D01*
G01X3465544Y-622280D01*
G37*
G36*
G01X3371464Y-622280D02*
G01X3369484Y-624260D01*
G01X3369484Y-655740D01*
G01X3371464Y-657720D01*
G01X3402944Y-657720D01*
G01X3404924Y-655740D01*
G01X3404924Y-646780D01*
G01X3390364Y-646780D01*
G01X3390364Y-633780D01*
G01X3404924Y-633780D01*
G01X3404924Y-624260D01*
G01X3402944Y-622280D01*
G37*
G36*
G01X3434064Y-502280D02*
G01X3432084Y-504260D01*
G01X3432084Y-513220D01*
G01X3446644Y-513220D01*
G01X3446644Y-526220D01*
G01X3432084Y-526220D01*
G01X3432084Y-535740D01*
G01X3434064Y-537720D01*
G01X3465544Y-537720D01*
G01X3467524Y-535740D01*
G01X3467524Y-504260D01*
G01X3465544Y-502280D01*
G37*
G36*
G01X3371464Y-502280D02*
G01X3369484Y-504260D01*
G01X3369484Y-535740D01*
G01X3371464Y-537720D01*
G01X3402944Y-537720D01*
G01X3404924Y-535740D01*
G01X3404924Y-526780D01*
G01X3390364Y-526780D01*
G01X3390364Y-513780D01*
G01X3404924Y-513780D01*
G01X3404924Y-504260D01*
G01X3402944Y-502280D01*
G37*
G36*
G01X2696004Y-362080D02*
G01X2694804Y-362260D01*
G01X2693384Y-362820D01*
G01X2692424Y-363540D01*
G01X2691624Y-364460D01*
G01X2691164Y-365240D01*
G01X2690764Y-366400D01*
G01X2690664Y-367000D01*
G01X2690644Y-388380D01*
G01X2690844Y-389580D01*
G01X2691444Y-390960D01*
G01X2691984Y-391700D01*
G01X2693144Y-392680D01*
G01X2694504Y-393340D01*
G01X2695704Y-393560D01*
G01X2696304Y-393580D01*
G01X2697504Y-393420D01*
G01X2698644Y-392980D01*
G01X2699884Y-392120D01*
G01X2700684Y-391220D01*
G01X2701364Y-389860D01*
G01X2701624Y-388680D01*
G01X2701664Y-367600D01*
G01X2701584Y-366700D01*
G01X2701364Y-365800D01*
G01X2700684Y-364460D01*
G01X2699884Y-363540D01*
G01X2698644Y-362680D01*
G01X2697804Y-362340D01*
G01X2696604Y-362100D01*
G37*
G36*
G01X2538524Y-362080D02*
G01X2537324Y-362260D01*
G01X2535904Y-362820D01*
G01X2534944Y-363540D01*
G01X2534144Y-364460D01*
G01X2533684Y-365240D01*
G01X2533284Y-366400D01*
G01X2533184Y-367000D01*
G01X2533164Y-388380D01*
G01X2533364Y-389580D01*
G01X2533964Y-390960D01*
G01X2534504Y-391700D01*
G01X2535664Y-392680D01*
G01X2537024Y-393340D01*
G01X2538224Y-393560D01*
G01X2538824Y-393580D01*
G01X2540024Y-393420D01*
G01X2541164Y-392980D01*
G01X2542404Y-392120D01*
G01X2543204Y-391220D01*
G01X2543884Y-389860D01*
G01X2544144Y-388680D01*
G01X2544184Y-367600D01*
G01X2544104Y-366700D01*
G01X2543884Y-365800D01*
G01X2543204Y-364460D01*
G01X2542404Y-363540D01*
G01X2541164Y-362680D01*
G01X2540324Y-362340D01*
G01X2539124Y-362100D01*
G37*
G36*
G01X2617264Y-362080D02*
G01X2616344Y-362180D01*
G01X2614924Y-362680D01*
G01X2614384Y-362980D01*
G01X2613684Y-363540D01*
G01X2612884Y-364460D01*
G01X2612424Y-365240D01*
G01X2612024Y-366400D01*
G01X2611924Y-367000D01*
G01X2611904Y-388380D01*
G01X2612104Y-389580D01*
G01X2612704Y-390960D01*
G01X2613244Y-391700D01*
G01X2614384Y-392680D01*
G01X2615764Y-393340D01*
G01X2616944Y-393560D01*
G01X2617564Y-393580D01*
G01X2618764Y-393420D01*
G01X2619904Y-392980D01*
G01X2621144Y-392120D01*
G01X2621944Y-391220D01*
G01X2622404Y-390420D01*
G01X2622784Y-389280D01*
G01X2622884Y-388680D01*
G01X2622924Y-367600D01*
G01X2622844Y-366700D01*
G01X2622404Y-365240D01*
G01X2621564Y-363980D01*
G01X2621144Y-363540D01*
G01X2619904Y-362680D01*
G01X2618464Y-362180D01*
G37*
G36*
G01X2459784Y-362080D02*
G01X2458584Y-362260D01*
G01X2457164Y-362820D01*
G01X2456424Y-363340D01*
G01X2455764Y-363980D01*
G01X2455224Y-364720D01*
G01X2454624Y-366100D01*
G01X2454424Y-367300D01*
G01X2454444Y-388680D01*
G01X2454544Y-389280D01*
G01X2455084Y-390700D01*
G01X2455404Y-391220D01*
G01X2455984Y-391920D01*
G01X2456664Y-392520D01*
G01X2458004Y-393240D01*
G01X2459164Y-393540D01*
G01X2460684Y-393540D01*
G01X2461564Y-393340D01*
G01X2462684Y-392840D01*
G01X2463184Y-392520D01*
G01X2463884Y-391920D01*
G01X2464784Y-390700D01*
G01X2465224Y-389580D01*
G01X2465364Y-388980D01*
G01X2465444Y-388080D01*
G01X2465404Y-367000D01*
G01X2465044Y-365520D01*
G01X2464284Y-364220D01*
G01X2463424Y-363340D01*
G01X2462684Y-362820D01*
G01X2461284Y-362260D01*
G01X2460384Y-362100D01*
G37*
G36*
G01X2656624Y-362080D02*
G01X2655724Y-362180D01*
G01X2654284Y-362680D01*
G01X2653044Y-363540D01*
G01X2652244Y-364460D01*
G01X2651564Y-365800D01*
G01X2651344Y-366700D01*
G01X2651264Y-367600D01*
G01X2651304Y-388680D01*
G01X2651564Y-389860D01*
G01X2652244Y-391220D01*
G01X2653044Y-392120D01*
G01X2654284Y-392980D01*
G01X2655424Y-393420D01*
G01X2656624Y-393580D01*
G01X2657844Y-393480D01*
G01X2658984Y-393120D01*
G01X2660284Y-392320D01*
G01X2660944Y-391700D01*
G01X2661484Y-390960D01*
G01X2662084Y-389580D01*
G01X2662284Y-388380D01*
G01X2662264Y-367000D01*
G01X2661984Y-365800D01*
G01X2661764Y-365240D01*
G01X2661304Y-364460D01*
G01X2660504Y-363540D01*
G01X2659544Y-362820D01*
G01X2658124Y-362260D01*
G01X2657244Y-362100D01*
G37*
G36*
G01X2499144Y-362080D02*
G01X2498244Y-362180D01*
G01X2497364Y-362440D01*
G01X2496544Y-362820D01*
G01X2495344Y-363760D01*
G01X2494444Y-364980D01*
G01X2494184Y-365520D01*
G01X2493824Y-367000D01*
G01X2493784Y-388080D01*
G01X2493864Y-388980D01*
G01X2494184Y-390140D01*
G01X2494444Y-390700D01*
G01X2495344Y-391920D01*
G01X2496044Y-392520D01*
G01X2497084Y-393120D01*
G01X2497644Y-393340D01*
G01X2498544Y-393540D01*
G01X2500064Y-393540D01*
G01X2501224Y-393240D01*
G01X2502564Y-392520D01*
G01X2503244Y-391920D01*
G01X2503824Y-391220D01*
G01X2504404Y-390140D01*
G01X2504684Y-389280D01*
G01X2504784Y-388680D01*
G01X2504804Y-367300D01*
G01X2504604Y-366100D01*
G01X2504004Y-364720D01*
G01X2503464Y-363980D01*
G01X2502804Y-363340D01*
G01X2501784Y-362680D01*
G01X2500364Y-362180D01*
G37*
G36*
G01X2577884Y-362080D02*
G01X2576984Y-362180D01*
G01X2575544Y-362680D01*
G01X2574304Y-363540D01*
G01X2573504Y-364460D01*
G01X2573044Y-365240D01*
G01X2572604Y-366700D01*
G01X2572524Y-367600D01*
G01X2572564Y-388680D01*
G01X2572824Y-389860D01*
G01X2573044Y-390420D01*
G01X2573504Y-391220D01*
G01X2574304Y-392120D01*
G01X2575544Y-392980D01*
G01X2576684Y-393420D01*
G01X2577884Y-393580D01*
G01X2579104Y-393480D01*
G01X2580244Y-393120D01*
G01X2581064Y-392680D01*
G01X2582204Y-391700D01*
G01X2582744Y-390960D01*
G01X2583344Y-389580D01*
G01X2583544Y-388380D01*
G01X2583524Y-367000D01*
G01X2583244Y-365800D01*
G01X2583024Y-365240D01*
G01X2582564Y-364460D01*
G01X2581764Y-363540D01*
G01X2581064Y-362980D01*
G01X2579684Y-362340D01*
G01X2578484Y-362100D01*
G37*
G36*
G01X2420404Y-362080D02*
G01X2419504Y-362180D01*
G01X2418064Y-362680D01*
G01X2416824Y-363540D01*
G01X2416024Y-364460D01*
G01X2415564Y-365240D01*
G01X2415124Y-366700D01*
G01X2415044Y-367600D01*
G01X2415084Y-388680D01*
G01X2415344Y-389860D01*
G01X2415564Y-390420D01*
G01X2416024Y-391220D01*
G01X2416824Y-392120D01*
G01X2418064Y-392980D01*
G01X2419204Y-393420D01*
G01X2420404Y-393580D01*
G01X2421624Y-393480D01*
G01X2422764Y-393120D01*
G01X2423584Y-392680D01*
G01X2424724Y-391700D01*
G01X2425264Y-390960D01*
G01X2425864Y-389580D01*
G01X2426064Y-388380D01*
G01X2426044Y-367000D01*
G01X2425764Y-365800D01*
G01X2425544Y-365240D01*
G01X2425084Y-364460D01*
G01X2424284Y-363540D01*
G01X2423584Y-362980D01*
G01X2422204Y-362340D01*
G01X2421624Y-362180D01*
G37*
G36*
G01X2676304Y-362080D02*
G01X2675404Y-362180D01*
G01X2674524Y-362440D01*
G01X2673704Y-362820D01*
G01X2672504Y-363760D01*
G01X2671604Y-364980D01*
G01X2671344Y-365520D01*
G01X2670984Y-367000D01*
G01X2670944Y-388080D01*
G01X2671024Y-388980D01*
G01X2671344Y-390140D01*
G01X2671604Y-390700D01*
G01X2672504Y-391920D01*
G01X2673204Y-392520D01*
G01X2674244Y-393120D01*
G01X2674804Y-393340D01*
G01X2675704Y-393540D01*
G01X2677224Y-393540D01*
G01X2678384Y-393240D01*
G01X2679724Y-392520D01*
G01X2680404Y-391920D01*
G01X2680984Y-391220D01*
G01X2681564Y-390140D01*
G01X2681844Y-389280D01*
G01X2681944Y-388680D01*
G01X2681964Y-367300D01*
G01X2681764Y-366100D01*
G01X2681164Y-364720D01*
G01X2680624Y-363980D01*
G01X2679964Y-363340D01*
G01X2679224Y-362820D01*
G01X2677804Y-362260D01*
G37*
G36*
G01X2518824Y-362080D02*
G01X2517924Y-362180D01*
G01X2517044Y-362440D01*
G01X2516224Y-362820D01*
G01X2515024Y-363760D01*
G01X2514124Y-364980D01*
G01X2513864Y-365520D01*
G01X2513504Y-367000D01*
G01X2513464Y-388080D01*
G01X2513544Y-388980D01*
G01X2513864Y-390140D01*
G01X2514124Y-390700D01*
G01X2515024Y-391920D01*
G01X2515724Y-392520D01*
G01X2516764Y-393120D01*
G01X2517324Y-393340D01*
G01X2518224Y-393540D01*
G01X2519744Y-393540D01*
G01X2520904Y-393240D01*
G01X2522244Y-392520D01*
G01X2522924Y-391920D01*
G01X2523504Y-391220D01*
G01X2524084Y-390140D01*
G01X2524364Y-389280D01*
G01X2524464Y-388680D01*
G01X2524484Y-367300D01*
G01X2524284Y-366100D01*
G01X2523684Y-364720D01*
G01X2523144Y-363980D01*
G01X2522484Y-363340D01*
G01X2521744Y-362820D01*
G01X2520324Y-362260D01*
G37*
G36*
G01X2597564Y-362080D02*
G01X2596664Y-362180D01*
G01X2595224Y-362680D01*
G01X2593984Y-363540D01*
G01X2593184Y-364460D01*
G01X2592724Y-365240D01*
G01X2592284Y-366700D01*
G01X2592204Y-367600D01*
G01X2592244Y-388680D01*
G01X2592504Y-389860D01*
G01X2592724Y-390420D01*
G01X2593184Y-391220D01*
G01X2593984Y-392120D01*
G01X2595224Y-392980D01*
G01X2596364Y-393420D01*
G01X2597564Y-393580D01*
G01X2598784Y-393480D01*
G01X2599924Y-393120D01*
G01X2601224Y-392320D01*
G01X2601884Y-391700D01*
G01X2602424Y-390960D01*
G01X2603024Y-389580D01*
G01X2603224Y-388380D01*
G01X2603204Y-367000D01*
G01X2602924Y-365800D01*
G01X2602704Y-365240D01*
G01X2602244Y-364460D01*
G01X2601444Y-363540D01*
G01X2600484Y-362820D01*
G01X2599064Y-362260D01*
G01X2598184Y-362100D01*
G37*
G36*
G01X2440084Y-362080D02*
G01X2439184Y-362180D01*
G01X2437744Y-362680D01*
G01X2436504Y-363540D01*
G01X2435704Y-364460D01*
G01X2435024Y-365800D01*
G01X2434804Y-366700D01*
G01X2434724Y-367600D01*
G01X2434764Y-388680D01*
G01X2435024Y-389860D01*
G01X2435704Y-391220D01*
G01X2436504Y-392120D01*
G01X2437744Y-392980D01*
G01X2438884Y-393420D01*
G01X2440084Y-393580D01*
G01X2441304Y-393480D01*
G01X2442444Y-393120D01*
G01X2443744Y-392320D01*
G01X2444404Y-391700D01*
G01X2444944Y-390960D01*
G01X2445544Y-389580D01*
G01X2445744Y-388380D01*
G01X2445724Y-367000D01*
G01X2445444Y-365800D01*
G01X2445224Y-365240D01*
G01X2444764Y-364460D01*
G01X2443964Y-363540D01*
G01X2443004Y-362820D01*
G01X2441584Y-362260D01*
G01X2440704Y-362100D01*
G37*
G36*
G01X2636944Y-362080D02*
G01X2635744Y-362260D01*
G01X2634324Y-362820D01*
G01X2633584Y-363340D01*
G01X2632924Y-363980D01*
G01X2632384Y-364720D01*
G01X2631784Y-366100D01*
G01X2631584Y-367300D01*
G01X2631604Y-388680D01*
G01X2631704Y-389280D01*
G01X2632244Y-390700D01*
G01X2632564Y-391220D01*
G01X2633144Y-391920D01*
G01X2633824Y-392520D01*
G01X2635164Y-393240D01*
G01X2636324Y-393540D01*
G01X2637844Y-393540D01*
G01X2638744Y-393340D01*
G01X2639844Y-392840D01*
G01X2640344Y-392520D01*
G01X2641044Y-391920D01*
G01X2641944Y-390700D01*
G01X2642384Y-389580D01*
G01X2642524Y-388980D01*
G01X2642604Y-388080D01*
G01X2642564Y-367000D01*
G01X2642204Y-365520D01*
G01X2641444Y-364220D01*
G01X2640584Y-363340D01*
G01X2639844Y-362820D01*
G01X2639024Y-362440D01*
G01X2638144Y-362180D01*
G37*
G36*
G01X2479204Y-362080D02*
G01X2478304Y-362180D01*
G01X2477424Y-362440D01*
G01X2476604Y-362820D01*
G01X2475404Y-363760D01*
G01X2474504Y-364980D01*
G01X2474244Y-365520D01*
G01X2473884Y-367000D01*
G01X2473844Y-388080D01*
G01X2473924Y-388980D01*
G01X2474244Y-390140D01*
G01X2474504Y-390700D01*
G01X2475404Y-391920D01*
G01X2476104Y-392520D01*
G01X2477144Y-393120D01*
G01X2477704Y-393340D01*
G01X2478604Y-393540D01*
G01X2480124Y-393540D01*
G01X2481284Y-393240D01*
G01X2482624Y-392520D01*
G01X2483304Y-391920D01*
G01X2483884Y-391220D01*
G01X2484464Y-390140D01*
G01X2484744Y-389280D01*
G01X2484844Y-388680D01*
G01X2484864Y-367300D01*
G01X2484664Y-366100D01*
G01X2484064Y-364720D01*
G01X2483524Y-363980D01*
G01X2482864Y-363340D01*
G01X2482124Y-362820D01*
G01X2480704Y-362260D01*
G37*
G36*
G01X2558204Y-362080D02*
G01X2557284Y-362180D01*
G01X2555864Y-362680D01*
G01X2555324Y-362980D01*
G01X2554624Y-363540D01*
G01X2553824Y-364460D01*
G01X2553364Y-365240D01*
G01X2552964Y-366400D01*
G01X2552864Y-367000D01*
G01X2552844Y-388380D01*
G01X2553044Y-389580D01*
G01X2553644Y-390960D01*
G01X2554184Y-391700D01*
G01X2555324Y-392680D01*
G01X2556704Y-393340D01*
G01X2557884Y-393560D01*
G01X2558504Y-393580D01*
G01X2559704Y-393420D01*
G01X2560844Y-392980D01*
G01X2562084Y-392120D01*
G01X2562884Y-391220D01*
G01X2563344Y-390420D01*
G01X2563724Y-389280D01*
G01X2563824Y-388680D01*
G01X2563864Y-367600D01*
G01X2563784Y-366700D01*
G01X2563344Y-365240D01*
G01X2562504Y-363980D01*
G01X2562084Y-363540D01*
G01X2560844Y-362680D01*
G01X2559404Y-362180D01*
G37*
G36*
G01X2400724Y-362080D02*
G01X2399804Y-362180D01*
G01X2398384Y-362680D01*
G01X2397844Y-362980D01*
G01X2397144Y-363540D01*
G01X2396344Y-364460D01*
G01X2395884Y-365240D01*
G01X2395484Y-366400D01*
G01X2395384Y-367000D01*
G01X2395364Y-388380D01*
G01X2395564Y-389580D01*
G01X2396164Y-390960D01*
G01X2396704Y-391700D01*
G01X2397844Y-392680D01*
G01X2399224Y-393340D01*
G01X2400404Y-393560D01*
G01X2401024Y-393580D01*
G01X2402224Y-393420D01*
G01X2403364Y-392980D01*
G01X2404604Y-392120D01*
G01X2405404Y-391220D01*
G01X2405864Y-390420D01*
G01X2406244Y-389280D01*
G01X2406344Y-388680D01*
G01X2406384Y-367600D01*
G01X2406304Y-366700D01*
G01X2405864Y-365240D01*
G01X2405024Y-363980D01*
G01X2404604Y-363540D01*
G01X2403364Y-362680D01*
G01X2401924Y-362180D01*
G37*
G36*
G01X2715124Y-401860D02*
G01X2713924Y-402060D01*
G01X2712544Y-402660D01*
G01X2711804Y-403200D01*
G01X2710824Y-404340D01*
G01X2710164Y-405720D01*
G01X2709944Y-406900D01*
G01X2709924Y-407520D01*
G01X2710084Y-408720D01*
G01X2710524Y-409860D01*
G01X2711384Y-411100D01*
G01X2712284Y-411900D01*
G01X2713084Y-412360D01*
G01X2714224Y-412740D01*
G01X2714824Y-412840D01*
G01X2735904Y-412880D01*
G01X2736804Y-412800D01*
G01X2738264Y-412360D01*
G01X2739524Y-411520D01*
G01X2739964Y-411100D01*
G01X2740824Y-409860D01*
G01X2741324Y-408420D01*
G01X2741424Y-407520D01*
G01X2741404Y-406900D01*
G01X2741064Y-405440D01*
G01X2740684Y-404600D01*
G01X2740164Y-403860D01*
G01X2739524Y-403200D01*
G01X2738784Y-402660D01*
G01X2737404Y-402060D01*
G01X2736204Y-401860D01*
G37*
G36*
G01X2360804Y-401860D02*
G01X2359604Y-402060D01*
G01X2358224Y-402660D01*
G01X2357484Y-403200D01*
G01X2356844Y-403860D01*
G01X2356324Y-404600D01*
G01X2355764Y-406020D01*
G01X2355604Y-406900D01*
G01X2355584Y-407520D01*
G01X2355684Y-408420D01*
G01X2356184Y-409860D01*
G01X2357044Y-411100D01*
G01X2357964Y-411900D01*
G01X2358744Y-412360D01*
G01X2360204Y-412800D01*
G01X2361104Y-412880D01*
G01X2382184Y-412840D01*
G01X2383364Y-412580D01*
G01X2383924Y-412360D01*
G01X2384724Y-411900D01*
G01X2385624Y-411100D01*
G01X2386484Y-409860D01*
G01X2386924Y-408720D01*
G01X2387084Y-407520D01*
G01X2386984Y-406300D01*
G01X2386624Y-405160D01*
G01X2386184Y-404340D01*
G01X2385204Y-403200D01*
G01X2384464Y-402660D01*
G01X2383084Y-402060D01*
G01X2381884Y-401860D01*
G37*
G36*
G01X2430404Y-436900D02*
G01X2430404Y-673120D01*
G01X2666624Y-673120D01*
G01X2666624Y-436900D01*
G37*
G36*
G01X2715124Y-421540D02*
G01X2713924Y-421740D01*
G01X2712544Y-422340D01*
G01X2711804Y-422880D01*
G01X2710824Y-424020D01*
G01X2710164Y-425400D01*
G01X2709944Y-426600D01*
G01X2709924Y-427200D01*
G01X2710084Y-428400D01*
G01X2710524Y-429540D01*
G01X2711384Y-430780D01*
G01X2712284Y-431580D01*
G01X2713644Y-432260D01*
G01X2714824Y-432520D01*
G01X2735904Y-432560D01*
G01X2736804Y-432480D01*
G01X2737704Y-432260D01*
G01X2739044Y-431580D01*
G01X2739964Y-430780D01*
G01X2740824Y-429540D01*
G01X2741164Y-428700D01*
G01X2741404Y-427500D01*
G01X2741364Y-426280D01*
G01X2741064Y-425120D01*
G01X2740684Y-424280D01*
G01X2740164Y-423540D01*
G01X2739524Y-422880D01*
G01X2738784Y-422340D01*
G01X2737404Y-421740D01*
G01X2736204Y-421540D01*
G37*
G36*
G01X2360804Y-421540D02*
G01X2359604Y-421740D01*
G01X2358224Y-422340D01*
G01X2357484Y-422880D01*
G01X2356844Y-423540D01*
G01X2356324Y-424280D01*
G01X2355764Y-425700D01*
G01X2355584Y-426900D01*
G01X2355604Y-427500D01*
G01X2355844Y-428700D01*
G01X2356184Y-429540D01*
G01X2357044Y-430780D01*
G01X2357964Y-431580D01*
G01X2359304Y-432260D01*
G01X2360204Y-432480D01*
G01X2361104Y-432560D01*
G01X2382184Y-432520D01*
G01X2383364Y-432260D01*
G01X2384724Y-431580D01*
G01X2385624Y-430780D01*
G01X2386484Y-429540D01*
G01X2386924Y-428400D01*
G01X2387084Y-427200D01*
G01X2386984Y-425980D01*
G01X2386624Y-424840D01*
G01X2386184Y-424020D01*
G01X2385204Y-422880D01*
G01X2384464Y-422340D01*
G01X2383084Y-421740D01*
G01X2381884Y-421540D01*
G37*
G36*
G01X2715424Y-441220D02*
G01X2714524Y-441300D01*
G01X2713364Y-441620D01*
G01X2712804Y-441880D01*
G01X2711584Y-442780D01*
G01X2710984Y-443480D01*
G01X2710384Y-444520D01*
G01X2710164Y-445100D01*
G01X2709964Y-445980D01*
G01X2709964Y-447500D01*
G01X2710264Y-448660D01*
G01X2710984Y-450000D01*
G01X2711584Y-450680D01*
G01X2712284Y-451260D01*
G01X2713364Y-451840D01*
G01X2714224Y-452120D01*
G01X2714824Y-452220D01*
G01X2736204Y-452240D01*
G01X2737404Y-452040D01*
G01X2738784Y-451440D01*
G01X2739524Y-450900D01*
G01X2740164Y-450240D01*
G01X2740824Y-449220D01*
G01X2741324Y-447800D01*
G01X2741424Y-446880D01*
G01X2741404Y-446280D01*
G01X2741064Y-444800D01*
G01X2740684Y-443980D01*
G01X2739744Y-442780D01*
G01X2738524Y-441880D01*
G01X2737984Y-441620D01*
G01X2736504Y-441260D01*
G37*
G36*
G01X2361104Y-441220D02*
G01X2360204Y-441300D01*
G01X2359304Y-441520D01*
G01X2357964Y-442200D01*
G01X2357044Y-443000D01*
G01X2356184Y-444240D01*
G01X2355684Y-445680D01*
G01X2355584Y-446580D01*
G01X2355604Y-447200D01*
G01X2355944Y-448660D01*
G01X2356324Y-449500D01*
G01X2357044Y-450460D01*
G01X2357964Y-451260D01*
G01X2358744Y-451720D01*
G01X2359904Y-452120D01*
G01X2360504Y-452220D01*
G01X2381884Y-452240D01*
G01X2383084Y-452040D01*
G01X2384464Y-451440D01*
G01X2385204Y-450900D01*
G01X2386184Y-449740D01*
G01X2386844Y-448380D01*
G01X2387064Y-447200D01*
G01X2387084Y-446580D01*
G01X2386924Y-445380D01*
G01X2386484Y-444240D01*
G01X2385624Y-443000D01*
G01X2384724Y-442200D01*
G01X2383364Y-441520D01*
G01X2382184Y-441260D01*
G37*
G36*
G01X2715424Y-460900D02*
G01X2714524Y-460980D01*
G01X2713364Y-461300D01*
G01X2712804Y-461560D01*
G01X2711584Y-462460D01*
G01X2710984Y-463160D01*
G01X2710384Y-464200D01*
G01X2710164Y-464760D01*
G01X2709964Y-465660D01*
G01X2709964Y-467180D01*
G01X2710264Y-468340D01*
G01X2710984Y-469680D01*
G01X2711584Y-470360D01*
G01X2712284Y-470940D01*
G01X2713364Y-471520D01*
G01X2714224Y-471800D01*
G01X2714824Y-471900D01*
G01X2736204Y-471920D01*
G01X2737404Y-471720D01*
G01X2738784Y-471120D01*
G01X2739524Y-470580D01*
G01X2740164Y-469920D01*
G01X2740684Y-469180D01*
G01X2741244Y-467760D01*
G01X2741424Y-466560D01*
G01X2741404Y-465960D01*
G01X2741164Y-464760D01*
G01X2740824Y-463920D01*
G01X2739964Y-462680D01*
G01X2739044Y-461880D01*
G01X2737704Y-461200D01*
G01X2736804Y-460980D01*
G01X2735904Y-460900D01*
G37*
G36*
G01X2361104Y-460900D02*
G01X2360204Y-460980D01*
G01X2359304Y-461200D01*
G01X2357964Y-461880D01*
G01X2357044Y-462680D01*
G01X2356184Y-463920D01*
G01X2355844Y-464760D01*
G01X2355604Y-465960D01*
G01X2355644Y-467180D01*
G01X2355944Y-468340D01*
G01X2356324Y-469180D01*
G01X2356844Y-469920D01*
G01X2357484Y-470580D01*
G01X2358224Y-471120D01*
G01X2359604Y-471720D01*
G01X2360804Y-471920D01*
G01X2382184Y-471900D01*
G01X2382784Y-471800D01*
G01X2384204Y-471260D01*
G01X2384724Y-470940D01*
G01X2385424Y-470360D01*
G01X2386024Y-469680D01*
G01X2386744Y-468340D01*
G01X2387044Y-467180D01*
G01X2387044Y-465660D01*
G01X2386844Y-464760D01*
G01X2386344Y-463660D01*
G01X2386024Y-463160D01*
G01X2385424Y-462460D01*
G01X2384204Y-461560D01*
G01X2383084Y-461120D01*
G01X2382484Y-460980D01*
G01X2381584Y-460900D01*
G37*
G36*
G01X2715124Y-480600D02*
G01X2713924Y-480800D01*
G01X2712544Y-481400D01*
G01X2711804Y-481940D01*
G01X2710824Y-483100D01*
G01X2710164Y-484460D01*
G01X2709944Y-485660D01*
G01X2709924Y-486260D01*
G01X2710084Y-487460D01*
G01X2710524Y-488600D01*
G01X2711384Y-489840D01*
G01X2712284Y-490640D01*
G01X2713644Y-491320D01*
G01X2714824Y-491580D01*
G01X2735904Y-491620D01*
G01X2736804Y-491540D01*
G01X2737704Y-491320D01*
G01X2739044Y-490640D01*
G01X2739964Y-489840D01*
G01X2740824Y-488600D01*
G01X2741164Y-487760D01*
G01X2741404Y-486560D01*
G01X2741364Y-485340D01*
G01X2741064Y-484180D01*
G01X2740684Y-483340D01*
G01X2739964Y-482380D01*
G01X2739044Y-481580D01*
G01X2738264Y-481120D01*
G01X2737104Y-480720D01*
G01X2736504Y-480620D01*
G37*
G36*
G01X2360804Y-480600D02*
G01X2359604Y-480800D01*
G01X2358224Y-481400D01*
G01X2357484Y-481940D01*
G01X2356844Y-482600D01*
G01X2356184Y-483620D01*
G01X2355684Y-485040D01*
G01X2355584Y-486260D01*
G01X2355684Y-487160D01*
G01X2355944Y-488040D01*
G01X2356324Y-488860D01*
G01X2357264Y-490060D01*
G01X2358484Y-490960D01*
G01X2359024Y-491220D01*
G01X2360504Y-491580D01*
G01X2381584Y-491620D01*
G01X2382484Y-491540D01*
G01X2383644Y-491220D01*
G01X2384204Y-490960D01*
G01X2385424Y-490060D01*
G01X2386024Y-489360D01*
G01X2386624Y-488320D01*
G01X2386844Y-487760D01*
G01X2387044Y-486860D01*
G01X2387044Y-485340D01*
G01X2386744Y-484180D01*
G01X2386024Y-482840D01*
G01X2385424Y-482160D01*
G01X2384724Y-481580D01*
G01X2383644Y-481000D01*
G01X2382784Y-480720D01*
G01X2382184Y-480620D01*
G37*
G36*
G01X2715124Y-500280D02*
G01X2713924Y-500480D01*
G01X2712544Y-501080D01*
G01X2711804Y-501620D01*
G01X2710824Y-502780D01*
G01X2710164Y-504140D01*
G01X2709944Y-505320D01*
G01X2709924Y-505940D01*
G01X2710084Y-507140D01*
G01X2710524Y-508280D01*
G01X2711384Y-509520D01*
G01X2712284Y-510320D01*
G01X2713084Y-510780D01*
G01X2714224Y-511160D01*
G01X2714824Y-511260D01*
G01X2735904Y-511300D01*
G01X2736804Y-511220D01*
G01X2738264Y-510780D01*
G01X2739524Y-509940D01*
G01X2739964Y-509520D01*
G01X2740824Y-508280D01*
G01X2741324Y-506840D01*
G01X2741424Y-505940D01*
G01X2741404Y-505320D01*
G01X2741064Y-503860D01*
G01X2740684Y-503020D01*
G01X2739964Y-502060D01*
G01X2739044Y-501260D01*
G01X2738264Y-500800D01*
G01X2737104Y-500400D01*
G01X2736504Y-500300D01*
G37*
G36*
G01X2360804Y-500280D02*
G01X2359604Y-500480D01*
G01X2358224Y-501080D01*
G01X2357484Y-501620D01*
G01X2356844Y-502280D01*
G01X2356184Y-503300D01*
G01X2355684Y-504720D01*
G01X2355584Y-505640D01*
G01X2355604Y-506240D01*
G01X2355944Y-507720D01*
G01X2356324Y-508540D01*
G01X2357264Y-509740D01*
G01X2358484Y-510640D01*
G01X2359024Y-510900D01*
G01X2360504Y-511260D01*
G01X2381584Y-511300D01*
G01X2382484Y-511220D01*
G01X2383644Y-510900D01*
G01X2384204Y-510640D01*
G01X2385424Y-509740D01*
G01X2386024Y-509040D01*
G01X2386624Y-508000D01*
G01X2386844Y-507420D01*
G01X2387044Y-506540D01*
G01X2387044Y-505020D01*
G01X2386744Y-503860D01*
G01X2386024Y-502520D01*
G01X2385424Y-501840D01*
G01X2384724Y-501260D01*
G01X2383644Y-500680D01*
G01X2382784Y-500400D01*
G01X2382184Y-500300D01*
G37*
G36*
G01X2715424Y-519960D02*
G01X2714524Y-520040D01*
G01X2713364Y-520360D01*
G01X2712804Y-520620D01*
G01X2711584Y-521520D01*
G01X2710984Y-522220D01*
G01X2710384Y-523260D01*
G01X2710164Y-523820D01*
G01X2709964Y-524720D01*
G01X2709964Y-526240D01*
G01X2710264Y-527400D01*
G01X2710984Y-528740D01*
G01X2711584Y-529420D01*
G01X2712284Y-530000D01*
G01X2713364Y-530580D01*
G01X2714224Y-530860D01*
G01X2714824Y-530960D01*
G01X2736204Y-530980D01*
G01X2737404Y-530780D01*
G01X2738784Y-530180D01*
G01X2739524Y-529640D01*
G01X2740164Y-528980D01*
G01X2740684Y-528240D01*
G01X2741244Y-526820D01*
G01X2741424Y-525620D01*
G01X2741404Y-525020D01*
G01X2741164Y-523820D01*
G01X2740824Y-522980D01*
G01X2739964Y-521740D01*
G01X2739044Y-520940D01*
G01X2738264Y-520480D01*
G01X2736804Y-520040D01*
G01X2735904Y-519960D01*
G37*
G36*
G01X2361104Y-519960D02*
G01X2360204Y-520040D01*
G01X2358744Y-520480D01*
G01X2357484Y-521320D01*
G01X2357044Y-521740D01*
G01X2356184Y-522980D01*
G01X2355844Y-523820D01*
G01X2355604Y-525020D01*
G01X2355644Y-526240D01*
G01X2355944Y-527400D01*
G01X2356324Y-528240D01*
G01X2356844Y-528980D01*
G01X2357484Y-529640D01*
G01X2358224Y-530180D01*
G01X2359604Y-530780D01*
G01X2360804Y-530980D01*
G01X2382184Y-530960D01*
G01X2382784Y-530860D01*
G01X2384204Y-530320D01*
G01X2384724Y-530000D01*
G01X2385424Y-529420D01*
G01X2386024Y-528740D01*
G01X2386744Y-527400D01*
G01X2387044Y-526240D01*
G01X2387044Y-524720D01*
G01X2386844Y-523820D01*
G01X2386344Y-522720D01*
G01X2386024Y-522220D01*
G01X2385424Y-521520D01*
G01X2384204Y-520620D01*
G01X2383084Y-520180D01*
G01X2382484Y-520040D01*
G01X2381584Y-519960D01*
G37*
G36*
G01X2715424Y-539640D02*
G01X2714524Y-539720D01*
G01X2713364Y-540040D01*
G01X2712804Y-540300D01*
G01X2711584Y-541200D01*
G01X2710984Y-541900D01*
G01X2710384Y-542940D01*
G01X2710164Y-543520D01*
G01X2709964Y-544400D01*
G01X2709964Y-545920D01*
G01X2710264Y-547080D01*
G01X2710984Y-548420D01*
G01X2711584Y-549100D01*
G01X2712284Y-549680D01*
G01X2713364Y-550260D01*
G01X2714224Y-550540D01*
G01X2714824Y-550640D01*
G01X2736204Y-550660D01*
G01X2737404Y-550460D01*
G01X2738784Y-549860D01*
G01X2739524Y-549320D01*
G01X2740164Y-548660D01*
G01X2740684Y-547920D01*
G01X2741244Y-546500D01*
G01X2741404Y-545620D01*
G01X2741424Y-545000D01*
G01X2741324Y-544100D01*
G01X2740824Y-542660D01*
G01X2739964Y-541420D01*
G01X2739044Y-540620D01*
G01X2738264Y-540160D01*
G01X2736804Y-539720D01*
G01X2735904Y-539640D01*
G37*
G36*
G01X2361104Y-539640D02*
G01X2360204Y-539720D01*
G01X2358744Y-540160D01*
G01X2357484Y-541000D01*
G01X2357044Y-541420D01*
G01X2356184Y-542660D01*
G01X2355684Y-544100D01*
G01X2355584Y-545000D01*
G01X2355604Y-545620D01*
G01X2355944Y-547080D01*
G01X2356324Y-547920D01*
G01X2356844Y-548660D01*
G01X2357484Y-549320D01*
G01X2358224Y-549860D01*
G01X2359604Y-550460D01*
G01X2360804Y-550660D01*
G01X2382184Y-550640D01*
G01X2382784Y-550540D01*
G01X2384204Y-550000D01*
G01X2384724Y-549680D01*
G01X2385424Y-549100D01*
G01X2386024Y-548420D01*
G01X2386744Y-547080D01*
G01X2387044Y-545920D01*
G01X2387044Y-544400D01*
G01X2386844Y-543520D01*
G01X2386344Y-542400D01*
G01X2386024Y-541900D01*
G01X2385424Y-541200D01*
G01X2384204Y-540300D01*
G01X2383084Y-539860D01*
G01X2382484Y-539720D01*
G01X2381584Y-539640D01*
G37*
G36*
G01X2715124Y-559340D02*
G01X2713924Y-559540D01*
G01X2712544Y-560140D01*
G01X2711804Y-560680D01*
G01X2710824Y-561820D01*
G01X2710164Y-563200D01*
G01X2709944Y-564380D01*
G01X2709924Y-565000D01*
G01X2710084Y-566200D01*
G01X2710524Y-567340D01*
G01X2711384Y-568580D01*
G01X2712284Y-569380D01*
G01X2713084Y-569840D01*
G01X2714224Y-570220D01*
G01X2714824Y-570320D01*
G01X2735904Y-570360D01*
G01X2736804Y-570280D01*
G01X2738264Y-569840D01*
G01X2739524Y-569000D01*
G01X2739964Y-568580D01*
G01X2740824Y-567340D01*
G01X2741324Y-565900D01*
G01X2741424Y-565000D01*
G01X2741404Y-564380D01*
G01X2741064Y-562920D01*
G01X2740684Y-562080D01*
G01X2740164Y-561340D01*
G01X2739524Y-560680D01*
G01X2738784Y-560140D01*
G01X2737404Y-559540D01*
G01X2736204Y-559340D01*
G37*
G36*
G01X2360804Y-559340D02*
G01X2359604Y-559540D01*
G01X2358224Y-560140D01*
G01X2357484Y-560680D01*
G01X2356844Y-561340D01*
G01X2356324Y-562080D01*
G01X2355764Y-563500D01*
G01X2355604Y-564380D01*
G01X2355584Y-565000D01*
G01X2355684Y-565900D01*
G01X2356184Y-567340D01*
G01X2357044Y-568580D01*
G01X2357964Y-569380D01*
G01X2358744Y-569840D01*
G01X2360204Y-570280D01*
G01X2361104Y-570360D01*
G01X2382184Y-570320D01*
G01X2383364Y-570060D01*
G01X2383924Y-569840D01*
G01X2384724Y-569380D01*
G01X2385624Y-568580D01*
G01X2386484Y-567340D01*
G01X2386924Y-566200D01*
G01X2387084Y-565000D01*
G01X2386984Y-563780D01*
G01X2386624Y-562640D01*
G01X2386184Y-561820D01*
G01X2385204Y-560680D01*
G01X2384464Y-560140D01*
G01X2383084Y-559540D01*
G01X2381884Y-559340D01*
G37*
G36*
G01X2715124Y-579020D02*
G01X2713924Y-579220D01*
G01X2712544Y-579820D01*
G01X2711804Y-580360D01*
G01X2710824Y-581500D01*
G01X2710164Y-582880D01*
G01X2709944Y-584080D01*
G01X2709924Y-584680D01*
G01X2710084Y-585880D01*
G01X2710524Y-587020D01*
G01X2711384Y-588260D01*
G01X2712284Y-589060D01*
G01X2713084Y-589520D01*
G01X2714224Y-589900D01*
G01X2714824Y-590000D01*
G01X2735904Y-590040D01*
G01X2736804Y-589960D01*
G01X2738264Y-589520D01*
G01X2739524Y-588680D01*
G01X2739964Y-588260D01*
G01X2740824Y-587020D01*
G01X2741164Y-586180D01*
G01X2741404Y-584980D01*
G01X2741364Y-583760D01*
G01X2741064Y-582600D01*
G01X2740684Y-581760D01*
G01X2740164Y-581020D01*
G01X2739524Y-580360D01*
G01X2738784Y-579820D01*
G01X2737404Y-579220D01*
G01X2736204Y-579020D01*
G37*
G36*
G01X2360804Y-579020D02*
G01X2359604Y-579220D01*
G01X2358224Y-579820D01*
G01X2357484Y-580360D01*
G01X2356844Y-581020D01*
G01X2356324Y-581760D01*
G01X2355764Y-583180D01*
G01X2355584Y-584380D01*
G01X2355604Y-584980D01*
G01X2355844Y-586180D01*
G01X2356184Y-587020D01*
G01X2357044Y-588260D01*
G01X2357964Y-589060D01*
G01X2358744Y-589520D01*
G01X2360204Y-589960D01*
G01X2361104Y-590040D01*
G01X2382184Y-590000D01*
G01X2383364Y-589740D01*
G01X2383924Y-589520D01*
G01X2384724Y-589060D01*
G01X2385624Y-588260D01*
G01X2386484Y-587020D01*
G01X2386924Y-585880D01*
G01X2387084Y-584680D01*
G01X2386984Y-583460D01*
G01X2386624Y-582320D01*
G01X2386184Y-581500D01*
G01X2385204Y-580360D01*
G01X2384464Y-579820D01*
G01X2383084Y-579220D01*
G01X2381884Y-579020D01*
G37*
G36*
G01X2715424Y-598700D02*
G01X2714524Y-598780D01*
G01X2713364Y-599100D01*
G01X2712804Y-599360D01*
G01X2711584Y-600260D01*
G01X2710984Y-600960D01*
G01X2710384Y-602000D01*
G01X2710164Y-602580D01*
G01X2709964Y-603460D01*
G01X2709964Y-604980D01*
G01X2710264Y-606140D01*
G01X2710984Y-607480D01*
G01X2711584Y-608160D01*
G01X2712284Y-608740D01*
G01X2713364Y-609320D01*
G01X2714224Y-609600D01*
G01X2714824Y-609700D01*
G01X2736204Y-609720D01*
G01X2737404Y-609520D01*
G01X2738784Y-608920D01*
G01X2739524Y-608380D01*
G01X2740164Y-607720D01*
G01X2740824Y-606700D01*
G01X2741324Y-605280D01*
G01X2741424Y-604360D01*
G01X2741404Y-603760D01*
G01X2741064Y-602280D01*
G01X2740684Y-601460D01*
G01X2739744Y-600260D01*
G01X2738524Y-599360D01*
G01X2737984Y-599100D01*
G01X2736504Y-598740D01*
G37*
G36*
G01X2361104Y-598700D02*
G01X2360204Y-598780D01*
G01X2358744Y-599220D01*
G01X2357484Y-600060D01*
G01X2357044Y-600480D01*
G01X2356184Y-601720D01*
G01X2355684Y-603160D01*
G01X2355584Y-604060D01*
G01X2355604Y-604680D01*
G01X2355944Y-606140D01*
G01X2356324Y-606980D01*
G01X2357044Y-607940D01*
G01X2357964Y-608740D01*
G01X2358744Y-609200D01*
G01X2359904Y-609600D01*
G01X2360504Y-609700D01*
G01X2381884Y-609720D01*
G01X2383084Y-609520D01*
G01X2384464Y-608920D01*
G01X2385204Y-608380D01*
G01X2386184Y-607220D01*
G01X2386844Y-605860D01*
G01X2387064Y-604680D01*
G01X2387084Y-604060D01*
G01X2386924Y-602860D01*
G01X2386484Y-601720D01*
G01X2385624Y-600480D01*
G01X2384724Y-599680D01*
G01X2383924Y-599220D01*
G01X2382784Y-598840D01*
G01X2382184Y-598740D01*
G37*
G36*
G01X2715424Y-618380D02*
G01X2714524Y-618460D01*
G01X2713364Y-618780D01*
G01X2712804Y-619040D01*
G01X2711584Y-619940D01*
G01X2710984Y-620640D01*
G01X2710384Y-621680D01*
G01X2710164Y-622240D01*
G01X2709964Y-623140D01*
G01X2709964Y-624660D01*
G01X2710264Y-625820D01*
G01X2710984Y-627160D01*
G01X2711584Y-627840D01*
G01X2712284Y-628420D01*
G01X2713364Y-629000D01*
G01X2714224Y-629280D01*
G01X2714824Y-629380D01*
G01X2736204Y-629400D01*
G01X2737404Y-629200D01*
G01X2738784Y-628600D01*
G01X2739524Y-628060D01*
G01X2740164Y-627400D01*
G01X2740824Y-626380D01*
G01X2741324Y-624960D01*
G01X2741424Y-623740D01*
G01X2741324Y-622840D01*
G01X2741064Y-621960D01*
G01X2740684Y-621140D01*
G01X2739744Y-619940D01*
G01X2738524Y-619040D01*
G01X2737984Y-618780D01*
G01X2736504Y-618420D01*
G37*
G36*
G01X2361104Y-618380D02*
G01X2360204Y-618460D01*
G01X2359304Y-618680D01*
G01X2357964Y-619360D01*
G01X2357044Y-620160D01*
G01X2356184Y-621400D01*
G01X2355844Y-622240D01*
G01X2355604Y-623440D01*
G01X2355644Y-624660D01*
G01X2355944Y-625820D01*
G01X2356324Y-626660D01*
G01X2357044Y-627620D01*
G01X2357964Y-628420D01*
G01X2358744Y-628880D01*
G01X2359904Y-629280D01*
G01X2360504Y-629380D01*
G01X2381884Y-629400D01*
G01X2383084Y-629200D01*
G01X2384464Y-628600D01*
G01X2385204Y-628060D01*
G01X2386184Y-626900D01*
G01X2386844Y-625540D01*
G01X2387064Y-624340D01*
G01X2387084Y-623740D01*
G01X2386924Y-622540D01*
G01X2386484Y-621400D01*
G01X2385624Y-620160D01*
G01X2384724Y-619360D01*
G01X2383364Y-618680D01*
G01X2382184Y-618420D01*
G37*
G36*
G01X2715124Y-638080D02*
G01X2713924Y-638280D01*
G01X2712544Y-638880D01*
G01X2711804Y-639420D01*
G01X2710824Y-640560D01*
G01X2710164Y-641940D01*
G01X2709944Y-643140D01*
G01X2709924Y-643740D01*
G01X2710084Y-644940D01*
G01X2710524Y-646080D01*
G01X2711384Y-647320D01*
G01X2712284Y-648120D01*
G01X2713644Y-648800D01*
G01X2714824Y-649060D01*
G01X2735904Y-649100D01*
G01X2736804Y-649020D01*
G01X2737704Y-648800D01*
G01X2739044Y-648120D01*
G01X2739964Y-647320D01*
G01X2740824Y-646080D01*
G01X2741164Y-645240D01*
G01X2741404Y-644040D01*
G01X2741364Y-642820D01*
G01X2741064Y-641660D01*
G01X2740684Y-640820D01*
G01X2740164Y-640080D01*
G01X2739524Y-639420D01*
G01X2738784Y-638880D01*
G01X2737404Y-638280D01*
G01X2736204Y-638080D01*
G37*
G36*
G01X2360804Y-639280D02*
G01X2359604Y-639480D01*
G01X2358224Y-640080D01*
G01X2357484Y-640620D01*
G01X2356844Y-641280D01*
G01X2356184Y-642300D01*
G01X2355684Y-643720D01*
G01X2355584Y-644640D01*
G01X2355604Y-645240D01*
G01X2355844Y-646440D01*
G01X2356184Y-647280D01*
G01X2357044Y-648520D01*
G01X2357964Y-649320D01*
G01X2359304Y-650000D01*
G01X2360204Y-650220D01*
G01X2361104Y-650300D01*
G01X2382184Y-650260D01*
G01X2383364Y-650000D01*
G01X2384724Y-649320D01*
G01X2385624Y-648520D01*
G01X2386484Y-647280D01*
G01X2386924Y-646140D01*
G01X2387084Y-644940D01*
G01X2386984Y-643720D01*
G01X2386624Y-642580D01*
G01X2385824Y-641280D01*
G01X2385204Y-640620D01*
G01X2384464Y-640080D01*
G01X2383084Y-639480D01*
G01X2381884Y-639280D01*
G37*
G36*
G01X2715124Y-657760D02*
G01X2713924Y-657960D01*
G01X2712544Y-658560D01*
G01X2711804Y-659100D01*
G01X2710824Y-660260D01*
G01X2710164Y-661620D01*
G01X2709944Y-662800D01*
G01X2709924Y-663420D01*
G01X2710084Y-664620D01*
G01X2710524Y-665760D01*
G01X2711384Y-667000D01*
G01X2712284Y-667800D01*
G01X2713644Y-668480D01*
G01X2714824Y-668740D01*
G01X2735904Y-668780D01*
G01X2736804Y-668700D01*
G01X2737704Y-668480D01*
G01X2739044Y-667800D01*
G01X2739964Y-667000D01*
G01X2740824Y-665760D01*
G01X2741324Y-664320D01*
G01X2741424Y-663420D01*
G01X2741404Y-662800D01*
G01X2741064Y-661340D01*
G01X2740684Y-660500D01*
G01X2739964Y-659540D01*
G01X2739044Y-658740D01*
G01X2738264Y-658280D01*
G01X2737104Y-657880D01*
G01X2736504Y-657780D01*
G37*
G36*
G01X2361104Y-658960D02*
G01X2360204Y-659040D01*
G01X2359304Y-659260D01*
G01X2357964Y-659940D01*
G01X2357044Y-660740D01*
G01X2356184Y-661980D01*
G01X2355844Y-662820D01*
G01X2355604Y-664020D01*
G01X2355644Y-665240D01*
G01X2355944Y-666400D01*
G01X2356324Y-667240D01*
G01X2357044Y-668200D01*
G01X2357964Y-669000D01*
G01X2358744Y-669460D01*
G01X2359904Y-669860D01*
G01X2360504Y-669960D01*
G01X2381884Y-669980D01*
G01X2383084Y-669780D01*
G01X2384464Y-669180D01*
G01X2385204Y-668640D01*
G01X2386184Y-667480D01*
G01X2386844Y-666120D01*
G01X2387064Y-664920D01*
G01X2387084Y-664320D01*
G01X2386924Y-663120D01*
G01X2386484Y-661980D01*
G01X2385624Y-660740D01*
G01X2384724Y-659940D01*
G01X2383364Y-659260D01*
G01X2382184Y-659000D01*
G37*
G36*
G01X2715424Y-677440D02*
G01X2714524Y-677520D01*
G01X2713364Y-677840D01*
G01X2712804Y-678100D01*
G01X2711584Y-679000D01*
G01X2710984Y-679700D01*
G01X2710384Y-680740D01*
G01X2710164Y-681300D01*
G01X2709964Y-682200D01*
G01X2709964Y-683720D01*
G01X2710264Y-684880D01*
G01X2710984Y-686220D01*
G01X2711584Y-686900D01*
G01X2712284Y-687480D01*
G01X2713364Y-688060D01*
G01X2714224Y-688340D01*
G01X2714824Y-688440D01*
G01X2736204Y-688460D01*
G01X2737404Y-688260D01*
G01X2738784Y-687660D01*
G01X2739524Y-687120D01*
G01X2740164Y-686460D01*
G01X2740684Y-685720D01*
G01X2741244Y-684300D01*
G01X2741424Y-683100D01*
G01X2741404Y-682500D01*
G01X2741164Y-681300D01*
G01X2740824Y-680460D01*
G01X2739964Y-679220D01*
G01X2739044Y-678420D01*
G01X2737704Y-677740D01*
G01X2736804Y-677520D01*
G01X2735904Y-677440D01*
G37*
G36*
G01X2361104Y-677440D02*
G01X2360204Y-677520D01*
G01X2359304Y-677740D01*
G01X2357964Y-678420D01*
G01X2357044Y-679220D01*
G01X2356184Y-680460D01*
G01X2355844Y-681300D01*
G01X2355604Y-682500D01*
G01X2355644Y-683720D01*
G01X2355944Y-684880D01*
G01X2356324Y-685720D01*
G01X2356844Y-686460D01*
G01X2357484Y-687120D01*
G01X2358224Y-687660D01*
G01X2359604Y-688260D01*
G01X2360804Y-688460D01*
G01X2382184Y-688440D01*
G01X2382784Y-688340D01*
G01X2384204Y-687800D01*
G01X2384724Y-687480D01*
G01X2385424Y-686900D01*
G01X2386024Y-686220D01*
G01X2386744Y-684880D01*
G01X2387044Y-683720D01*
G01X2387044Y-682200D01*
G01X2386844Y-681300D01*
G01X2386344Y-680200D01*
G01X2386024Y-679700D01*
G01X2385424Y-679000D01*
G01X2384204Y-678100D01*
G01X2383084Y-677660D01*
G01X2382484Y-677520D01*
G01X2381584Y-677440D01*
G37*
G36*
G01X2715424Y-697120D02*
G01X2714524Y-697200D01*
G01X2713364Y-697520D01*
G01X2712804Y-697780D01*
G01X2711584Y-698680D01*
G01X2710984Y-699380D01*
G01X2710384Y-700420D01*
G01X2710164Y-701000D01*
G01X2709964Y-701880D01*
G01X2709964Y-703400D01*
G01X2710264Y-704560D01*
G01X2710984Y-705900D01*
G01X2711584Y-706580D01*
G01X2712284Y-707160D01*
G01X2713364Y-707740D01*
G01X2714224Y-708020D01*
G01X2714824Y-708120D01*
G01X2736204Y-708140D01*
G01X2737404Y-707940D01*
G01X2738784Y-707340D01*
G01X2739524Y-706800D01*
G01X2740164Y-706140D01*
G01X2740684Y-705400D01*
G01X2741244Y-703980D01*
G01X2741404Y-703100D01*
G01X2741424Y-702480D01*
G01X2741324Y-701580D01*
G01X2740824Y-700140D01*
G01X2739964Y-698900D01*
G01X2739044Y-698100D01*
G01X2738264Y-697640D01*
G01X2736804Y-697200D01*
G01X2735904Y-697120D01*
G37*
G36*
G01X2361104Y-697120D02*
G01X2360204Y-697200D01*
G01X2358744Y-697640D01*
G01X2357484Y-698480D01*
G01X2357044Y-698900D01*
G01X2356184Y-700140D01*
G01X2355684Y-701580D01*
G01X2355584Y-702480D01*
G01X2355604Y-703100D01*
G01X2355944Y-704560D01*
G01X2356324Y-705400D01*
G01X2356844Y-706140D01*
G01X2357484Y-706800D01*
G01X2358224Y-707340D01*
G01X2359604Y-707940D01*
G01X2360804Y-708140D01*
G01X2382184Y-708120D01*
G01X2382784Y-708020D01*
G01X2384204Y-707480D01*
G01X2384724Y-707160D01*
G01X2385424Y-706580D01*
G01X2386024Y-705900D01*
G01X2386744Y-704560D01*
G01X2387044Y-703400D01*
G01X2387044Y-701880D01*
G01X2386844Y-701000D01*
G01X2386344Y-699880D01*
G01X2386024Y-699380D01*
G01X2385424Y-698680D01*
G01X2384204Y-697780D01*
G01X2383084Y-697340D01*
G01X2382484Y-697200D01*
G01X2381584Y-697120D01*
G37*
G36*
G01X2696004Y-716420D02*
G01X2694804Y-716580D01*
G01X2694224Y-716760D01*
G01X2692884Y-717480D01*
G01X2692204Y-718080D01*
G01X2691624Y-718780D01*
G01X2691044Y-719860D01*
G01X2690764Y-720720D01*
G01X2690664Y-721320D01*
G01X2690644Y-742700D01*
G01X2690844Y-743900D01*
G01X2691444Y-745280D01*
G01X2691984Y-746020D01*
G01X2692644Y-746660D01*
G01X2693664Y-747320D01*
G01X2695084Y-747820D01*
G01X2696304Y-747920D01*
G01X2697204Y-747820D01*
G01X2698084Y-747560D01*
G01X2698904Y-747180D01*
G01X2700104Y-746240D01*
G01X2701004Y-745020D01*
G01X2701264Y-744480D01*
G01X2701624Y-743000D01*
G01X2701664Y-721920D01*
G01X2701584Y-721020D01*
G01X2701264Y-719860D01*
G01X2701004Y-719300D01*
G01X2700104Y-718080D01*
G01X2699404Y-717480D01*
G01X2698364Y-716880D01*
G01X2697804Y-716660D01*
G01X2696904Y-716460D01*
G37*
G36*
G01X2538524Y-716420D02*
G01X2537324Y-716580D01*
G01X2536744Y-716760D01*
G01X2535404Y-717480D01*
G01X2534724Y-718080D01*
G01X2534144Y-718780D01*
G01X2533564Y-719860D01*
G01X2533284Y-720720D01*
G01X2533184Y-721320D01*
G01X2533164Y-742700D01*
G01X2533364Y-743900D01*
G01X2533964Y-745280D01*
G01X2534504Y-746020D01*
G01X2535164Y-746660D01*
G01X2536184Y-747320D01*
G01X2537604Y-747820D01*
G01X2538824Y-747920D01*
G01X2539724Y-747820D01*
G01X2540604Y-747560D01*
G01X2541424Y-747180D01*
G01X2542624Y-746240D01*
G01X2543524Y-745020D01*
G01X2543784Y-744480D01*
G01X2544144Y-743000D01*
G01X2544184Y-721920D01*
G01X2544104Y-721020D01*
G01X2543784Y-719860D01*
G01X2543524Y-719300D01*
G01X2542624Y-718080D01*
G01X2541924Y-717480D01*
G01X2540884Y-716880D01*
G01X2540324Y-716660D01*
G01X2539424Y-716460D01*
G37*
G36*
G01X2617264Y-716420D02*
G01X2616064Y-716580D01*
G01X2615484Y-716760D01*
G01X2614144Y-717480D01*
G01X2613464Y-718080D01*
G01X2612884Y-718780D01*
G01X2612304Y-719860D01*
G01X2612024Y-720720D01*
G01X2611924Y-721320D01*
G01X2611904Y-742700D01*
G01X2612104Y-743900D01*
G01X2612704Y-745280D01*
G01X2613244Y-746020D01*
G01X2613904Y-746660D01*
G01X2614644Y-747180D01*
G01X2616064Y-747740D01*
G01X2616944Y-747900D01*
G01X2617564Y-747920D01*
G01X2618464Y-747820D01*
G01X2619904Y-747320D01*
G01X2621144Y-746460D01*
G01X2621944Y-745540D01*
G01X2622404Y-744760D01*
G01X2622844Y-743300D01*
G01X2622924Y-742400D01*
G01X2622884Y-721320D01*
G01X2622624Y-720140D01*
G01X2622404Y-719580D01*
G01X2621944Y-718780D01*
G01X2621144Y-717880D01*
G01X2619904Y-717020D01*
G01X2618764Y-716580D01*
G37*
G36*
G01X2459784Y-716420D02*
G01X2458584Y-716580D01*
G01X2458004Y-716760D01*
G01X2456664Y-717480D01*
G01X2455984Y-718080D01*
G01X2455404Y-718780D01*
G01X2454824Y-719860D01*
G01X2454544Y-720720D01*
G01X2454444Y-721320D01*
G01X2454424Y-742700D01*
G01X2454624Y-743900D01*
G01X2455224Y-745280D01*
G01X2455764Y-746020D01*
G01X2456424Y-746660D01*
G01X2457164Y-747180D01*
G01X2458584Y-747740D01*
G01X2459784Y-747920D01*
G01X2460384Y-747900D01*
G01X2461864Y-747560D01*
G01X2462684Y-747180D01*
G01X2463884Y-746240D01*
G01X2464784Y-745020D01*
G01X2465044Y-744480D01*
G01X2465404Y-743000D01*
G01X2465444Y-721920D01*
G01X2465364Y-721020D01*
G01X2465044Y-719860D01*
G01X2464784Y-719300D01*
G01X2463884Y-718080D01*
G01X2463184Y-717480D01*
G01X2462144Y-716880D01*
G01X2461564Y-716660D01*
G01X2460684Y-716460D01*
G37*
G36*
G01X2656624Y-716420D02*
G01X2655424Y-716580D01*
G01X2654284Y-717020D01*
G01X2653044Y-717880D01*
G01X2652244Y-718780D01*
G01X2651564Y-720140D01*
G01X2651304Y-721320D01*
G01X2651264Y-742400D01*
G01X2651344Y-743300D01*
G01X2651564Y-744200D01*
G01X2652244Y-745540D01*
G01X2653044Y-746460D01*
G01X2654284Y-747320D01*
G01X2655724Y-747820D01*
G01X2656624Y-747920D01*
G01X2657244Y-747900D01*
G01X2658704Y-747560D01*
G01X2659544Y-747180D01*
G01X2660504Y-746460D01*
G01X2661304Y-745540D01*
G01X2661764Y-744760D01*
G01X2662164Y-743600D01*
G01X2662264Y-743000D01*
G01X2662284Y-721620D01*
G01X2662084Y-720420D01*
G01X2661484Y-719040D01*
G01X2660944Y-718300D01*
G01X2659784Y-717320D01*
G01X2658424Y-716660D01*
G01X2657244Y-716440D01*
G37*
G36*
G01X2499144Y-716420D02*
G01X2497944Y-716580D01*
G01X2496804Y-717020D01*
G01X2495564Y-717880D01*
G01X2494764Y-718780D01*
G01X2494084Y-720140D01*
G01X2493824Y-721320D01*
G01X2493784Y-742400D01*
G01X2493864Y-743300D01*
G01X2494084Y-744200D01*
G01X2494764Y-745540D01*
G01X2495564Y-746460D01*
G01X2496804Y-747320D01*
G01X2497644Y-747660D01*
G01X2498844Y-747900D01*
G01X2499444Y-747920D01*
G01X2500364Y-747820D01*
G01X2501784Y-747320D01*
G01X2502804Y-746660D01*
G01X2503464Y-746020D01*
G01X2504004Y-745280D01*
G01X2504604Y-743900D01*
G01X2504804Y-742700D01*
G01X2504784Y-721320D01*
G01X2504684Y-720720D01*
G01X2504144Y-719300D01*
G01X2503824Y-718780D01*
G01X2503244Y-718080D01*
G01X2502564Y-717480D01*
G01X2501224Y-716760D01*
G01X2500064Y-716460D01*
G37*
G36*
G01X2577884Y-716420D02*
G01X2576684Y-716580D01*
G01X2575544Y-717020D01*
G01X2574304Y-717880D01*
G01X2573504Y-718780D01*
G01X2573044Y-719580D01*
G01X2572664Y-720720D01*
G01X2572564Y-721320D01*
G01X2572524Y-742400D01*
G01X2572604Y-743300D01*
G01X2573044Y-744760D01*
G01X2573884Y-746020D01*
G01X2574304Y-746460D01*
G01X2575544Y-747320D01*
G01X2576984Y-747820D01*
G01X2577884Y-747920D01*
G01X2579104Y-747820D01*
G01X2580524Y-747320D01*
G01X2581064Y-747020D01*
G01X2581764Y-746460D01*
G01X2582564Y-745540D01*
G01X2583024Y-744760D01*
G01X2583424Y-743600D01*
G01X2583524Y-743000D01*
G01X2583544Y-721620D01*
G01X2583344Y-720420D01*
G01X2582744Y-719040D01*
G01X2582204Y-718300D01*
G01X2581064Y-717320D01*
G01X2579684Y-716660D01*
G01X2578484Y-716440D01*
G37*
G36*
G01X2420404Y-716420D02*
G01X2419204Y-716580D01*
G01X2418064Y-717020D01*
G01X2416824Y-717880D01*
G01X2416024Y-718780D01*
G01X2415564Y-719580D01*
G01X2415184Y-720720D01*
G01X2415084Y-721320D01*
G01X2415044Y-742400D01*
G01X2415124Y-743300D01*
G01X2415564Y-744760D01*
G01X2416404Y-746020D01*
G01X2416824Y-746460D01*
G01X2418064Y-747320D01*
G01X2419504Y-747820D01*
G01X2420404Y-747920D01*
G01X2421024Y-747900D01*
G01X2422484Y-747560D01*
G01X2423324Y-747180D01*
G01X2424064Y-746660D01*
G01X2424724Y-746020D01*
G01X2425264Y-745280D01*
G01X2425864Y-743900D01*
G01X2426064Y-742700D01*
G01X2426044Y-721320D01*
G01X2425944Y-720720D01*
G01X2425404Y-719300D01*
G01X2425084Y-718780D01*
G01X2424504Y-718080D01*
G01X2423824Y-717480D01*
G01X2422484Y-716760D01*
G01X2421324Y-716460D01*
G37*
G36*
G01X2676304Y-716420D02*
G01X2675104Y-716580D01*
G01X2673964Y-717020D01*
G01X2672724Y-717880D01*
G01X2671924Y-718780D01*
G01X2671244Y-720140D01*
G01X2670984Y-721320D01*
G01X2670944Y-742400D01*
G01X2671024Y-743300D01*
G01X2671244Y-744200D01*
G01X2671924Y-745540D01*
G01X2672724Y-746460D01*
G01X2673964Y-747320D01*
G01X2674804Y-747660D01*
G01X2676004Y-747900D01*
G01X2677224Y-747860D01*
G01X2678384Y-747560D01*
G01X2679224Y-747180D01*
G01X2679964Y-746660D01*
G01X2680624Y-746020D01*
G01X2681164Y-745280D01*
G01X2681764Y-743900D01*
G01X2681964Y-742700D01*
G01X2681944Y-721320D01*
G01X2681844Y-720720D01*
G01X2681304Y-719300D01*
G01X2680984Y-718780D01*
G01X2680404Y-718080D01*
G01X2679724Y-717480D01*
G01X2678384Y-716760D01*
G01X2677224Y-716460D01*
G37*
G36*
G01X2518824Y-716420D02*
G01X2517624Y-716580D01*
G01X2516484Y-717020D01*
G01X2515244Y-717880D01*
G01X2514444Y-718780D01*
G01X2513984Y-719580D01*
G01X2513604Y-720720D01*
G01X2513504Y-721320D01*
G01X2513464Y-742400D01*
G01X2513544Y-743300D01*
G01X2513984Y-744760D01*
G01X2514824Y-746020D01*
G01X2515244Y-746460D01*
G01X2516484Y-747320D01*
G01X2517324Y-747660D01*
G01X2518524Y-747900D01*
G01X2519744Y-747860D01*
G01X2520904Y-747560D01*
G01X2521744Y-747180D01*
G01X2522484Y-746660D01*
G01X2523144Y-746020D01*
G01X2523684Y-745280D01*
G01X2524284Y-743900D01*
G01X2524484Y-742700D01*
G01X2524464Y-721320D01*
G01X2524364Y-720720D01*
G01X2523824Y-719300D01*
G01X2523504Y-718780D01*
G01X2522924Y-718080D01*
G01X2522244Y-717480D01*
G01X2520904Y-716760D01*
G01X2519744Y-716460D01*
G37*
G36*
G01X2597564Y-716420D02*
G01X2596364Y-716580D01*
G01X2595224Y-717020D01*
G01X2593984Y-717880D01*
G01X2593184Y-718780D01*
G01X2592724Y-719580D01*
G01X2592344Y-720720D01*
G01X2592244Y-721320D01*
G01X2592204Y-742400D01*
G01X2592284Y-743300D01*
G01X2592724Y-744760D01*
G01X2593564Y-746020D01*
G01X2593984Y-746460D01*
G01X2595224Y-747320D01*
G01X2596664Y-747820D01*
G01X2597564Y-747920D01*
G01X2598184Y-747900D01*
G01X2599644Y-747560D01*
G01X2600484Y-747180D01*
G01X2601444Y-746460D01*
G01X2602244Y-745540D01*
G01X2602704Y-744760D01*
G01X2603104Y-743600D01*
G01X2603204Y-743000D01*
G01X2603224Y-721620D01*
G01X2603024Y-720420D01*
G01X2602424Y-719040D01*
G01X2601884Y-718300D01*
G01X2600724Y-717320D01*
G01X2599364Y-716660D01*
G01X2598184Y-716440D01*
G37*
G36*
G01X2440084Y-716420D02*
G01X2438884Y-716580D01*
G01X2437744Y-717020D01*
G01X2436504Y-717880D01*
G01X2435704Y-718780D01*
G01X2435024Y-720140D01*
G01X2434764Y-721320D01*
G01X2434724Y-742400D01*
G01X2434804Y-743300D01*
G01X2435024Y-744200D01*
G01X2435704Y-745540D01*
G01X2436504Y-746460D01*
G01X2437744Y-747320D01*
G01X2439184Y-747820D01*
G01X2440084Y-747920D01*
G01X2440704Y-747900D01*
G01X2442164Y-747560D01*
G01X2443004Y-747180D01*
G01X2443964Y-746460D01*
G01X2444764Y-745540D01*
G01X2445224Y-744760D01*
G01X2445624Y-743600D01*
G01X2445724Y-743000D01*
G01X2445744Y-721620D01*
G01X2445544Y-720420D01*
G01X2444944Y-719040D01*
G01X2444404Y-718300D01*
G01X2443244Y-717320D01*
G01X2441884Y-716660D01*
G01X2440704Y-716440D01*
G37*
G36*
G01X2636944Y-716420D02*
G01X2635744Y-716580D01*
G01X2635164Y-716760D01*
G01X2633824Y-717480D01*
G01X2633144Y-718080D01*
G01X2632564Y-718780D01*
G01X2631984Y-719860D01*
G01X2631704Y-720720D01*
G01X2631604Y-721320D01*
G01X2631584Y-742700D01*
G01X2631784Y-743900D01*
G01X2632384Y-745280D01*
G01X2632924Y-746020D01*
G01X2633584Y-746660D01*
G01X2634324Y-747180D01*
G01X2635744Y-747740D01*
G01X2636944Y-747920D01*
G01X2637544Y-747900D01*
G01X2638744Y-747660D01*
G01X2639584Y-747320D01*
G01X2640824Y-746460D01*
G01X2641624Y-745540D01*
G01X2642304Y-744200D01*
G01X2642524Y-743300D01*
G01X2642604Y-742400D01*
G01X2642564Y-721320D01*
G01X2642304Y-720140D01*
G01X2641624Y-718780D01*
G01X2640824Y-717880D01*
G01X2639584Y-717020D01*
G01X2638444Y-716580D01*
G37*
G36*
G01X2479464Y-716420D02*
G01X2478264Y-716580D01*
G01X2477684Y-716760D01*
G01X2476344Y-717480D01*
G01X2475664Y-718080D01*
G01X2475084Y-718780D01*
G01X2474504Y-719860D01*
G01X2474224Y-720720D01*
G01X2474124Y-721320D01*
G01X2474104Y-742700D01*
G01X2474304Y-743900D01*
G01X2474904Y-745280D01*
G01X2475444Y-746020D01*
G01X2476104Y-746660D01*
G01X2477124Y-747320D01*
G01X2478544Y-747820D01*
G01X2479764Y-747920D01*
G01X2480664Y-747820D01*
G01X2481544Y-747560D01*
G01X2482364Y-747180D01*
G01X2483564Y-746240D01*
G01X2484464Y-745020D01*
G01X2484724Y-744480D01*
G01X2485084Y-743000D01*
G01X2485124Y-721920D01*
G01X2485044Y-721020D01*
G01X2484724Y-719860D01*
G01X2484464Y-719300D01*
G01X2483564Y-718080D01*
G01X2482864Y-717480D01*
G01X2481824Y-716880D01*
G01X2481264Y-716660D01*
G01X2480364Y-716460D01*
G37*
G36*
G01X2558204Y-716420D02*
G01X2557004Y-716580D01*
G01X2556424Y-716760D01*
G01X2555084Y-717480D01*
G01X2554404Y-718080D01*
G01X2553824Y-718780D01*
G01X2553244Y-719860D01*
G01X2552964Y-720720D01*
G01X2552864Y-721320D01*
G01X2552844Y-742700D01*
G01X2553044Y-743900D01*
G01X2553644Y-745280D01*
G01X2554184Y-746020D01*
G01X2554844Y-746660D01*
G01X2555584Y-747180D01*
G01X2557004Y-747740D01*
G01X2557884Y-747900D01*
G01X2558504Y-747920D01*
G01X2559404Y-747820D01*
G01X2560844Y-747320D01*
G01X2562084Y-746460D01*
G01X2562884Y-745540D01*
G01X2563344Y-744760D01*
G01X2563784Y-743300D01*
G01X2563864Y-742400D01*
G01X2563824Y-721320D01*
G01X2563564Y-720140D01*
G01X2563344Y-719580D01*
G01X2562884Y-718780D01*
G01X2562084Y-717880D01*
G01X2560844Y-717020D01*
G01X2559704Y-716580D01*
G37*
G36*
G01X2400724Y-716420D02*
G01X2399524Y-716580D01*
G01X2398944Y-716760D01*
G01X2397604Y-717480D01*
G01X2396924Y-718080D01*
G01X2396344Y-718780D01*
G01X2395764Y-719860D01*
G01X2395484Y-720720D01*
G01X2395384Y-721320D01*
G01X2395364Y-742700D01*
G01X2395564Y-743900D01*
G01X2396164Y-745280D01*
G01X2396704Y-746020D01*
G01X2397364Y-746660D01*
G01X2398104Y-747180D01*
G01X2399524Y-747740D01*
G01X2400404Y-747900D01*
G01X2401024Y-747920D01*
G01X2401924Y-747820D01*
G01X2403364Y-747320D01*
G01X2404604Y-746460D01*
G01X2405404Y-745540D01*
G01X2405864Y-744760D01*
G01X2406304Y-743300D01*
G01X2406384Y-742400D01*
G01X2406344Y-721320D01*
G01X2406084Y-720140D01*
G01X2405864Y-719580D01*
G01X2405404Y-718780D01*
G01X2404604Y-717880D01*
G01X2403364Y-717020D01*
G01X2402224Y-716580D01*
G37*
G54D10*
G01X3035944Y-960000D03*
G01X3091064Y-960000D03*
G54D11*
G01X3183504Y-887560D03*
G01X3183504Y-832440D03*
G01X3233504Y-392560D03*
G01X3233504Y-337440D03*
G54D10*
G01X3055944Y-440000D03*
G01X3111064Y-440000D03*
G01X2875944Y-650000D03*
G01X2931064Y-650000D03*
G01X2910944Y-400000D03*
G01X2966064Y-400000D03*
G54D12*
G01X3443504Y-906000D03*
G01X3443504Y-844000D03*
G01X3088504Y-571000D03*
G01X3088504Y-509000D03*
G54D13*
G01X3163924Y-377400D03*
G01X3163924Y-340000D03*
G01X3163924Y-302600D03*
G54D14*
G01X3073084Y-302600D03*
G01X3073084Y-377400D03*
G54D13*
G01X3368924Y-917400D03*
G01X3368924Y-880000D03*
G01X3368924Y-842600D03*
G54D14*
G01X3278084Y-842600D03*
G01X3278084Y-917400D03*
G54D29*
G01X3393976Y-357280D03*
G01X3393976Y-392719D03*
G01X3453032Y-392719D03*
G01X3453032Y-357280D03*
G54D16*
G01X3449984Y-704860D03*
G01X3387034Y-705140D03*
G01X3449984Y-579860D03*
G01X3387034Y-580140D03*
G54D17*
G01X2063504Y-170000D03*
G01X2063504Y-270000D03*
G01X2063504Y-370000D03*
G01X2063504Y-470000D03*
G01X2063504Y-570000D03*
G01X2063504Y-670000D03*
G01X2063504Y-770000D03*
G01X2063504Y-870000D03*
G01X2063504Y-970000D03*
G01X2063504Y-1070000D03*
G54D18*
G01X3392874Y-267090D03*
G01X3353504Y-267090D03*
G01X3314134Y-267090D03*
G54D19*
G01X3461774Y-239530D03*
G01X3245234Y-239530D03*
G01X3461774Y-152910D03*
G01X3245234Y-152910D03*
G54D22*
G01X3163504Y-724500D03*
G01X3213504Y-724500D03*
G01X3263504Y-724500D03*
G01X3313504Y-724500D03*
G01X3313504Y-495500D03*
G01X3263504Y-495500D03*
G01X3213504Y-495500D03*
G01X3163504Y-495500D03*
G54D23*
G01X3238504Y-610000D03*
G54D24*
G01X2916964Y-563310D03*
G54D30*
G01X2916964Y-476693D03*
G01X2850034Y-476693D03*
G01X2850034Y-563307D03*
G54D26*
G01X3310514Y-1114610D03*
G01X3310514Y-1065390D03*
G54D27*
G01X3436494Y-992560D03*
G01X3436494Y-1187440D03*
G54D28*
G01X3017334Y-902410D03*
G01X3017334Y-827610D03*
G01X3119704Y-827610D03*
G01X3119704Y-865010D03*
G01X3119704Y-902410D03*
G54D12*
G01X2243504Y-666000D03*
G01X2243504Y-604000D03*
G54D31*
G01X2263842Y-421604D03*
G54D32*
G01X2223166Y-468396D03*
G54D33*
G01X2648504Y-805000D03*
G01X2678504Y-805000D03*
G01X2708504Y-805000D03*
G01X2738504Y-805000D03*
G01X2833504Y-410000D03*
G01X3937008Y0000000D02*
G36*
G01X5239968Y-912280D02*
G01X5237988Y-914260D01*
G01X5237988Y-945740D01*
G01X5239968Y-947720D01*
G01X5271448Y-947720D01*
G01X5273428Y-945740D01*
G01X5273428Y-936780D01*
G01X5258868Y-936780D01*
G01X5258868Y-923780D01*
G01X5273428Y-923780D01*
G01X5273428Y-914260D01*
G01X5271448Y-912280D01*
G37*
G36*
G01X5302568Y-912280D02*
G01X5300588Y-914260D01*
G01X5300588Y-923220D01*
G01X5315148Y-923220D01*
G01X5315148Y-936220D01*
G01X5300588Y-936220D01*
G01X5300588Y-945740D01*
G01X5302568Y-947720D01*
G01X5334048Y-947720D01*
G01X5336028Y-945740D01*
G01X5336028Y-914260D01*
G01X5334048Y-912280D01*
G37*
G36*
G01X5142568Y-847280D02*
G01X5140588Y-849260D01*
G01X5140588Y-858220D01*
G01X5155148Y-858220D01*
G01X5155148Y-871220D01*
G01X5140588Y-871220D01*
G01X5140588Y-880740D01*
G01X5142568Y-882720D01*
G01X5174048Y-882720D01*
G01X5176028Y-880740D01*
G01X5176028Y-849260D01*
G01X5174048Y-847280D01*
G37*
G36*
G01X5079968Y-847280D02*
G01X5077988Y-849260D01*
G01X5077988Y-880740D01*
G01X5079968Y-882720D01*
G01X5111448Y-882720D01*
G01X5113428Y-880740D01*
G01X5113428Y-871780D01*
G01X5098868Y-871780D01*
G01X5098868Y-858780D01*
G01X5113428Y-858780D01*
G01X5113428Y-849260D01*
G01X5111448Y-847280D01*
G37*
G36*
G01X5079968Y-912280D02*
G01X5077988Y-914260D01*
G01X5077988Y-945740D01*
G01X5079968Y-947720D01*
G01X5111448Y-947720D01*
G01X5113428Y-945740D01*
G01X5113428Y-936780D01*
G01X5098868Y-936780D01*
G01X5098868Y-923780D01*
G01X5113428Y-923780D01*
G01X5113428Y-914260D01*
G01X5111448Y-912280D01*
G37*
G36*
G01X5142568Y-912280D02*
G01X5140588Y-914260D01*
G01X5140588Y-923220D01*
G01X5155148Y-923220D01*
G01X5155148Y-936220D01*
G01X5140588Y-936220D01*
G01X5140588Y-945740D01*
G01X5142568Y-947720D01*
G01X5174048Y-947720D01*
G01X5176028Y-945740D01*
G01X5176028Y-914260D01*
G01X5174048Y-912280D01*
G37*
G36*
G01X4267568Y-682280D02*
G01X4265588Y-684260D01*
G01X4265588Y-693220D01*
G01X4280168Y-693220D01*
G01X4280168Y-706220D01*
G01X4265588Y-706220D01*
G01X4265588Y-715740D01*
G01X4267568Y-717720D01*
G01X4299048Y-717720D01*
G01X4301028Y-715740D01*
G01X4301028Y-684260D01*
G01X4299048Y-682280D01*
G37*
G36*
G01X4204968Y-682280D02*
G01X4202988Y-684260D01*
G01X4202988Y-715740D01*
G01X4204968Y-717720D01*
G01X4236448Y-717720D01*
G01X4238428Y-715740D01*
G01X4238428Y-706780D01*
G01X4223848Y-706780D01*
G01X4223848Y-693780D01*
G01X4238428Y-693780D01*
G01X4238428Y-684260D01*
G01X4236448Y-682280D01*
G37*
G36*
G01X4204968Y-622280D02*
G01X4202988Y-624260D01*
G01X4202988Y-655740D01*
G01X4204968Y-657720D01*
G01X4236448Y-657720D01*
G01X4238428Y-655740D01*
G01X4238428Y-646780D01*
G01X4223848Y-646780D01*
G01X4223848Y-633780D01*
G01X4238428Y-633780D01*
G01X4238428Y-624260D01*
G01X4236448Y-622280D01*
G37*
G36*
G01X4267568Y-622280D02*
G01X4265588Y-624260D01*
G01X4265588Y-633220D01*
G01X4280168Y-633220D01*
G01X4280168Y-646220D01*
G01X4265588Y-646220D01*
G01X4265588Y-655740D01*
G01X4267568Y-657720D01*
G01X4299048Y-657720D01*
G01X4301028Y-655740D01*
G01X4301028Y-624260D01*
G01X4299048Y-622280D01*
G37*
G36*
G01X4299968Y-862280D02*
G01X4297988Y-864260D01*
G01X4297988Y-895740D01*
G01X4299968Y-897720D01*
G01X4331448Y-897720D01*
G01X4333428Y-895740D01*
G01X4333428Y-886780D01*
G01X4318848Y-886780D01*
G01X4318848Y-873780D01*
G01X4333428Y-873780D01*
G01X4333428Y-864260D01*
G01X4331448Y-862280D01*
G37*
G36*
G01X4362568Y-862280D02*
G01X4360588Y-864260D01*
G01X4360588Y-873220D01*
G01X4375168Y-873220D01*
G01X4375168Y-886220D01*
G01X4360588Y-886220D01*
G01X4360588Y-895740D01*
G01X4362568Y-897720D01*
G01X4394048Y-897720D01*
G01X4396028Y-895740D01*
G01X4396028Y-864260D01*
G01X4394048Y-862280D01*
G37*
G36*
G01X4622568Y-557280D02*
G01X4620588Y-559260D01*
G01X4620588Y-568220D01*
G01X4635168Y-568220D01*
G01X4635168Y-581220D01*
G01X4620588Y-581220D01*
G01X4620588Y-590740D01*
G01X4622568Y-592720D01*
G01X4654048Y-592720D01*
G01X4656028Y-590740D01*
G01X4656028Y-559260D01*
G01X4654048Y-557280D01*
G37*
G36*
G01X4559968Y-557280D02*
G01X4557988Y-559260D01*
G01X4557988Y-590740D01*
G01X4559968Y-592720D01*
G01X4591448Y-592720D01*
G01X4593428Y-590740D01*
G01X4593428Y-581780D01*
G01X4578848Y-581780D01*
G01X4578848Y-568780D01*
G01X4593428Y-568780D01*
G01X4593428Y-559260D01*
G01X4591448Y-557280D01*
G37*
G36*
G01X4362568Y-797280D02*
G01X4360588Y-799260D01*
G01X4360588Y-808220D01*
G01X4375168Y-808220D01*
G01X4375168Y-821220D01*
G01X4360588Y-821220D01*
G01X4360588Y-830740D01*
G01X4362568Y-832720D01*
G01X4394048Y-832720D01*
G01X4396028Y-830740D01*
G01X4396028Y-799260D01*
G01X4394048Y-797280D01*
G37*
G36*
G01X4299968Y-797280D02*
G01X4297988Y-799260D01*
G01X4297988Y-830740D01*
G01X4299968Y-832720D01*
G01X4331448Y-832720D01*
G01X4333428Y-830740D01*
G01X4333428Y-821780D01*
G01X4318848Y-821780D01*
G01X4318848Y-808780D01*
G01X4333428Y-808780D01*
G01X4333428Y-799260D01*
G01X4331448Y-797280D01*
G37*
G36*
G01X4559968Y-617280D02*
G01X4557988Y-619260D01*
G01X4557988Y-650740D01*
G01X4559968Y-652720D01*
G01X4591448Y-652720D01*
G01X4593428Y-650740D01*
G01X4593428Y-641780D01*
G01X4578848Y-641780D01*
G01X4578848Y-628780D01*
G01X4593428Y-628780D01*
G01X4593428Y-619260D01*
G01X4591448Y-617280D01*
G37*
G36*
G01X4622568Y-617280D02*
G01X4620588Y-619260D01*
G01X4620588Y-628220D01*
G01X4635168Y-628220D01*
G01X4635168Y-641220D01*
G01X4620588Y-641220D01*
G01X4620588Y-650740D01*
G01X4622568Y-652720D01*
G01X4654048Y-652720D01*
G01X4656028Y-650740D01*
G01X4656028Y-619260D01*
G01X4654048Y-617280D01*
G37*
G36*
G01X4429968Y-762280D02*
G01X4427988Y-764260D01*
G01X4427988Y-795740D01*
G01X4429968Y-797720D01*
G01X4461448Y-797720D01*
G01X4463428Y-795740D01*
G01X4463428Y-786780D01*
G01X4448848Y-786780D01*
G01X4448848Y-773780D01*
G01X4463428Y-773780D01*
G01X4463428Y-764260D01*
G01X4461448Y-762280D01*
G37*
G36*
G01X4492568Y-762280D02*
G01X4490588Y-764260D01*
G01X4490588Y-773220D01*
G01X4505168Y-773220D01*
G01X4505168Y-786220D01*
G01X4490588Y-786220D01*
G01X4490588Y-795740D01*
G01X4492568Y-797720D01*
G01X4524048Y-797720D01*
G01X4526028Y-795740D01*
G01X4526028Y-764260D01*
G01X4524048Y-762280D01*
G37*
G36*
G01X4722568Y-847280D02*
G01X4720588Y-849260D01*
G01X4720588Y-858220D01*
G01X4735148Y-858220D01*
G01X4735148Y-871220D01*
G01X4720588Y-871220D01*
G01X4720588Y-880740D01*
G01X4722568Y-882720D01*
G01X4754048Y-882720D01*
G01X4756028Y-880740D01*
G01X4756028Y-849260D01*
G01X4754048Y-847280D01*
G37*
G36*
G01X4659968Y-847280D02*
G01X4657988Y-849260D01*
G01X4657988Y-880740D01*
G01X4659968Y-882720D01*
G01X4691448Y-882720D01*
G01X4693428Y-880740D01*
G01X4693428Y-871780D01*
G01X4678848Y-871780D01*
G01X4678848Y-858780D01*
G01X4693428Y-858780D01*
G01X4693428Y-849260D01*
G01X4691448Y-847280D01*
G37*
G36*
G01X4592568Y-847280D02*
G01X4590588Y-849260D01*
G01X4590588Y-858220D01*
G01X4605168Y-858220D01*
G01X4605168Y-871220D01*
G01X4590588Y-871220D01*
G01X4590588Y-880740D01*
G01X4592568Y-882720D01*
G01X4624048Y-882720D01*
G01X4626028Y-880740D01*
G01X4626028Y-849260D01*
G01X4624048Y-847280D01*
G37*
G36*
G01X4529968Y-847280D02*
G01X4527988Y-849260D01*
G01X4527988Y-880740D01*
G01X4529968Y-882720D01*
G01X4561448Y-882720D01*
G01X4563428Y-880740D01*
G01X4563428Y-871780D01*
G01X4548848Y-871780D01*
G01X4548848Y-858780D01*
G01X4563428Y-858780D01*
G01X4563428Y-849260D01*
G01X4561448Y-847280D01*
G37*
G36*
G01X4262568Y-377280D02*
G01X4260588Y-379260D01*
G01X4260588Y-388220D01*
G01X4275168Y-388220D01*
G01X4275168Y-401220D01*
G01X4260588Y-401220D01*
G01X4260588Y-410740D01*
G01X4262568Y-412720D01*
G01X4294048Y-412720D01*
G01X4296028Y-410740D01*
G01X4296028Y-379260D01*
G01X4294048Y-377280D01*
G37*
G36*
G01X4199968Y-377280D02*
G01X4197988Y-379260D01*
G01X4197988Y-410740D01*
G01X4199968Y-412720D01*
G01X4231448Y-412720D01*
G01X4233428Y-410740D01*
G01X4233428Y-401780D01*
G01X4218848Y-401780D01*
G01X4218848Y-388780D01*
G01X4233428Y-388780D01*
G01X4233428Y-379260D01*
G01X4231448Y-377280D01*
G37*
G36*
G01X4554968Y-412280D02*
G01X4552988Y-414260D01*
G01X4552988Y-445740D01*
G01X4554968Y-447720D01*
G01X4586448Y-447720D01*
G01X4588428Y-445740D01*
G01X4588428Y-436780D01*
G01X4573848Y-436780D01*
G01X4573848Y-423780D01*
G01X4588428Y-423780D01*
G01X4588428Y-414260D01*
G01X4586448Y-412280D01*
G37*
G36*
G01X4617568Y-412280D02*
G01X4615588Y-414260D01*
G01X4615588Y-423220D01*
G01X4630168Y-423220D01*
G01X4630168Y-436220D01*
G01X4615588Y-436220D01*
G01X4615588Y-445740D01*
G01X4617568Y-447720D01*
G01X4649048Y-447720D01*
G01X4651028Y-445740D01*
G01X4651028Y-414260D01*
G01X4649048Y-412280D01*
G37*
G36*
G01X4334968Y-377280D02*
G01X4332988Y-379260D01*
G01X4332988Y-410740D01*
G01X4334968Y-412720D01*
G01X4366448Y-412720D01*
G01X4368428Y-410740D01*
G01X4368428Y-401780D01*
G01X4353848Y-401780D01*
G01X4353848Y-388780D01*
G01X4368428Y-388780D01*
G01X4368428Y-379260D01*
G01X4366448Y-377280D01*
G37*
G36*
G01X4397568Y-377280D02*
G01X4395588Y-379260D01*
G01X4395588Y-388220D01*
G01X4410168Y-388220D01*
G01X4410168Y-401220D01*
G01X4395588Y-401220D01*
G01X4395588Y-410740D01*
G01X4397568Y-412720D01*
G01X4429048Y-412720D01*
G01X4431028Y-410740D01*
G01X4431028Y-379260D01*
G01X4429048Y-377280D01*
G37*
G36*
G01X4327568Y-312280D02*
G01X4325588Y-314260D01*
G01X4325588Y-323220D01*
G01X4340168Y-323220D01*
G01X4340168Y-336220D01*
G01X4325588Y-336220D01*
G01X4325588Y-345740D01*
G01X4327568Y-347720D01*
G01X4359048Y-347720D01*
G01X4361028Y-345740D01*
G01X4361028Y-314260D01*
G01X4359048Y-312280D01*
G37*
G36*
G01X4264968Y-312280D02*
G01X4262988Y-314260D01*
G01X4262988Y-345740D01*
G01X4264968Y-347720D01*
G01X4296448Y-347720D01*
G01X4298428Y-345740D01*
G01X4298428Y-336780D01*
G01X4283848Y-336780D01*
G01X4283848Y-323780D01*
G01X4298428Y-323780D01*
G01X4298428Y-314260D01*
G01X4296448Y-312280D01*
G37*
G36*
G01X4554968Y-472280D02*
G01X4552988Y-474260D01*
G01X4552988Y-505740D01*
G01X4554968Y-507720D01*
G01X4586448Y-507720D01*
G01X4588428Y-505740D01*
G01X4588428Y-496780D01*
G01X4573848Y-496780D01*
G01X4573848Y-483780D01*
G01X4588428Y-483780D01*
G01X4588428Y-474260D01*
G01X4586448Y-472280D01*
G37*
G36*
G01X4617568Y-472280D02*
G01X4615588Y-474260D01*
G01X4615588Y-483220D01*
G01X4630168Y-483220D01*
G01X4630168Y-496220D01*
G01X4615588Y-496220D01*
G01X4615588Y-505740D01*
G01X4617568Y-507720D01*
G01X4649048Y-507720D01*
G01X4651028Y-505740D01*
G01X4651028Y-474260D01*
G01X4649048Y-472280D01*
G37*
G54D35*
G01X5337008Y-860000D03*
G54D12*
G01X5342008Y-709000D03*
G01X5342008Y-771000D03*
G54D11*
G01X5262008Y-712440D03*
G01X5262008Y-767560D03*
G54D36*
G01X5422008Y-792240D03*
G01X5422008Y-697760D03*
G54D10*
G01X5094448Y-540000D03*
G01X5149568Y-540000D03*
G54D37*
G01X5086528Y-625000D03*
G01X5167488Y-625000D03*
G54D38*
G01X5342008Y-535000D03*
G01X5292008Y-535000D03*
G01X5392008Y-535000D03*
G54D39*
G01X5081768Y-717600D03*
G01X5081768Y-755000D03*
G01X5081768Y-792400D03*
G01X5172248Y-792400D03*
G01X5172248Y-755000D03*
G01X5172248Y-717600D03*
G54D11*
G01X5252008Y-412560D03*
G01X5252008Y-357440D03*
G54D10*
G01X5084448Y-465000D03*
G01X5139568Y-465000D03*
G54D13*
G01X5177428Y-392400D03*
G01X5177428Y-355000D03*
G01X5177428Y-317600D03*
G54D14*
G01X5086588Y-317600D03*
G01X5086588Y-392400D03*
G54D17*
G01X4032008Y-170000D03*
G01X4032008Y-270000D03*
G01X4032008Y-370000D03*
G01X4032008Y-470000D03*
G01X4032008Y-570000D03*
G01X4032008Y-670000D03*
G01X4032008Y-770000D03*
G01X4032008Y-870000D03*
G01X4032008Y-970000D03*
G01X4032008Y-1070000D03*
G54D18*
G01X5361378Y-267090D03*
G01X5322008Y-267090D03*
G01X5282638Y-267090D03*
G54D19*
G01X5430278Y-239530D03*
G01X5213738Y-239530D03*
G01X5430278Y-152910D03*
G01X5213738Y-152910D03*
G54D26*
G01X5279018Y-1119610D03*
G01X5279018Y-1070390D03*
G54D27*
G01X5404998Y-997560D03*
G01X5404998Y-1192440D03*
G54D11*
G01X4267008Y-502440D03*
G01X4267008Y-557560D03*
G54D40*
G01X4378007Y-950000D03*
G01X4316008Y-950000D03*
G54D12*
G01X4232008Y-956000D03*
G01X4232008Y-894000D03*
G54D41*
G01X4350238Y-710240D03*
G01X4375828Y-710240D03*
G01X4401418Y-710240D03*
G01X4427008Y-710240D03*
G01X4452598Y-710240D03*
G01X4478188Y-710240D03*
G01X4503778Y-710240D03*
G01X4503778Y-489760D03*
G01X4478188Y-489760D03*
G01X4452598Y-489760D03*
G01X4427008Y-489760D03*
G01X4401418Y-489760D03*
G01X4375828Y-489760D03*
G01X4350238Y-489760D03*
G54D40*
G01X4638007Y-770000D03*
G01X4576008Y-770000D03*
G54D10*
G01X4634568Y-695000D03*
G01X4579448Y-695000D03*
M02*
